<svg  fill="#ffffff" id="Layer_1" data-name="Layer 1" xmlns="http://www.w3.org/2000/svg" viewBox="0 0 280.91 333.04"><path d="M420.8,356c-12.12-22.48-24.5-43.69-35.19-65.71-15.92-32.78-16.41-66.25.5-98.94,10.56-20.41,22.4-40.15,33.66-60.19l2.11.06C432.66,150,444,168.49,454,187.71a140.15,140.15,0,0,1,11.79,32.34c5.94,25.46.83,49.91-10.75,72.82C444.44,313.86,432.64,334.25,420.8,356Z" transform="translate(-280.49 -131.12)"/><path d="M433.21,355.92a123,123,0,0,1,22.22-34.75c15-17,33.64-25.72,56.42-24.27,17.13,1.1,32.22,6.9,42.27,21.86,17.33,25.77,2.16,60.61-29.17,67.07a33.09,33.09,0,0,1-9.77.93c-2.26-.23-5.57-1.63-6.16-3.3s1.22-5,3-6.27c7.57-5.68,11.18-12.84,9.51-22.25a20.31,20.31,0,0,0-10.74-14.63,46.42,46.42,0,0,0-36.31-4.11,130,130,0,0,0-37.89,17.67C435.79,354.38,435,354.83,433.21,355.92Z" transform="translate(-280.49 -131.12)"/><path d="M408.61,355.77c-5.2-3.15-9.34-6-13.8-8.28-13.23-6.74-26.58-13.94-42-12.84a57.89,57.89,0,0,0-21.59,5.86c-14.49,7.36-15.27,26.4-2.15,36,.67.49,1.67.78,2,1.43.87,1.78,2.37,4,1.88,5.49s-3,3.25-4.73,3.32c-24.43,1.1-48.64-18.42-47.71-45.73.72-21.21,17-39.39,42-43.28s45.77,3.71,62.79,22.26A122.37,122.37,0,0,1,408.61,355.77Z" transform="translate(-280.49 -131.12)"/><path d="M421.08,390.68c4.88,8.55,9.42,15.8,13.26,23.41,4.36,8.64,3.78,17.72-.31,26.24-3.76,7.81-8.39,15.2-13.23,23.83-5-9.35-10-17.5-13.85-26.16-4-9.1-2.78-18.44,2-27.1C412.51,404.44,416.52,398.23,421.08,390.68Z" transform="translate(-280.49 -131.12)"/><path d="M434.56,393.08c5.43,3.63,10.74,7.47,16.32,10.85a23.36,23.36,0,0,0,19.47,2.51c8.67-2.61,11.24-11.28,5.56-18.29-.82-1-1.08-2.46-1.6-3.71,1.61-.46,3.31-1.53,4.8-1.29,10.44,1.71,18.48,11.34,18.57,21.88a22.82,22.82,0,0,1-18.5,22.44c-15.22,3-28.67-2.55-36.78-15.9-3.49-5.74-5.93-12.12-8.84-18.2Z" transform="translate(-280.49 -131.12)"/><path d="M407.09,393.4c-3.25,17.21-15.43,32.89-32.65,34.66-9.07.93-17.46-.6-24-7.45-6.11-6.37-7.86-14-5.06-22.37s9.05-13.15,17.46-15.1c1.35-.31,3,.6,4.48.94-.45,1.37-.51,3.13-1.41,4.05-7,7.07-1.16,17,6.23,18.53,5.87,1.2,11.54,1.26,16.76-1.79C395.18,401.18,401.27,397.09,407.09,393.4Z" transform="translate(-280.49 -131.12)"/><path d="M420.36,357.61c7.91,1.59,16,2.46,23.53,4.94,8.81,2.89,9.37,8.29,2.39,14.45-15,13.23-35.8,13.29-50.78.14-7-6.12-6.26-12.24,2.49-15C405.09,359.82,412.69,359.08,420.36,357.61Z" transform="translate(-280.49 -131.12)"/></svg>