<svg fill="#ffffff" id="Layer_1" data-name="Layer 1" xmlns="http://www.w3.org/2000/svg" viewBox="0 0 689.12 245.15"><path d="M232.36,420.21h-156v-2.55c10.2,0,18.4-9.91,18.4-33.12V210.73c0-23.21-8.19-33.12-18.4-33.12v-2.55H138.1v2.55c-10.47,0-18.69,9.91-18.69,33.12V384.54c0,23.21,8.2,33.12,18.69,33.12h42.17a49.37,49.37,0,0,0,49.54-49.26h2.55Z" transform="translate(-76.38 -175.06)"/><path d="M379.86,377.75c-9.05,27.17-35.1,42.46-63.69,42.46-46.7,0-72.74-35.39-72.74-79s25.75-78.69,71.91-79.26h.85c30,0,58,15.57,58,45,0,49.26-75.29,41.33-101.34,61.14,8.19,27.18,28,43.6,56.05,43.6,22.36,0,39.35-11.89,49.82-34.54ZM314.19,264.52c-27.17.57-45.86,30-45.86,71.91a123.36,123.36,0,0,0,3.68,30c24.63-19.82,79.27-12.17,79.27-60.86,0-31.4-19-41-36.24-41Z" transform="translate(-76.38 -175.06)"/><path d="M551.74,420.21h-156v-2.55c10.2,0,18.4-9.91,18.4-33.12V210.73c0-23.21-8.19-33.12-18.4-33.12v-2.55h61.72v2.55c-10.47,0-18.69,9.91-18.69,33.12V384.54c0,23.21,8.19,33.12,18.69,33.12h42.17a49.37,49.37,0,0,0,49.54-49.26h2.55Z" transform="translate(-76.38 -175.06)"/><path d="M588.32,235.35a19.53,19.53,0,1,1,19.54-19.53,19.56,19.56,0,0,1-19.54,19.53Z" transform="translate(-76.38 -175.06)"/><path d="M558.6,420.2v-2.55c10.2,0,18.41-9.91,18.41-33.12V297.91a48.13,48.13,0,0,0-5.38-25.48,15.13,15.13,0,0,0-13-7.93V262h43V384.52A47.58,47.58,0,0,0,607,409.73a15,15,0,0,0,13.3,7.93v2.55Z" transform="translate(-76.38 -175.06)"/><path d="M751.56,376.9c0,30-33.4,43.31-59.44,43.31a103.12,103.12,0,0,1-54.92-17.55v-32h2.55c3.68,22.08,19.53,47,52.37,47,.28,0,38.78,0,38.78-28.59,0-42.18-94.55-42.46-94.55-88.6,0-28.59,30-38.5,55.77-38.5a79.93,79.93,0,0,1,51.52,19.25V314.9h-2.55c-1.7-21.24-17-50.39-49-50.39,0,0-36.24.57-36.24,24.91,0,36.53,95.68,43,95.68,87.48" transform="translate(-76.38 -175.06)"/><path d="M765.51,409.46a6.56,6.56,0,1,1-6.54-6.38,6.42,6.42,0,0,1,6.54,6.38m-11.49,0a5,5,0,0,0,5,5.1,4.88,4.88,0,0,0,4.86-5.06,4.93,4.93,0,1,0-9.85,0m3.93,3.35h-1.47v-6.38a12.54,12.54,0,0,1,2.45-.2,4,4,0,0,1,2.22.47,1.77,1.77,0,0,1,.62,1.4,1.64,1.64,0,0,1-1.32,1.48v.08a1.87,1.87,0,0,1,1.16,1.56,5.09,5.09,0,0,0,.47,1.59h-1.6a5.49,5.49,0,0,1-.5-1.56c-.12-.7-.51-1-1.32-1H758Zm0-3.62h.7c.82,0,1.48-.27,1.48-.93s-.43-1-1.36-1a3.5,3.5,0,0,0-.82.08Z" transform="translate(-76.38 -175.06)"/></svg>