<svg width="47" height="47" viewBox="0 0 47 47" fill="none" xmlns="http://www.w3.org/2000/svg">
<path fill-rule="evenodd" clip-rule="evenodd" d="M23.5297 46.7347C36.4097 46.7347 46.8511 36.2933 46.8511 23.4132C46.8511 10.5332 36.4097 0.0917969 23.5297 0.0917969C10.6496 0.0917969 0.208252 10.5332 0.208252 23.4132C0.208252 36.2933 10.6496 46.7347 23.5297 46.7347Z" fill="#19354A"/>
<path d="M18.177 18.7051C19.2689 18.7051 20.1541 17.8199 20.1541 16.728C20.1541 15.6361 19.2689 14.751 18.177 14.751C17.0851 14.751 16.2 15.6361 16.2 16.728C16.2 17.8199 17.0851 18.7051 18.177 18.7051Z" fill="white"/>
<path d="M19.8246 20.0259H16.5295C16.3476 20.0259 16.2 20.1735 16.2 20.3554V30.2407C16.2 30.4226 16.3476 30.5702 16.5295 30.5702H19.8246C20.0064 30.5702 20.1541 30.4226 20.1541 30.2407V20.3554C20.1541 20.1735 20.0064 20.0259 19.8246 20.0259Z" fill="white"/>
<path d="M29.6442 19.4775C28.2359 18.9951 26.4743 19.4188 25.4179 20.1787C25.3817 20.037 25.2525 19.9315 25.099 19.9315H21.8039C21.622 19.9315 21.4744 20.0791 21.4744 20.261V30.1463C21.4744 30.3282 21.622 30.4758 21.8039 30.4758H25.099C25.2809 30.4758 25.4285 30.3282 25.4285 30.1463V23.0421C25.961 22.5834 26.647 22.4371 27.2085 22.6757C27.7528 22.9057 28.0646 23.4672 28.0646 24.2151V30.1463C28.0646 30.3282 28.2122 30.4758 28.3941 30.4758H31.6892C31.8711 30.4758 32.0187 30.3282 32.0187 30.1463V23.5515C31.9811 20.8436 30.7072 19.8412 29.6442 19.4775Z" fill="white"/>
</svg>
