<svg id="Layer_1" data-name="Layer 1" xmlns="http://www.w3.org/2000/svg" viewBox="0 0 689.12 411.89"><defs><style>.cls-1{fill:#5b6872;}</style></defs><path class="cls-1" d="M232.36,336.83h-156v-2.54c10.2,0,18.4-9.91,18.4-33.12V127.36c0-23.21-8.19-33.12-18.4-33.12V91.69H138.1v2.55c-10.47,0-18.69,9.91-18.69,33.12V301.17c0,23.21,8.2,33.12,18.69,33.12h42.17A49.37,49.37,0,0,0,229.81,285h2.55Z" transform="translate(-76.38 -91.69)"/><path class="cls-1" d="M379.86,294.38c-9.05,27.17-35.1,42.46-63.69,42.46-46.7,0-72.74-35.39-72.74-79s25.75-78.7,71.91-79.26h.85c30,0,58,15.57,58,45,0,49.25-75.29,41.33-101.34,61.14,8.19,27.18,28,43.6,56.05,43.6,22.36,0,39.35-11.89,49.82-34.54ZM314.19,181.15c-27.17.56-45.86,30-45.86,71.91a123.42,123.42,0,0,0,3.68,30c24.63-19.82,79.27-12.17,79.27-60.86,0-31.41-19-41.05-36.24-41.05Z" transform="translate(-76.38 -91.69)"/><path class="cls-1" d="M551.74,336.83h-156v-2.54c10.2,0,18.4-9.91,18.4-33.12V127.36c0-23.21-8.19-33.12-18.4-33.12V91.69h61.72v2.55c-10.47,0-18.69,9.91-18.69,33.12V301.17c0,23.21,8.19,33.12,18.69,33.12h42.17A49.37,49.37,0,0,0,549.19,285h2.55Z" transform="translate(-76.38 -91.69)"/><path class="cls-1" d="M588.32,152a19.54,19.54,0,1,1,19.54-19.53A19.57,19.57,0,0,1,588.32,152Z" transform="translate(-76.38 -91.69)"/><path class="cls-1" d="M558.6,336.83v-2.55c10.2,0,18.41-9.91,18.41-33.12V214.54a48.19,48.19,0,0,0-5.38-25.49,15.12,15.12,0,0,0-13-7.92v-2.55h43V301.15A47.58,47.58,0,0,0,607,326.36a15,15,0,0,0,13.3,7.93v2.55Z" transform="translate(-76.38 -91.69)"/><path class="cls-1" d="M751.56,293.53c0,30-33.4,43.31-59.44,43.31a103.12,103.12,0,0,1-54.92-17.55v-32h2.55c3.68,22.08,19.53,47,52.37,47,.28,0,38.78,0,38.78-28.59,0-42.18-94.55-42.46-94.55-88.61,0-28.59,30-38.49,55.77-38.49a79.82,79.82,0,0,1,51.52,19.25v33.68h-2.55c-1.7-21.24-17-50.39-49-50.39,0,0-36.24.56-36.24,24.91,0,36.52,95.68,43,95.68,87.48" transform="translate(-76.38 -91.69)"/><path class="cls-1" d="M765.51,326.09a6.56,6.56,0,1,1-6.54-6.38,6.42,6.42,0,0,1,6.54,6.38m-11.49,0a5,5,0,0,0,5,5.1,4.89,4.89,0,0,0,4.86-5.06,4.93,4.93,0,1,0-9.85,0m3.93,3.35h-1.47v-6.38a12.54,12.54,0,0,1,2.45-.2,4,4,0,0,1,2.22.47,1.77,1.77,0,0,1,.62,1.4,1.65,1.65,0,0,1-1.32,1.48v.08a1.87,1.87,0,0,1,1.16,1.55,5.31,5.31,0,0,0,.47,1.6h-1.6a5.61,5.61,0,0,1-.5-1.56c-.12-.7-.51-1-1.32-1H758Zm0-3.62h.7c.82,0,1.48-.27,1.48-.94s-.43-1-1.36-1a3.5,3.5,0,0,0-.82.08Z" transform="translate(-76.38 -91.69)"/><path class="cls-1" d="M256.33,474.45a9.77,9.77,0,1,1,9.77-9.76,9.78,9.78,0,0,1-9.77,9.76Z" transform="translate(-76.38 -91.69)"/><path class="cls-1" d="M585.55,474.45a9.77,9.77,0,1,1,9.77-9.76,9.79,9.79,0,0,1-9.77,9.76Z" transform="translate(-76.38 -91.69)"/><path class="cls-1" d="M296.4,429.68q2.36.1,6.1.2c2.49.08,5,.11,7.41.11,3.28,0,6.4,0,9.37-.11s5.07-.1,6.3-.1q11.46,0,17.14,4.51a14.1,14.1,0,0,1,5.68,11.56,16.46,16.46,0,0,1-1.68,7.12,17.36,17.36,0,0,1-5.48,6.34,29.1,29.1,0,0,1-10,4.46v.2q8.6.93,13.51,3.69a16.12,16.12,0,0,1,9,14.63,18,18,0,0,1-3.07,10.49,19.83,19.83,0,0,1-8.86,6.91,35.32,35.32,0,0,1-13.87,2.46q-2.25,0-6.8-.15c-3-.1-6.71-.16-11-.16q-3.89,0-7.62.06t-6.1.25v-2a20.66,20.66,0,0,0,5.23-.81,3.58,3.58,0,0,0,2.3-2.46,20.49,20.49,0,0,0,.56-5.53V440.53a20.46,20.46,0,0,0-.56-5.58,3.69,3.69,0,0,0-2.35-2.45,17,17,0,0,0-5.18-.77Zm27,2.05c-2.94,0-4.86.58-5.78,1.74s-1.39,3.52-1.39,7.06V491.3a18,18,0,0,0,.62,5.42,3.71,3.71,0,0,0,2.2,2.46,13.5,13.5,0,0,0,4.65.62q9.22,0,13.36-4.66c2.77-3.11,4.15-7.52,4.15-13.26q0-7.87-4.15-12.18t-13.66-4.3H313.5v-1.74h8.8c3.75,0,6.66-.76,8.7-2.3a11.46,11.46,0,0,0,4.2-6.14,29.2,29.2,0,0,0,1.13-8.24c0-5.05-1-8.85-3-11.41S328.07,431.73,323.43,431.73Z" transform="translate(-76.38 -91.69)"/><path class="cls-1" d="M389.35,429.68v2.05a17.24,17.24,0,0,0-5.27.77,3.82,3.82,0,0,0-2.41,2.45,18.62,18.62,0,0,0-.61,5.58v51.18a18,18,0,0,0,.56,5.22,3.41,3.41,0,0,0,2.25,2.31,16.38,16.38,0,0,0,4.86.56h6.66a19.72,19.72,0,0,0,7.42-1.23,12.8,12.8,0,0,0,5.07-3.69,17.3,17.3,0,0,0,3.17-6.34,57.09,57.09,0,0,0,1.74-9.11h2.35q-.3,3.27-.3,8.6c0,1.36.05,3.36.15,6s.29,5.34.56,8.14q-5.22-.21-11.77-.25t-11.67-.06h-6c-2.45,0-5.1,0-7.93.06l-8.6.1c-2.9,0-5.68.08-8.34.15v-2a20.49,20.49,0,0,0,5.22-.81,3.54,3.54,0,0,0,2.3-2.46,20,20,0,0,0,.57-5.53V440.53a20,20,0,0,0-.57-5.58,3.67,3.67,0,0,0-2.35-2.45,16.88,16.88,0,0,0-5.17-.77v-2.05q2.35.1,6.09.2c2.49.08,5.17.11,8,.11,2.59,0,5.17,0,7.72-.11S387.71,429.75,389.35,429.68Z" transform="translate(-76.38 -91.69)"/><path class="cls-1" d="M474.51,429.68c-.27,2.6-.46,5.1-.56,7.53s-.15,4.28-.15,5.57,0,2.53.1,3.69.13,2.12.2,2.87h-2.35a42.16,42.16,0,0,0-2.2-10.34,9.92,9.92,0,0,0-4.41-5.38A17.26,17.26,0,0,0,457,432H450a16.78,16.78,0,0,0-5,.57,3.49,3.49,0,0,0-2.3,2.25,16.59,16.59,0,0,0-.62,5.27v51.59a16.62,16.62,0,0,0,.62,5.22,3.54,3.54,0,0,0,2.3,2.31,16.84,16.84,0,0,0,5,.56h6.65a19.63,19.63,0,0,0,9.26-1.85,11.76,11.76,0,0,0,5.22-6,44,44,0,0,0,2.72-11.46h2.35a77.19,77.19,0,0,0-.31,7.78q0,2.06.15,5.94t.57,8q-5.22-.21-11.77-.25t-11.67-.06h-6c-2.46,0-5.11,0-7.93.06l-8.6.1c-2.9,0-5.68.08-8.35.15v-2a20.66,20.66,0,0,0,5.23-.81,3.58,3.58,0,0,0,2.3-2.46,20.49,20.49,0,0,0,.56-5.53V440.53a20.46,20.46,0,0,0-.56-5.58,3.69,3.69,0,0,0-2.35-2.45,17,17,0,0,0-5.18-.77v-2.05q4,.1,8.35.15l8.6.11c2.82,0,5.47.05,7.93.05h6c3.14,0,6.7,0,10.7-.05S471.37,429.82,474.51,429.68Zm-17,35v2.05H439v-2.05Zm3-13.51q-.42,5.83-.36,8.9c0,2.05.05,3.93.05,5.63s0,3.58.1,5.63.24,5,.52,8.91h-2.36a60.71,60.71,0,0,0-1.33-6.5,10.34,10.34,0,0,0-2.92-5.07c-1.4-1.29-3.56-1.94-6.5-1.94v-2.05a8.82,8.82,0,0,0,5.17-1.33,8.92,8.92,0,0,0,2.92-3.48,18.84,18.84,0,0,0,1.48-4.46c.31-1.53.6-2.94.88-4.24Z" transform="translate(-76.38 -91.69)"/><path class="cls-1" d="M548.92,429.68v2.05a11.75,11.75,0,0,0-5.11,1.23,5.21,5.21,0,0,0-2.36,3.32,26.59,26.59,0,0,0-.61,6.5v29.58a75,75,0,0,1-.92,12.39,26.4,26.4,0,0,1-3.28,9.31,18.43,18.43,0,0,1-7.52,6.91,25.1,25.1,0,0,1-11.83,2.61,39.93,39.93,0,0,1-9.51-1.12,18.16,18.16,0,0,1-8.09-4.3,22,22,0,0,1-4.81-6,23.07,23.07,0,0,1-2.35-7.93,88.33,88.33,0,0,1-.62-11.52V440.53a20.46,20.46,0,0,0-.56-5.58A3.67,3.67,0,0,0,489,432.5a16.72,16.72,0,0,0-5.22-.77v-2.05c1.58.07,3.6.14,6.09.2s5.17.11,8,.11c2.59,0,5.17,0,7.73-.11s4.66-.13,6.29-.2v2.05a17.24,17.24,0,0,0-5.27.77,3.8,3.8,0,0,0-2.4,2.45,18.56,18.56,0,0,0-.62,5.58V476a75.23,75.23,0,0,0,.57,9.62,24,24,0,0,0,2.15,7.63,11.44,11.44,0,0,0,4.7,5,16.2,16.2,0,0,0,8.14,1.79q7.57,0,11.72-3.43a18.22,18.22,0,0,0,5.84-9.41,50.75,50.75,0,0,0,1.68-13.67v-30.3a21.76,21.76,0,0,0-.81-6.75A5.9,5.9,0,0,0,534.8,433a14.53,14.53,0,0,0-5.83-1.28v-2.05c1.29.07,3,.14,5,.2s3.92.11,5.63.11,3.5,0,5.17-.11S547.83,429.75,548.92,429.68Z" transform="translate(-76.38 -91.69)"/></svg>