<svg id="Layer_1" data-name="Layer 1" xmlns="http://www.w3.org/2000/svg" viewBox="0 0 548.85 548.96"><defs><style>.cls-1{fill:#f9f9f9;stroke:#f9f9f9;stroke-miterlimit:10;stroke-width:6.2px;}</style></defs><path class="cls-1" d="M240.53,26.25H620c5.12,3.73,6.49,8.68,6.48,15q-.27,154.47-.13,308.94v6.75h6.17c19.43,0,38.86-.05,58.29,0,6.44,0,10.78,4.44,10.78,10.54s-4.33,10.42-10.76,10.59c-3.66.1-7.33,0-11.16,0v127.2c3.64,0,7,0,10.29,0,7.68.09,11.6,4,11.63,11.84,0,12.37,0,24.73,0,37.1,0,11.76-2.88,14.64-14.69,14.64q-256.47,0-513,.12c-6.31,0-11.27-1.35-15-6.48V511.67c5.31-8.68,14.43-5.72,22-6.5v-127c-8-.29-16.65,2-22-6.38v-8.48c3.71-5.13,8.64-6.63,15-6.49,18.16.39,36.34.14,54.52.14h5.77v-7.13q0-154.29-.13-308.59C234,34.91,235.41,30,240.53,26.25ZM583.92,356.64h20.86V47.85H255.63V356.68h20.94M180.35,547.34H679.94V526.78H180.35Zm22.39-169V504.89H233.9V378.37Zm84,126.73V378.39H255.66V505.1Zm22-126.78V505h31.07V378.32Zm84,126.76V378.55H361.63V505.08Zm53,0V378.55H414.62V505.08Zm53.27-126.62H467.71V504.89h31.34Zm52.88.06H520.77V505h31.16Zm21.76-.16V504.89h31.16V378.36ZM626.57,505h31.21V378.53H626.57Z" transform="translate(-155.82 -23.16)"/></svg>