<svg id="Layer_1" data-name="Layer 1" xmlns="http://www.w3.org/2000/svg" viewBox="0 0 741.03 461.6"><defs><style>.cls-1,.cls-2{fill:#f9f9f9;}.cls-2{stroke:#fafafa;stroke-miterlimit:10;stroke-width:3px;}</style></defs><path class="cls-1" d="M804,559.57c-7.33-5.52-8.09-8.15-5.09-17.19,4.89-14.73,9.76-29.46,14.27-43.08-11.49-2-23.17-2.75-34-6.12-38.64-12-63.51-46.69-64.37-88.35-.13-6.11-.11-12.22,0-18.33.15-8.66,3.83-12.24,12.44-12.25H859.07v-5.36q0-43.42,0-86.84c0-16,11.28-29.22,26.52-31.22,16.19-2.11,30.67,7.93,34.5,24a29.81,29.81,0,0,1,.7,6.67q.08,30.15,0,60.3c0,7.16-4.23,12-10.33,12-5.85,0-10.27-4.7-10.33-11.61-.14-18.65,0-37.31-.07-56a46.4,46.4,0,0,0-.3-6.25,10,10,0,0,0-19.69-.09,25.92,25.92,0,0,0-.29,3.84q0,43.19,0,86.36c0,1.25.2,2.51.33,4.13,9.84,0,19.46,0,29.08,0,7.77,0,11.6,3.79,11.6,11.5,0,54-.05,108.06.1,162.1,0,5.59-2.72,8.88-6.84,11.71ZM742.82,436a70,70,0,0,0,19.33,24.78c15.15,12.41,32.76,16.77,52.07,16.35,18-.39,36-.18,54,0,7.31.07,11.64,4.48,11.38,10.84-.25,6.16-4.62,9.8-11.84,9.82-9.49,0-19,.1-28.46,0-2.67,0-3.94.72-4.77,3.41-2.63,8.58-5.61,17.05-8.44,25.57-1.29,3.87-2.54,7.74-3.84,11.7h77.47v-143H735.27c.32,6.78.62,13.15.94,19.9h6.39q61,0,122,0a40.71,40.71,0,0,1,6.72.4,9.75,9.75,0,0,1,8.24,9.3c.42,6.65-4.11,11-11.59,11q-59.58,0-119.15,0Z" transform="translate(-179.88 -102.2)"/><path class="cls-2" d="M660.07,348.91c-3,5.13-6.2,10.19-9.05,15.43-.75,1.39-.7,3.3-.72,5-.21,18.84.3,37.71-.7,56.51-1.74,33-15.07,60.86-39.49,83.27-2.17,2-4.43,3.91-7.05,6.2q4.7,9.47,9.42,19c1.87,3.75,3.78,7.49,5.63,11.25,3.45,7,2.13,12.91-3.46,15.68s-10.95.28-14.57-6.85c-4.65-9.14-9.24-18.31-14-27.81-1.15.47-2.26.83-3.3,1.35a137.14,137.14,0,0,1-62.06,14.48c-63.7,0-127.4-.29-191.1.12-25.82.17-50.44-3.73-73.85-16.23-4.19,8.28-8.27,16.42-12.41,24.53a57.2,57.2,0,0,1-4.08,7.31,9.53,9.53,0,0,1-12,3.24,9.71,9.71,0,0,1-5.44-11.59,26.73,26.73,0,0,1,2.12-5.15c4.83-9.69,9.72-19.35,14-28-8.58-9.8-17.37-18.48-24.56-28.33-13.7-18.78-20.7-40.27-21.48-63.5-.61-18.51-.35-37.06-.69-55.58a11.56,11.56,0,0,0-2.32-6.65c-7.65-9.44-9.72-19.9-5.09-31,4.52-10.83,12.92-17.26,25-18.26.74-.07,1.47-.29,2.67-.53v-5.62q0-79.68,0-159.34c0-21.79,12.23-37.62,33.42-43a39.42,39.42,0,0,1,9.69-1.1c15.57,0,31.16-.23,46.7.53,17.46.86,34.4,18.56,35.29,36.1.16,3.24,1.07,4.84,4.31,6a45,45,0,0,1,30.28,42.3q.09,11.22,0,22.43c-.08,8.49-4.12,12.51-12.68,12.52q-32.48.06-65,0c-7.85,0-12.08-3.5-12.31-10.89a245.41,245.41,0,0,1,.28-27.53c1.54-19.08,13-30.89,29.77-38.33,1.69-.76,3.45-1.35,5.17-2,.13-.05.2-.23.3-.36-1.2-12.49-9.14-20.4-21.54-20.67-13.55-.3-27.11-.33-40.65,0-13.71.33-22.9,9.59-22.93,23.08q-.17,81.3,0,162.6c0,.92.14,1.83.25,3.26,2.22.1,4.32.29,6.42.29q193.9,0,387.82,0c11.38,0,21.32,2.81,28.17,12.42,2.45,3.44,3.92,7.58,5.83,11.41ZM212.19,373.36c0,18.21-1,36.14.22,53.93,2.08,30.35,16.08,54.81,40.39,73.15,21.23,16,45.6,21.94,71.8,21.92,64.17-.06,128.35.13,192.53-.17a138.56,138.56,0,0,0,31.43-3.37c36.17-8.7,61.83-30.1,75.14-65.32,9.82-26,5.4-53.15,6.61-80.14ZM421.3,352.75H625.49c1.71,0,3.43.06,5.13-.05a9.78,9.78,0,0,0,9.15-8.42A9.34,9.34,0,0,0,633,333.89a25.31,25.31,0,0,0-6.89-.84q-205.59-.06-411.19,0a21.94,21.94,0,0,0-6.42.77,9.65,9.65,0,0,0,2,18.82,52.23,52.23,0,0,0,5.6.12ZM350.21,203c0-7.22,1.09-14.24-.24-20.77-2.32-11.4-14.39-19.46-25.39-18.37-11.35,1.11-22.37,11.67-23.28,22.76-.44,5.36-.08,10.79-.08,16.38Z" transform="translate(-179.88 -102.2)"/></svg>