<svg id="Layer_1" data-name="Layer 1" xmlns="http://www.w3.org/2000/svg" viewBox="0 0 844.2 457.74"><defs><style>.cls-1,.cls-2{fill:#f9f9f9;}.cls-2{stroke:#f9f9f9;stroke-linecap:round;stroke-miterlimit:10;stroke-width:30.98px;}</style></defs><path class="cls-1" d="M654.77,360.89h217.3c-12.81-17.48-24.91-34-37-50.52-8.94-12.18-18-24.25-26.79-36.54-5.34-7.48-4.66-14.46,1.27-19s13.34-3.2,18.62,4c22.15,30.05,44.36,60.07,65.91,90.55,11.39,16.1,15.93,34.69,15.81,54.43s0,39.57,0,59.35c-.08,24.76-16.68,41.93-41.41,42.94-1.92.07-3.84,0-5.77,0q-309.93,0-619.88,0c-3.54,0-119.42-.2-122.81-1.06-6.1-1.55-9.24-6.19-8.94-12.21s3.45-10.5,9.9-11.39c4.06-.56,120.43-.67,124.53-.67q306.65-.06,613.29,0c3.3,0,6.61.1,9.88-.16,9.56-.76,15.75-5.23,16-14.45.67-26,.23-52,.23-78.68H92.1c-.57,5.65-1.57,11.29-1.64,16.94-.2,18.68-.14,37.37,0,56.05.06,14.26,5.69,20.12,19.83,20.26,19.78.18,39.57,0,59.35.08a63.1,63.1,0,0,1,9,.67c6.74,1,10.2,5.56,10.35,11.9.14,6.06-3.4,10.24-9.38,12a9,9,0,0,1-2.39.59c-25.53-.18-51.13.65-76.58-.94-18.84-1.18-29-14.72-34.94-31.66V389.22c5.79-33.78,28.58-58,47.65-84.24,31.49-43.3,63.6-86.15,95-129.52,13.47-18.63,30.63-28,53.85-27.31s46.58.14,71,.14V120.62c0-11.82-.08-23.64,0-35.45.21-23.11,13.2-36.35,36.25-36.68,16.21-.24,32.42-.05,48.63-.05,61.83,0,123.65-.12,185.47.17,7,0,14.46,1.12,20.73,3.92,13.21,5.92,18,17.74,18.16,31.63.14,18.13,0,36.27,0,54.4v9.73c13.49,0,26.06,0,38.62,0,13.19,0,26.38,0,39.56.14,17.34.21,31.32,7.63,41.86,21.08,9.66,12.31,65.07,88,74.17,100.78,5.22,7.31,4.29,14.44-1.79,18.86s-13.06,2.94-18.55-4.28c-8.46-11.15-63-85.45-71.13-96.88-7.25-10.24-16.79-14.91-29.42-14.9q-227.93.19-455.85,0c-11.88,0-21.38,3.88-28.45,13.52q-62.41,85-124.83,170c-.79,1.07-1.46,2.22-2.72,4.15H321m26.4.06H628.29M616.8,147.84c0-20.71,0-40.72,0-60.74,0-12.43-.67-13.08-13.11-13.09q-110.37,0-220.76,0c-26.86,0-24.15-3-24.22,24.19,0,16.4,0,32.79,0,49.62Z" transform="translate(-65.66 -48.37)"/><line class="cls-2" x1="743.45" y1="390.12" x2="767.79" y2="390.12"/><circle class="cls-1" cx="82.85" cy="390.12" r="15.34"/><circle class="cls-1" cx="124.33" cy="390.12" r="15.34"/></svg>