<svg id="Layer_1" data-name="Layer 1" xmlns="http://www.w3.org/2000/svg" viewBox="0 0 496.64 583.28"><defs><style>.cls-1{fill:#f9f9f9;stroke-width:10.33px;}.cls-1,.cls-2{stroke:#f9f9f9;stroke-miterlimit:10;}.cls-2{fill:none;stroke-width:26.85px;}</style></defs><circle class="cls-1" cx="91.53" cy="124.94" r="13.56"/><circle class="cls-1" cx="159.62" cy="124.94" r="13.56"/><circle class="cls-1" cx="227.71" cy="124.94" r="13.56"/><circle class="cls-1" cx="91.53" cy="196.83" r="13.56"/><circle class="cls-1" cx="159.62" cy="196.83" r="13.56"/><circle class="cls-1" cx="227.71" cy="196.83" r="13.56"/><circle class="cls-1" cx="91.06" cy="268.73" r="13.56"/><circle class="cls-1" cx="159.15" cy="268.73" r="13.56"/><circle class="cls-1" cx="227.23" cy="268.73" r="13.56"/><path class="cls-2" d="M666.92,492.66v82.21a29.19,29.19,0,0,1-29.2,29.19H404.19A29.19,29.19,0,0,1,375,574.87v-498a29.19,29.19,0,0,1,29.2-29.19H637.72a29.19,29.19,0,0,1,29.2,29.19V422.36" transform="translate(-361.57 -34.2)"/><rect class="cls-2" x="147.61" y="388.15" width="335.61" height="70.3" rx="34.04"/><path class="cls-2" d="M586.81,492.66a70.7,70.7,0,1,1,0-70.31" transform="translate(-361.57 -34.2)"/></svg>