<svg id="Layer_1" data-name="Layer 1" xmlns="http://www.w3.org/2000/svg" viewBox="0 0 589.46 739"><defs><style>.cls-1,.cls-2,.cls-3,.cls-4{fill:#f9f9f9;}.cls-1,.cls-2,.cls-4{stroke:#f9f9f9;stroke-miterlimit:10;}.cls-1{stroke-width:4.13px;}.cls-2{stroke-linecap:round;stroke-width:30.98px;}.cls-4{stroke-width:8px;}</style></defs><path class="cls-1" d="M241.42,739.8V236.94c4.2-6.37,10.3-7.85,17.6-7.85q274.86.16,549.71.09c1.71,0,3.44-.11,5.14,0,8.5.75,12.66,5.19,12.67,13.74,0,37.9.69,75.83-.51,113.69-.26,8.48.4,16.75.41,25.12q.24,175.71-.05,351.42a35.83,35.83,0,0,1-3.75,15.27c-7.13,14.39-19.79,19.68-35.22,19.68H520.57q-119.72,0-239.43,0c-10.8,0-21.27-1.79-28.66-10.18C247.87,752.73,245.05,745.91,241.42,739.8ZM533.9,370.17q-125.7,0-251.39,0a50.38,50.38,0,0,0-8,.41c-5.31.84-8.4,4.15-9.16,9.44a47.21,47.21,0,0,0-.26,6.84q0,170.25,0,340.51c0,2.1,0,4.2.17,6.28.4,5.13,3.17,8.52,8.11,9.76a35,35,0,0,0,8.43.91q252,.06,503.92,0c13.71,0,17.12-3.41,17.12-17.16V387.27c0-1.91,0-3.81-.1-5.71-.45-6.59-4.16-10.51-10.64-11.15-2.46-.24-5-.23-7.42-.23Zm-268.49-24H802.58v-92.9H265.41Z" transform="translate(-239.36 -31.21)"/><path class="cls-1" d="M534.12,393.32H762.05c2.09,0,4.19,0,6.28.12,6.88.5,11.22,4.84,11.33,11.79.18,10.66.07,21.32.07,32V646.3c0,12.47-3.86,16.43-16.22,16.43q-229.65,0-459.29,0c-12,0-16-4-16-16.11q0-118.82,0-237.64c0-11.91,3.7-15.65,15.65-15.65ZM312.27,417.2V638.71H755.73V417.2Z" transform="translate(-239.36 -31.21)"/><line class="cls-2" x1="60.92" y1="674.66" x2="526.36" y2="674.66"/><line class="cls-2" x1="492.03" y1="268.49" x2="516.37" y2="268.49"/><circle class="cls-3" cx="88.27" cy="268.49" r="15.34"/><circle class="cls-3" cx="129.75" cy="268.49" r="15.34"/><path class="cls-4" d="M740.36,202.05c-1.91-.31-3.83-.57-5.73-.93-21.11-4-36.8-15.57-47.28-34.13a61.49,61.49,0,0,1-7.53-39.07c1.12-8.48,3.67-16.5,8.76-23.52,2.49-3.44,5.52-6.27,9.74-7.5a10.51,10.51,0,0,1,2.56-.4c3.62-.16,5.82,2.36,5.48,6-.63,6.84-.63,13.67,1.12,20.37a24.36,24.36,0,0,0,2.26,5.53,5.78,5.78,0,0,0,5.7,3c1.6-.06,2.2-.8,2.09-2.2a65.19,65.19,0,0,0-.78-7.91A154.58,154.58,0,0,1,714,84.37c.42-9.16,2-18.09,6.27-26.36a39.45,39.45,0,0,1,23.54-20,59,59,0,0,1,18.56-2.81c4.43,0,6.69,3.5,4.79,7.51a33.61,33.61,0,0,0-3.49,18.1A30,30,0,0,0,773.85,80.6a130.34,130.34,0,0,0,11,8.31c11.93,8.6,20.52,19.67,25,33.77,2.24,7,2.34,14.19,1.43,21.41a65.67,65.67,0,0,1-5.94,20.16,66.43,66.43,0,0,1-18,22.84A65,65,0,0,1,758,200.88c-2.71.52-5.46.79-8.19,1.17Zm-44.49-91c-.47.78-.86,1.35-1.18,2-5.61,10.73-6.82,22.1-4.39,33.81A55.38,55.38,0,0,0,710,179.15c12.56,10.27,27,14.6,43.21,12.5a53.65,53.65,0,0,0,24.18-9.29c13-9.05,21-21.37,23.8-37,1-5.74,1.38-11.53,0-17.28C798,115.22,790.37,105.39,780,97.55c-4.67-3.53-9.79-6.43-14-10.64-10.42-10.56-14.36-23-11.42-37.64.24-1.19.49-2.37.76-3.65a7.53,7.53,0,0,0-1,0c-1.18.2-2.35.39-3.52.65-10.6,2.32-18.37,8.2-22.82,18.22a49.92,49.92,0,0,0-4,16.67,139.59,139.59,0,0,0,1.72,34.69,96.06,96.06,0,0,1,1.4,14.36,9.93,9.93,0,0,1-5.24,9.3,15.46,15.46,0,0,1-17.8-2.45c-3.94-3.81-5.82-8.71-6.78-13.95C696.7,119.25,696.39,115.29,695.87,111.09Z" transform="translate(-239.36 -31.21)"/></svg>