<svg id="Layer_1" data-name="Layer 1" xmlns="http://www.w3.org/2000/svg" viewBox="0 0 469.72 434.16"><defs><style>.cls-1{fill:#f9f9f9;}</style></defs><path class="cls-1" d="M761,398.87V528.24c-.37,1-.81,1.9-1.09,2.89a37.52,37.52,0,0,1-46.51,26.4C697.46,553,687,538.92,686.46,521.27c-.1-3.6,0-7.21,0-10.8H366.25c-.35,6.44,0,12.66-1.14,18.57-3.78,18.77-21.25,31.71-39.36,29.77-20.42-2.18-34.4-17.45-34.41-37.7,0-37.61-.12-75.23,0-112.84.1-24.66,8.68-46.26,24.73-64.86a12.12,12.12,0,0,0,3.18-8.61q-.12-70.64,0-141.28a79.25,79.25,0,0,1,.87-13.7c5.75-32.34,32.13-54.83,64.87-54.88q140.34-.21,280.68,0c19,0,35.16,7.09,48.09,21,12.23,13.17,17.5,29,17.46,46.87-.11,46.48,0,93-.1,139.44a12.44,12.44,0,0,0,3.51,9.38,98,98,0,0,1,23.23,42.57C759.15,389,760,394,761,398.87ZM309.74,436.68h6.07q119.47,0,238.94,0c2.12,0,152.36,0,154.4.51A9.06,9.06,0,0,1,709,455c-2.21.47-152.59.53-154.87.53q-119.24,0-238.47,0H310v35.73H742.35V455.5h-5.78q-41,0-82.09,0a26.45,26.45,0,0,1-5.9-.53,8.77,8.77,0,0,1-7-9.81c.46-5.33,4.44-8.44,11.09-8.45q42.2,0,84.38,0h6.11c-.53-13.76.22-27.05-1.78-39.91-6.39-41-40.61-69.58-82.25-69.7-24-.07-48,0-72,0q-97,0-194,0c-34.18,0-63.83,19.72-76.92,50.41C308.12,396.45,309.77,416.31,309.74,436.68Zm28.44-113c5.66-2.74,10.62-5.42,15.81-7.53,2.79-1.13,3.53-2.64,3.48-5.46-.18-8.1-.07-16.21-.06-24.31,0-29.89,21-51.22,50.84-51.44,25.68-.2,51.37-.11,77.05,0a49.74,49.74,0,0,1,33.58,12.48c2.62,2.29,5.29,4.51,8.08,6.9a13.87,13.87,0,0,0,.95-1c10-12.07,22.91-18.15,38.39-18.3,26.14-.25,52.28-.34,78.42,0,29.45.38,50.16,21.74,50.2,51.13,0,8.41-.06,16.82.07,25.23,0,1.31.58,3.31,1.51,3.8,5.09,2.63,10.37,4.89,16,7.47v-4.36c0-42.05-.42-84.1.15-126.14a47.93,47.93,0,0,0-48.53-48.6c-92.64.46-185.29.17-277.94.19a50.4,50.4,0,0,0-9.12.54c-23.82,4.5-39,22.79-39,47.12q-.11,64,0,128C338,320.66,338.1,322,338.18,323.68Zm38.62-15.2H516.9c0-9.34.49-17.75-.11-26.09-1.2-16.72-13.83-28.51-30.5-28.61q-40.55-.24-81.1.06c-13.46.1-26.24,9.91-28.09,23.14C375.62,287.55,376.8,298.5,376.8,308.48Zm159.33.17H676.21a11.12,11.12,0,0,0,.25-2c-.07-8.4.49-16.86-.4-25.18-1.82-17.06-14-27.68-31.2-27.74-26.73-.08-53.46-.13-80.19.09-14,.12-26.66,10.61-28.32,24.5C535.2,287.94,536.13,297.78,536.13,308.65ZM309.85,510.36c0,4.63-.46,9.07.09,13.37,1.19,9.42,8.52,16.17,17.28,16.53,9.84.41,17.93-5.28,19.62-14.74.86-4.82.15-9.93.15-15.16Zm395.14,0c0,3.72,0,7.19,0,10.66.09,10.24,7.11,18.42,16.47,19.2,10.71.9,19.21-5.4,20.82-16.05.67-4.42.11-9,.11-13.81Z" transform="translate(-291.29 -124.85)"/></svg>