<svg id="Layer_1" data-name="Layer 1" xmlns="http://www.w3.org/2000/svg" viewBox="0 0 646.71 405.44"><defs><style>.cls-1{fill:#f9f9f9;stroke:#f9f9f9;stroke-miterlimit:10;stroke-width:6.2px;}</style></defs><path class="cls-1" d="M741.2,373.39c-2.88,11-4.66,22.4-8.83,32.87-19.26,48.27-54.93,76.86-106.31,84.55-63.29,9.47-123.69-28.86-144.69-89.74-18.42-53.4,1.89-116.9,48.4-149.14,2.38-1.65,4.74-3.32,7.41-5.19l-16.29-30.53c-7.5,10.83-14.47,20.85-21.41,30.89q-39.44,57-78.76,114.12c-4,5.89-8.62,8.82-16,8.53-12.44-.5-24.92-.14-37.73-.14-5.7,48.4-29.05,85-71.66,108.05-31,16.77-64.08,19.37-98,10.15-66.57-18.07-108.34-87.55-93.67-156A133.51,133.51,0,0,1,205.83,229.4c25.65-5.52,50.79-3.5,75.67,6,6.38-14,13.71-27,18.14-40.89,2.57-8.08.47-17.65.47-27.48-5.29,0-10.61.08-15.94,0-6.53-.13-10.84-3.85-11.09-9.39-.27-5.88,4-10.42,10.74-10.48q29.7-.26,59.4,0c6.58,0,11.14,4.79,10.85,10.46-.29,5.46-4.73,9.31-11.15,9.41-7.06.1-14.12,0-21.67,0V185.5H513.6c0-12.09.08-24.11,0-36.12-.06-6.41,1.72-14.29-1.34-18.79-2.86-4.22-11-4.9-16.83-7.06-9.34-3.47-18.8-6.67-28.05-10.37-7-2.8-9-8.71-5.46-14.54,2.63-4.34,6.63-5.8,11.26-4.11q26.91,9.83,53.68,20.06c5.63,2.16,6.23,7.3,6.23,12.5,0,19.38-.24,38.77.17,58.14A37.59,37.59,0,0,0,536.87,200c5.66,12,12,23.7,18.11,35.47,10.41-2.67,20.48-5.86,30.78-7.79C658.58,214,730.81,267,740,340.58a23.83,23.83,0,0,0,1.25,4ZM546.92,264.24c-45.25,26.48-69.3,91.08-39.59,147.94,29,55.57,101.44,76.85,155.38,45.54,57.32-33.28,75.18-104.3,39.73-160-33.38-52.42-98.16-62.26-137.86-42.62,1.12,2.2,2.21,4.41,3.35,6.61,15.43,29.71,30.93,59.39,46.22,89.17,1.55,3,3.35,7.11,2.42,9.81-1.07,3.11-4.63,6.29-7.85,7.53-5.13,2-8.61-1.74-10.88-6.06-7.26-13.81-14.39-27.68-21.59-41.52Q561.6,292.45,546.92,264.24ZM272.54,253.31c-37.66-16-91.3-6.71-125,32.47C116.17,322.21,112,376.38,138.15,419c25.79,42,76.72,62,125.86,49.21,44.21-11.46,80-54.43,81.59-98.63h-6.79q-51.26,0-102.52,0c-9.84,0-14.25-5.77-11.39-14.89a51.93,51.93,0,0,1,2.82-6.24Zm229.51-47a10.6,10.6,0,0,0-2.18-.65q-90,0-179.93,0c-1.4,0-3.57.72-4.08,1.75-5.76,11.65-11.26,23.42-16.93,35.36,39.79,24.79,62.34,59.85,67.29,106,11.34,0,21.95-.18,32.55.09,4,.1,6.35-1.2,8.63-4.54q45.83-67,91.91-133.73C500.21,209.28,501,207.92,502.05,206.31ZM346.54,348.46c-4.75-38.25-23.12-66.63-55.7-86.86l-41.15,86.86Z" transform="translate(-97.59 -90.72)"/></svg>