<svg id="Layer_1" data-name="Layer 1" xmlns="http://www.w3.org/2000/svg" viewBox="0 0 569.1 549.73"><defs><style>.cls-1{fill:#fafafa;stroke-width:12.39px;}.cls-1,.cls-2,.cls-3{stroke:#f9f9f9;stroke-miterlimit:10;}.cls-2,.cls-3{stroke-linecap:round;}.cls-2{stroke-width:30.98px;}.cls-3{stroke-width:30.78px;}</style></defs><path class="cls-1" d="M730.15,337.47v6.86q0,75.44,0,150.85c0,1.93.22,58.81,0,60.72-.5,5-3.59,8.07-8,8s-7.59-3.24-8-8.14c-.26-3.31-.18-61.59-.18-65.34H574.34v59.27H714c0-3.4-.07-7,0-10.58.13-5.93,3.33-9.57,8.21-9.5,4.68.07,7.73,3.44,7.88,9.3.19,7.18,0,14.37.06,21.55,0,3.91-1.95,5.79-5.81,5.8l-4.73,0H253.39c-7-.08-8-1-8-7.82,0-6.66,0-13.32,0-20V337.72m172.51.11V549.7H557.72V337.83m-295.8,0V549.78H401.43V337.85M574.17,473.54H713.64V413.79H574.17Zm.18-135.8v59.6H713.67v-59.6" transform="translate(-203.21 -22.77)"/><path class="cls-1" d="M218.6,38c3.73-6.94,9.63-9,17.31-9q251.79.18,503.57.1a48.12,48.12,0,0,1,5.24.22c7.65.83,12.15,5.55,12.16,13.15q.07,77.27,0,154.54c0,7.88-5.3,13.1-13.14,13.37-1.22,0-2.45,0-3.68,0H376.32c-1.4,0-2.81.09-4.2,0-4.72-.41-7.8-3.82-7.61-8.33s3-7.25,7.86-7.41c5.42-.18,10.86-.07,16.29-.07h90.62V45.61H234.77v148.9h6.32c31.18,0,118.64.2,149.82.25,7.75,0,12.25,5.55,8.76,11.14-1.4,2.24-4.9,4.47-7.47,4.49-34.86.29-126,0-160.86-.06-6.46,0-10-4.2-12.74-9.38ZM740.78,194.2V45.58H496.2V194.2Z" transform="translate(-203.21 -22.77)"/><line class="cls-2" x1="202.5" y1="97.11" x2="226.85" y2="97.11"/><line class="cls-2" x1="342.33" y1="96.84" x2="366.68" y2="96.84"/><line class="cls-3" x1="15.39" y1="302.07" x2="553.71" y2="302.07"/></svg>