<svg id="Layer_1" data-name="Layer 1" xmlns="http://www.w3.org/2000/svg" viewBox="0 0 551 544.06"><defs><style>.cls-1,.cls-2{fill:#f9f9f9;}.cls-2{stroke:#f9f9f9;stroke-miterlimit:10;stroke-width:4px;}</style></defs><path class="cls-1" d="M275.65,652.26c6.08-17.9,12.27-35.77,18.21-53.71q39-117.81,77.91-235.65c4-12,8.43-15.16,21.33-15.16H709.47c12.58,0,17.11,3.17,21,14.88q47.07,142.25,94.08,284.49c4.41,13.35,2.3,18.83-9.69,25.59H287.49a22.59,22.59,0,0,1-11.84-11.83ZM534.76,510.38c-1.41-.07-2.45-.16-3.5-.16q-84.76,0-169.51-.09c-3.56,0-4.81,1.27-5.87,4.5Q336,575.24,315.77,635.76c-.47,1.41-.7,2.9-1.06,4.41H534.76Zm253,129.79c-.46-1.69-.77-3.08-1.21-4.42-13.32-40.2-26.7-80.38-39.87-120.63-1.3-4-3.15-5-7.19-5q-83.14.22-166.28.1h-5.66v130ZM368.15,477.58H534.62V380H412.16c-11.62,0-11.65,0-15.38,11.24C387.27,419.87,377.79,448.51,368.15,477.58Zm199.41-.12H734.14c-10.51-31.71-20.91-62.88-31.07-94.12-1.2-3.67-3.47-3.34-6.16-3.34H567.56Z" transform="translate(-275.65 -128.65)"/><path class="cls-2" d="M477.77,130.65c10.11,8.41,11,13,3.63,24-7.53,11.29-7.29,22,.38,33.06,19.31,27.83,11.49,51.39-6.18,74.45-3.82,5-10.75,5.87-16.15,2.8A12.83,12.83,0,0,1,454,248.34a91.42,91.42,0,0,1,7.63-12.86c6.81-10.27,6.87-20.47-.19-30.55-6.24-8.9-11.14-18.33-11.71-29.4-.94-18.13,4.29-33.68,19.44-44.88Z" transform="translate(-275.65 -128.65)"/><path class="cls-2" d="M636.64,130.65C647,137.88,648.3,143.6,641,154.44c-7.54,11.23-7.69,21.9.07,33,20.48,29.33,10.77,52.45-5.74,74.47a12.48,12.48,0,0,1-16.09,3.24c-5.75-3.13-8.62-9.68-5.94-15.78,2.36-5.4,5.74-10.36,8.81-15.43,5.61-9.23,5.88-18.58-.22-27.47-8.28-12.07-13.94-24.64-12.56-39.83,1.34-14.7,7.43-26.62,18.7-36Z" transform="translate(-275.65 -128.65)"/></svg>