<svg id="Layer_1" data-name="Layer 1" xmlns="http://www.w3.org/2000/svg" viewBox="0 0 611.42 609.4"><defs><style>.cls-1{fill:#f9f9f9;stroke-miterlimit:10;stroke-width:6.2px;}.cls-1,.cls-2,.cls-3{stroke:#f9f9f9;}.cls-2,.cls-3{fill:none;stroke-linecap:round;stroke-linejoin:round;}.cls-2{stroke-width:30.98px;}.cls-3{stroke-width:24.78px;}</style></defs><path class="cls-1" d="M499.34,577c-2.63-5-5.71-9.91-7.81-15.17-6.74-16.85-14-33.59-19.43-50.86-8.35-26.35-15.44-53.1-23-79.7-5.38-19,7.07-33.51,26.69-30.92,16.89,2.24,29.23,11.2,36.54,26.56,6.43,13.53,12.37,27.3,18.52,41l2-.15c-.4-2-1.15-4-1.15-6q-.1-87.55,0-175.12c0-19,12.45-34,30.2-36.75,22.33-3.51,41.75,13,41.91,36.05.21,32.25.06,64.51.07,96.76,0,1.86.09,3.72.15,5.93,21.46-9.46,38.17-4.05,50.65,14.84,25.27-15.65,48.42-2.55,56.11,17,4.49-1.3,8.88-3.2,13.44-3.8,19-2.49,35.45,11.22,36.76,30.34.31,4.53.19,9.1.19,13.66,0,21.56-.62,43.15.16,64.68,1.34,37-6.6,71.58-24.49,103.93-.68,1.23-1.27,2.49-2,3.71-2.62,4.64-7.09,6.25-11.42,4.14s-6-6.59-3.78-11.56c4-8.9,8.63-17.56,12.45-26.56a149.52,149.52,0,0,0,11.89-58.8c.07-30,0-60,.06-89.92,0-6.8-2.84-11.95-8.68-15.1-5.55-3-11.73-2.81-16.21,1.46-3.14,3-4.66,7.8-6.51,12-.65,1.47-.05,3.47-.17,5.21-.36,5.18-4,8.71-8.72,8.59s-8.1-3.46-8.28-8.47c-.25-6.65-.1-13.32-.17-20-.14-12.13-7.66-20.33-18.62-20.36-10.78,0-18.43,8.44-18.51,20.49,0,1.05,0,2.1,0,3.15-.31,5.83-3.55,9.19-8.72,9.07-5-.12-8.12-3.35-8.31-8.93s-.05-11.22-.18-16.82c-.26-11.69-8-19.71-18.86-19.58-10.4.13-18.09,8.42-18.24,19.68,0,1.75.09,3.52-.1,5.25-.56,5-4,8.12-8.73,8-4.48-.13-7.72-3.23-8.2-8a46.41,46.41,0,0,1-.08-4.72q0-67.05,0-134.1c0-12.1-8.08-20.57-19.21-20.46a18.72,18.72,0,0,0-18.65,17.15c-.2,2.09-.12,4.2-.12,6.3q0,99.4.05,198.79c0,5.09-.57,9.9-5.11,13.07-7.09,4.94-15.4,2.22-19.28-6.38Q511,465.7,497.71,435.76c-4.91-11-13.24-17.39-25.31-18.49-5.89-.54-8.72,2.73-7.09,8.37,9.47,32.77,18.58,65.65,28.8,98.19,8.56,27.25,23.15,51.51,40.15,74.38,5.94,8,11.47,16.29,17,24.53,2.78,4.09,2.08,9.17-1.32,11.85a8.14,8.14,0,0,1-12.06-1.67c-6.81-9.09-13.17-18.51-19.73-27.79-2.92-4.13-5.87-8.23-9.37-13.13" transform="translate(-233.57 -31.76)"/><circle class="cls-1" cx="262.54" cy="244.71" r="15.34"/><path class="cls-2" d="M445.58,555.36" transform="translate(-233.57 -31.76)"/><path class="cls-2" d="M758.3,555.36" transform="translate(-233.57 -31.76)"/><polyline class="cls-3" points="180.46 485.1 12.39 485.1 12.39 12.39 599.03 12.39 599.03 485.1 527.95 485.1"/></svg>