<svg id="Layer_1" data-name="Layer 1" xmlns="http://www.w3.org/2000/svg" viewBox="0 0 576.44 486.65"><defs><style>.cls-1,.cls-2{fill:#f9f9f9;stroke:#f9f9f9;stroke-miterlimit:10;}.cls-1{stroke-width:4.13px;}.cls-2{stroke-linecap:round;stroke-width:30.98px;}</style></defs><path class="cls-1" d="M707.1,245.14c-.72,2.06-1.5,4.11-2.16,6.19-6.36,20.18-24.34,34-45.48,34q-119.85.23-239.7.1c-78,0-156.08-.27-234.11.16-25.54.14-44-16.85-48.85-35A50.14,50.14,0,0,1,134.89,238q-.19-83.8-.08-167.62c0-8.88,4.78-13.65,13.77-14,.93,0,1.86,0,2.79,0q269.6,0,539.19-.08c7.39,0,13,2.09,16.54,8.8ZM159.6,192.32H682.21V82H159.6Zm523.26,25.55H159.37c0,5.25,0,10.09,0,14.92q0,28,28.22,28H654.22c1.49,0,3,0,4.47,0,11.54-.41,21-7.72,22.88-19.12C682.85,234.05,682.47,226.14,682.86,217.87Z" transform="translate(-132.73 -54.31)"/><path class="cls-1" d="M478.11,414.68c0-23.82,0-47.65,0-71.47,0-9,5-14.38,12.83-14.26a11.55,11.55,0,0,1,11.58,9.34,41.28,41.28,0,0,1,.65,8.32c0,45.23.35,90.46-.15,135.69-.18,16,11.36,29.2,25.49,31.11,16.91,2.28,30.25-7,34.6-23.58,2.07-7.91,7-12.27,13.34-11.8a12.46,12.46,0,0,1,11.58,11,24.29,24.29,0,0,1-1,8.21c-6.36,24.75-29.81,42.51-54.79,41.61-26.92-1-48.81-19.86-53.26-46.07a57,57,0,0,1-.86-9.4C478.08,460.48,478.11,437.58,478.11,414.68Z" transform="translate(-132.73 -54.31)"/><path class="cls-1" d="M366.52,415.28c0,23.08.05,46.17,0,69.25-.08,28.88-22.18,51.72-52.33,54.21-26.38,2.18-52.78-18.7-57.32-45.34-1.25-7.36,2.8-13.49,9.93-15,6.8-1.47,12.59,2.62,14.48,10.46,3,12.47,10.33,21.09,22.89,24.05,11.7,2.75,22.16-.32,30.28-9.58A28.25,28.25,0,0,0,341.7,484q-.12-70.37,0-140.72c0-8.53,4.47-13.91,11.62-14.27s12.66,4.16,13,11.49c.38,7.8.2,15.62.21,23.44Q366.54,389.59,366.52,415.28Z" transform="translate(-132.73 -54.31)"/><line class="cls-2" x1="463.17" y1="82.85" x2="487.51" y2="82.85"/></svg>