<svg id="Layer_1" data-name="Layer 1" xmlns="http://www.w3.org/2000/svg" viewBox="0 0 418.25 561.74"><defs><style>.cls-1,.cls-2,.cls-3{stroke:#f9f9f9;}.cls-1,.cls-2{stroke-linecap:round;}.cls-1,.cls-3{stroke-miterlimit:10;}.cls-1{stroke-width:33.07px;}.cls-2{fill:none;stroke-linejoin:round;stroke-width:24.56px;}.cls-3{fill:#f9f9f9;stroke-width:4.27px;}</style></defs><line class="cls-1" x1="183.89" y1="305.79" x2="209.88" y2="305.79"/><rect class="cls-2" x="141.37" y="62.12" width="264.61" height="487.35"/><path class="cls-3" d="M328.7,195.65c-2.16-.82-4.5-1.34-6.44-2.52a15.4,15.4,0,0,1-7.83-13.77q-.09-28.22,0-56.44a16.4,16.4,0,0,1,16.24-16.28c3.33,0,6.66,0,10.12,0V105c0-7.14,0-14.28,0-21.42a29.12,29.12,0,0,1,25.63-28.32c12.8-1.38,22.78,3.38,29.71,14.27a25.52,25.52,0,0,1,3.95,13.51c.09,7.32,0,14.65,0,22v1.61c3.33,0,6.52,0,9.71,0A16.35,16.35,0,0,1,426,119.26a17.29,17.29,0,0,1,.45,3.93q0,27.94,0,55.9a16.37,16.37,0,0,1-13.65,16.32,3.71,3.71,0,0,0-.63.24Zm41.62-11h38.73c4.26,0,6.47-2.17,6.47-6.39V124c0-4.22-2.2-6.4-6.46-6.4H331.87q-6.48,0-6.47,6.53v54c0,4.4,2.15,6.53,6.6,6.53Zm18.75-78.09c0-.29.06-.47.06-.65,0-7.27,0-14.55,0-21.82a17.42,17.42,0,0,0-1.72-7.56,18.8,18.8,0,0,0-21.21-10,18.22,18.22,0,0,0-14.41,18.11q0,10.29,0,20.59c0,.44,0,.89.06,1.38Z" transform="translate(-312.26 -52.91)"/><path class="cls-3" d="M365,158.82c0-1.83.05-3.67,0-5.49a2.41,2.41,0,0,0-.75-1.56,10.19,10.19,0,1,1,16.41-6.9,9.53,9.53,0,0,1-3.75,6.76,2.12,2.12,0,0,0-.89,2c0,3.52,0,7,0,10.57a5.5,5.5,0,1,1-11,0C364.94,162.38,365,160.6,365,158.82Z" transform="translate(-312.26 -52.91)"/></svg>