<svg id="Layer_1" data-name="Layer 1" xmlns="http://www.w3.org/2000/svg" viewBox="0 0 719.26 516.92"><defs><style>.cls-1{fill:#f9f9f9;}</style></defs><path class="cls-1" d="M171.2,265c8.73-20.8,15.15-25,38.28-25L392,239.78h8.15v-6.9c0-14-.1-28.09,0-42.13.14-16.63,12.59-29.48,29.29-29.52q101.1-.28,202.2-.1A28.39,28.39,0,0,1,660,189.24c.28,14.27.13,28.56.17,42.83,0,2.28,0,4.56,0,7.62h8.22c24.58,0,108.19,0,132.76.07,8.06,0,13,4,13.1,10.45s-5,10.56-13,10.58c-24.57.06-108.18,0-132.75,0h-7.91v43.11c2.47.14,4.72.38,7,.38q93.72,0,187.46-.11c10.33,0,12.66-2.38,12.68-12.84,0-6.56.07-13.11,0-19.67-.13-8.24-2.79-10.93-11-10.95-20.59-.05-41.19,0-61.78,0-8.66,0-13.5-4-13.37-10.76.12-6.57,4.75-10.33,13.07-10.35,21.53-.05,43.06-.11,64.59,0,17.35.11,29.47,12.34,29.61,29.65.08,9.12.12,18.26,0,27.38a28.81,28.81,0,0,1-28.52,28.67c-6.72.11-13.45,0-20.9,0,0,3.45,0,6.19,0,8.93l.18,233.14c0,2.11-.21,83.71-.36,85.81-.47,6.32-4.93,11-10.52,11.17s-10.18-4.3-10.8-10.69c-.22-2.32.16-84.17.16-86.5q-.25-115.88-.48-231.74c0-3,0-6.06,0-9.6H660.73v43.08h7.77q49.15,0,98.3,0c15.44,0,23.66,8.32,23.68,23.93q.07,52,0,103.92c0,16.13-7.81,24-24.1,24.11-32.06.15-64.12.14-96.18.19h-8.88V655.21H818.19c0-9.94-.05-19.48,0-29,0-2.79-.09-5.79.86-8.31,1.86-4.94,6-7.18,11.19-6.39,5.91.89,9.07,4.81,9.24,10.63.26,8.66.09,17.32.1,26,0,2.28,0,4.55,0,7.47,13.3,0,25.87,0,38.44,0,5.47,0,9.66,2.07,11.67,7.25,2.63,6.8-2.2,13.65-10.08,14.06s-15.91.33-23.86.34q-334.54.36-669.09.78c-6.55,0-12-1-15.51-7.07v-8.43c4.13-4.67,9.2-6.17,15.47-5.93,11.57.44,23.18.13,35.1.13V410.4a37.93,37.93,0,0,1,.17-7c1.09-5.59,5-8.65,10.4-8.63s9.31,3.07,10.32,8.7a39.89,39.89,0,0,1,.18,7V655.84h157V521.63h-8.18q-47,.07-94.06.18c-19.39,0-27-7.32-27-26.41q-.12-49.84-.19-99.7c0-18.82,7.59-26.48,26.25-26.51l95.47-.08h7.58V326.8H242.83c0,10.32.5,87.35-.14,96.88-.23,3.51-2.07,8-4.71,10-6.78,5.32-15.88,0-16.08-9-.22-10.2-.13-87.84-.13-98.27-6.89,0-12.73,0-18.57,0-9.27-.07-17.87-2.48-23.76-9.92-3.51-4.42-5.54-10-8.24-15.06ZM448,655.79v-8.65q0-86.71-.06-173.44c0-23.44,13.57-37,37-37.08q44.58-.08,89.16-.08,39.21,0,39.3,39.15.07,85.66.13,171.33v8.27h25.69c0-3.19,0-5.95,0-8.72q-.12-225-.26-450.08c0-12.37-1.82-14.25-14.08-14.22q-94.77.22-189.54.49c-12.42,0-13.95,1.58-13.92,14.31q.43,225.39.89,450.78c0,2.52,0,5,0,7.94Zm144-.22V648q-.19-87-.41-174c0-12.4-3.4-15.71-15.91-15.7q-44.55,0-89.1.12c-13.93,0-17.44,3.47-17.42,17.28q.13,86,.31,171.94v7.94Zm176.7-156.19V390.78H661.13v108.6Zm-476.39,0H399.68V391.29H292.26ZM400,261.9c-2.14-.19-3.74-.46-5.34-.46q-77.55.09-155.09.24-17.19,0-34.38.08c-10.58,0-11.91,1.32-12,11.6,0,5.84,0,11.69,0,17.54,0,13,.67,13.68,13.35,13.67l186-.13H400Z" transform="translate(-171.2 -161.06)"/><path class="cls-1" d="M501,336.59H471.32c-18,0-25.08-7-25.1-25,0-7-.11-14,0-21.07.23-11.91,8.36-20.2,20.36-20.45C477.78,269.83,489,270,501,270c0-11.26,0-21.95,0-32.63.06-14.23,7.93-22.11,22.12-22.2,8-.05,15.92-.15,23.87,0,11.75.24,19.79,8,20.09,19.81.29,11.4.07,22.81.07,34.93,11.35,0,21.82,0,32.28,0,14.86.05,22.46,7.44,22.71,22.29.14,8.42.28,16.86-.2,25.26-.63,11-7.95,18-19,18.57-5.84.29-11.7.14-17.55.16-5.59,0-11.19,0-18,0v10.66c0,8.2.27,16.4-.12,24.58-.57,11.87-7.74,19-19.54,19.55-8.88.38-17.8.41-26.68.08-12.14-.46-19.82-8.54-20-20.77C500.91,359.35,501,348.36,501,336.59ZM546,369.45V330.82c0-12.68,3.14-15.88,15.55-15.9h38.72V291.28H567.56c-21.07,0-21.6-.53-21.61-21.63q0-16.33,0-32.63H522.26c0,11.72,0,22.91,0,34.11,0,19.37-.9,20.31-20.09,20.31H468V315c13.62,0,26.71,0,39.8,0,11.16,0,14.47,3.35,14.56,14.68,0,6.55,0,13.11,0,19.66s0,13.37,0,20.15Z" transform="translate(-171.2 -161.06)"/></svg>