<svg id="Layer_1" data-name="Layer 1" xmlns="http://www.w3.org/2000/svg" viewBox="0 0 552.28 611.53"><defs><style>.cls-1{fill:#f9f9f9;stroke:#f9f9f9;stroke-miterlimit:10;stroke-width:2.07px;}</style></defs><path class="cls-1" d="M293.3,628c-5.26-3.65-6.57-8.84-6.21-14.93.32-5.54,0-11.11.19-16.66.32-11,5.25-19.68,14.79-24.79,4.81-2.58,5.49-5.56,5.48-10.25q-.14-199.67-.15-399.32c0-21.72,6.66-40.36,22.29-55.64,11.48-11.22,25.7-16.61,41.06-19.88Q509.4,57,648,27.31c13.15-2.8,26.28-5.66,39.44-8.42,6.38-1.33,11.61.57,13.13,6.18,3.21,11.77,6.82,23.68,7.86,35.74,2.61,30.28-18.14,62.27-53.78,72-51.1,14-102,28.45-153.06,42.71-9.12,2.55-10.88,4.8-10.88,14.18q0,55.94,0,111.88v6.61c15.16-4.08,29.61-8,44.07-11.87q88.76-23.82,177.54-47.58C764.24,234.93,813,263.2,827.37,315.28c3,11.05,5.89,22.16,8.8,33.25,2.77,10.59.48,14.52-10,17.41-1.86.51-3.69,1.12-5.34,1.62,1.1,6.28,2.91,12.08,3,17.9.18,13.85-9.06,25.39-23.34,29.34-25.9,7.17-51.86,14.18-77.89,20.86-16.26,4.17-31.22-4.35-36.79-20.24-1.17-3.35-2.08-6.78-3.37-11L491,455.65c-.09,1.8-.26,3.55-.26,5.3,0,34.12.05,68.24-.09,102.36,0,3.82,1,5.85,4.52,7.78,10.42,5.71,15.35,15.09,15.82,26.82.21,5.15-.18,10.32.1,15.47.35,6.28-1.54,11.25-7.08,14.57ZM469.47,283.11H328.17V566.56h141.3Zm.31-21.48v-7.2q0-31.83,0-63.67c0-19.75,7.9-30,26.84-35.3,50.63-14.14,101.3-28.18,151.87-42.54,31.69-9,46.2-36.46,36.62-68-1-3.18-2-4.12-5.34-3.32-9,2.15-18.17,3.89-27.26,5.84Q522.31,75.22,392.11,103.08c-10.81,2.32-21.86,4.21-32.19,8-20.05,7.26-32,26.48-32.09,49.58-.09,31.94,0,63.88,0,95.82,0,1.71.2,3.42.32,5.2Zm344.86,86c-2.72-10.09-5.07-19.47-7.79-28.74-11.65-39.69-48.08-60.82-88.4-50.29-63.09,16.48-126,33.69-189,50.58L491,329.48V434.33ZM307.56,607.31H489.43c2.69-16.47-2.21-20.15-16.12-20-41.41.4-82.83.15-124.24.15-9.91,0-19.82-.09-29.72,0-7.77.09-11.54,4-11.78,11.79C307.49,601.81,307.56,604.35,307.56,607.31ZM800.14,372.9l-97.5,26.15c.67,2.82,1.11,5.11,1.77,7.34C707,415,711.14,417.32,720,415c6.11-1.57,12.2-3.22,18.3-4.84q27.15-7.23,54.31-14.48c9.65-2.6,12-6.86,9.36-16.75C801.44,377.11,800.84,375.27,800.14,372.9Z" transform="translate(-286 -17.45)"/><path class="cls-1" d="M765.84,628c-10.71-3-20.93-6.75-29.7-14-17.29-14.32-27.8-40.47-18.58-65.27,12.21-32.82,31.09-61.78,50.05-90.78,2.16-3.3,4.52-6.48,7.4-10.59,5.83,8.62,11.58,16.56,16.75,24.86,15.08,24.18,29.65,48.52,40.24,75.25,13,32.93-8.75,71.32-44,79.3a22.55,22.55,0,0,0-3.14,1.25Zm8.56-145c-11.12,20.28-21.81,39-31.69,58.15a75.57,75.57,0,0,0-7.59,22.35c-2.51,15.61,6.34,31.24,20.6,38.95,14.87,8,32.2,6.21,45.48-4.78a38.25,38.25,0,0,0,11.88-41.84C804.24,530.14,789.47,507.59,774.4,483Z" transform="translate(-286 -17.45)"/></svg>