<svg id="Layer_1" data-name="Layer 1" xmlns="http://www.w3.org/2000/svg" viewBox="0 0 639.26 550.13"><defs><style>.cls-1,.cls-2{fill:#f9f9f9;stroke:#f9f9f9;stroke-miterlimit:10;}.cls-1{stroke-width:2.07px;}.cls-2{stroke-width:8.26px;}</style></defs><path class="cls-1" d="M239.69,506c0,13.62.05,26.68,0,39.74-.06,10-5,16.08-12.94,16.18S213.5,555.79,213.39,546c-.15-13.27,0-26.55,0-40.62H197.51c-27,0-54,.07-81,0-16.91-.07-28.34-10.1-29.3-26.63a330.16,330.16,0,0,1,0-38.4c1-16.36,12.7-26.75,29.31-26.83,25.63-.12,51.25,0,76.88,0h9.79c-3-3.3-4.91-5.52-7-7.58Q144.81,354.45,93.49,303c-3-3-6.58-7.63-6.18-11.07.52-4.46,3.9-9.67,7.63-12.41,5.08-3.74,10.64-1,14.92,3.28q20.43,20.33,40.78,40.75c6.85,6.9,13.53,14,21.49,22.22,2.36-24.68,13.66-40.77,37-45.34,24.08-4.71,38.42,11.82,53.08,27.54,6.12-13,15-21.88,28-25.84,15.64-4.78,30.13-1.64,41.88,9.47q26.1,24.66,50.84,50.76c11.87,12.54,14.33,27.8,8.85,44.24-.61,1.82-1.23,3.64-1.82,5.47a5.45,5.45,0,0,0,.18,1.41H690c23,0,33.62,10.63,33.73,33.66,0,9.47.22,18.95-.06,28.41-.58,19.09-11.58,29.73-30.56,29.85-14.49.09-29,.09-43.45.17-.51,0-1,.36-2.78,1,0,10.53,0,21.55,0,32.57a76.62,76.62,0,0,1-.53,11.65,12.83,12.83,0,0,1-13.43,11.12A12.63,12.63,0,0,1,621,549.19c-.23-14.17-.07-28.36-.07-43.17Zm164.73-26.37q141.6,0,283.21.16c7.87,0,11.15-1.95,10.27-10.18-.65-6.05-.13-12.23-.13-18.36,0-11.5,0-11.5-11.8-11.5H124.56a26.55,26.55,0,0,1-3.34,0c-6.29-.83-9.21,1.22-8.6,8.18s.13,13.91.13,20.87c0,10.83,0,10.85,11,10.85Q264.06,479.67,404.42,479.65Zm-54-69.56c8.19-1.42,13.48-4.74,16.55-11.52,3.43-7.61,1.3-14.27-4.14-19.81q-23.07-23.49-46.56-46.55c-7.93-7.75-18.25-7.85-25.33-1-7.26,7.07-7.1,17.81.89,25.95,15,15.26,30,30.47,45.46,45.29C340.83,405.89,346,407.6,350.41,410.09Zm-131.34-84c-10.32.14-15.85,3.58-18.59,10.34-2.8,6.92-1.91,13.74,3.58,19.28,15.67,15.81,31.31,31.65,47.23,47.2,7.84,7.65,18.29,7.46,25.28.29s6.88-17.21-1-25.26c-15.2-15.49-30.5-30.9-46.13-46C226.07,328.81,221.12,327.26,219.07,326.13Z" transform="translate(-85.58 -12.86)"/><path class="cls-2" d="M571.38,71.27a72.38,72.38,0,1,1-72.41,72C499,103.54,531.47,71.27,571.38,71.27Zm-.11,18.1a54.29,54.29,0,1,0,54.38,54.19A54.58,54.58,0,0,0,571.27,89.37Z" transform="translate(-85.58 -12.86)"/><path class="cls-2" d="M580.4,35.17c0,3,0,6,0,9a9,9,0,0,1-18.07-.05c0-6.11-.06-12.23,0-18.34a9,9,0,0,1,18.06,0C580.44,29,580.4,32.06,580.4,35.17Z" transform="translate(-85.58 -12.86)"/><path class="cls-2" d="M462.72,152.7c-3,0-6,0-9,0a9,9,0,0,1-.07-18.07q9.18-.08,18.35,0a9,9,0,0,1,.07,18.06C468.93,152.74,465.83,152.69,462.72,152.7Z" transform="translate(-85.58 -12.86)"/><path class="cls-2" d="M679.78,152.69c-3,0-6,0-9,0a9,9,0,0,1-.1-18.06q9.32-.1,18.63,0a9,9,0,0,1,.1,18.05C686.18,152.75,683,152.69,679.78,152.69Z" transform="translate(-85.58 -12.86)"/><path class="cls-2" d="M580.4,252.28c0,3,0,6,0,9a9,9,0,0,1-18.07,0q-.08-9.18,0-18.35a9,9,0,0,1,18.07,0C580.44,246.07,580.4,249.17,580.4,252.28Z" transform="translate(-85.58 -12.86)"/><path class="cls-2" d="M478.63,60.69c.51-4,2.29-6.79,5.59-8.36s6.91-1.4,9.73,1.21c4.13,3.84,8.15,7.82,12,12a9,9,0,0,1-12.84,12.61c-4.07-3.77-8-7.69-11.73-11.8C480,64.83,479.51,62.59,478.63,60.69Z" transform="translate(-85.58 -12.86)"/><path class="cls-2" d="M664.19,60.75c-1,2-1.73,4.35-3.19,6-3.44,3.85-7.18,7.45-10.92,11a9.07,9.07,0,0,1-12.76-12.88c3.65-3.79,7.38-7.52,11.2-11.14a8.4,8.4,0,0,1,9.69-1.53C661.67,53.73,663.53,56.54,664.19,60.75Z" transform="translate(-85.58 -12.86)"/><path class="cls-2" d="M488.36,236.33c-4.09-.5-6.92-2.36-8.46-5.8s-1.23-6.75,1.32-9.48c3.85-4.12,7.83-8.14,12-12a8.8,8.8,0,0,1,12.24.57c3.24,3.29,3.69,8.62.57,12-3.86,4.23-7.94,8.28-12.19,12.13C492.4,235.1,490.2,235.52,488.36,236.33Z" transform="translate(-85.58 -12.86)"/><path class="cls-2" d="M654.33,236.48c-2-1-4.36-1.7-6-3.16-3.86-3.43-7.45-7.17-11-10.91a9.07,9.07,0,0,1,12.8-12.84q5.7,5.46,11.15,11.19a8.4,8.4,0,0,1,1.58,9.68C661.33,233.92,658.52,235.77,654.33,236.48Z" transform="translate(-85.58 -12.86)"/></svg>