<svg id="Layer_1" data-name="Layer 1" xmlns="http://www.w3.org/2000/svg" viewBox="0 0 694.82 402.38"><defs><style>.cls-1{fill:#f9f9f9;stroke:#f9f9f9;stroke-miterlimit:10;stroke-width:2.07px;}</style></defs><path class="cls-1" d="M767.32,224.56c-2.71,13.34-5.62,26.65-8.1,40-4.72,25.42-9.12,50.9-13.85,76.31-.65,3.47-1.51,7.64-3.82,9.94-7.46,7.42-5.91,16.22-5.16,25q4.5,52.51,9.05,105c.91,10.73-2,16.05-9,16.81-6.62.72-10.57-3.6-11.56-14.14-2.27-24.22-4.19-48.47-6.2-72.71-1-12.57-2-25.15-2.92-37.73-.24-3.19-.8-5.47-5-5.43-19.36.19-38.73.08-59.08.08.78,9.09,1.42,17.72,2.29,26.34,1.56,15.45,3.35,30.88,4.86,46.34.94,9.64-3.81,14.51-13.42,13.85A49.42,49.42,0,0,1,619.05,445c-3-2.22-6.13-4.35-10-7.1-1.44,16.87-2.87,32.72-4.09,48.59-.43,5.61-2.88,10.18-8.36,10.66-3.37.3-7.61-1.95-10.33-4.34-1.68-1.48-1.81-5.42-1.63-8.18,1.14-17,2.56-34.05,4.08-53.54-6.66,3.41-12.47,5.52-17.25,9-10,7.33-20.29,13.37-33,14.16-14.67.91-27.46-3.75-38.63-13.13-9.28-7.78-19.73-10.57-31.46-7.08a37.16,37.16,0,0,0-8.43,4.11c-9.13,5.55-18.16,11.25-28.26,17.53v21.17c2.54.11,4.9.31,7.27.32,14.88,0,29.76,0,44.64,0,7.92,0,12.63,3.78,12.79,9.9.17,6.29-4.95,10.58-13,10.59q-62.56,0-125.13,0c-7.7,0-12.6-4-12.81-10.08-.22-6.3,4.73-10.38,13-10.41,14.65-.07,29.31,0,44,0h7.64V455.71c-10.35-6.44-20.14-12.56-30-18.63-10.74-6.64-24.13-6-34.88,1.8-8.57,6.21-16.94,12.48-27.85,14.45-15.55,2.81-29.31-.56-42.1-9.69-6.41-4.57-13.5-8.18-20.28-12.22l-1.62,1.77q1.47,18.76,2.95,37.51c.4,5.16,1,10.32,1.14,15.5.23,6.58-3.86,11.28-9.65,11.53s-10.19-4.14-10.76-10.71c-1.36-15.93-2.68-31.86-4.13-49.08-3.7,2.61-6.74,4.68-9.69,6.85a49.52,49.52,0,0,1-27.66,9.54c-8.56.39-13.29-4.28-12.52-12.78,1.8-19.73,3.95-39.42,5.93-59.14.47-4.64.8-9.29,1.23-14.38-2.14-.1-3.67-.25-5.2-.25h-58.1c-.78,8.46-1.57,16.46-2.25,24.48-2.64,31.19-5.19,62.39-7.91,93.58-.71,8.07-4.82,12.27-10.87,11.89-6.41-.41-10.12-5.29-9.47-13.7,1.86-24.25,4-48.48,6-72.72,1.38-16.39,2.85-32.76,4-49.16.13-1.88-1.64-3.88-2.51-5.82-2.54-5.67-6.27-11.11-7.41-17.05-7.4-38.4-14.12-76.94-21.28-115.39-3.57-19.23,7.46-35.75,26.73-39.33,16.67-3.09,33,9.36,36.23,27.61s6.56,36.28,9.85,54.42c1.37,7.57-1.5,12.66-7.88,13.94-6.08,1.22-11-2.74-12.43-10.3-3.32-17.9-6.48-35.83-9.73-53.75-1.54-8.51-6.45-12.43-13.83-11.1-6.72,1.22-9.91,7-8.45,15q10.41,57.39,20.75,114.81c1.1,6.07,3.55,11.26,10.36,11.36,21.6.29,43.21.11,65.57.11.8-7.33,1.56-14.36,2.41-22.23-14.83,0-29.21,0-43.58,0-2.67,0-6.07.39-7.84-1-3-2.44-6.49-5.87-7.17-9.39-.9-4.62,2.35-8.6,7.4-9.79a35.8,35.8,0,0,1,8-.73c14.85-.06,29.69,0,45.18,0,1.26-12.16,2.48-23.75,3.66-35.34,1.4-13.89,2.66-27.79,4.17-41.67.67-6.15,4.87-9.58,11.76-9.7,9.22-.16,18.44,0,28.5,0-2.39-9.86-4.64-19.12-6.86-28.38-2.18-9.06,1.86-14.86,10.94-14.92q36.52-.22,73.05,0c8.5.06,12.69,5.42,10.92,13.92-2,9.43-4.51,18.74-7,28.77H383.7L374,191.69c-1.76-4.38-3.59-8.74-5.24-13.16-3.44-9.19.73-15.45,10.59-16.06,1.32-.08,2.63-.21,4-.33-8.57-27-4.47-44.47,13.16-56.87a42.43,42.43,0,0,1,49.9.65c17,12.76,21.06,30.93,12.17,56.13,1.81.15,3.5.28,5.2.44,8.56.77,12.82,7.11,9.77,15.18-4.05,10.72-8.5,21.28-12.76,31.93-.81,2-1.49,4.09-2.38,6.56,2.06.21,3.36.46,4.66.46,17.33,0,34.67,0,53,0-2.21-9.07-4.22-17.47-6.31-25.84-3.17-12.63.48-17.49,13.31-17.5q33.48,0,67,0c12.71,0,16.5,4.91,13.44,17.4-2.06,8.44-4.21,16.85-6.48,25.94,9.24,0,17.78,0,26.32,0,10.08,0,13.22,3,14.2,12.9,2.24,22.63,4.62,45.25,6.72,67.89.41,4.5,2,6.17,6.65,6.06,12.62-.29,25.25-.1,37.88-.1,1.58,0,3.16,0,4.73,0,7.58.26,12.56,4.38,12.6,10.39s-4.93,10.46-12.45,10.54c-12.85.15-25.7,0-38.55,0h-7.9c.81,7.75,1.54,14.77,2.34,22.43h38.35c8.11,0,16.23.11,24.35,0s11.76-3.33,13.23-11.43q10.44-57.74,20.92-115.46c1.35-7.43-2-13.22-8.39-14.49C730.81,204,725.47,207.8,724,215.6c-3.26,17.69-6.34,35.41-9.66,53.08a20.39,20.39,0,0,1-3,8.11c-3,4.12-7.44,5.11-12,3s-6.89-6-6-11c3.51-19.92,6.91-39.87,11-59.68C707.28,195.2,719,185.58,733,184.22c13-1.26,26.11,6.82,31.83,19.61.69,1.55,1.63,3,2.45,4.49ZM204.69,432.31c6-4.15,10.28-7.95,15.22-10.33,7.58-3.64,15.38-7.58,23.51-9.12,16.58-3.15,30.66,3.35,43.63,13.6,12.61,10,26.79,9.62,39.82.27,2.38-1.71,4.72-3.46,7.11-5.15,18.17-12.81,41.72-12.69,60.11-.06,6.06,4.17,12.21,9,19.06,11,10.11,3.09,20,.54,28.48-6.39s17.57-12.41,28.85-13.62a55.16,55.16,0,0,1,41.11,11.52,50.46,50.46,0,0,0,17.11,8.76c11,2.91,20.39-1.74,29.33-8.39,22.93-17.08,44.75-16.84,67.65-.06,3.36,2.47,6.91,4.69,11.32,7.65-1.36-14.65-2.5-27.85-3.81-41-4.88-49-9.87-98.08-14.63-147.13-.47-4.85-2.14-6.38-7.06-6.38q-190.68.2-381.34,0c-5.22,0-6.39,2.11-6.79,6.66-1.74,20.18-3.68,40.35-5.7,60.5C213.47,346.49,209.17,388.33,204.69,432.31ZM442.94,140.8c.18-12.61-9.24-22.45-21.69-22.68A21.87,21.87,0,0,0,399,139.56c-.3,12.66,9,22.66,21.34,22.87C433,162.65,442.77,153.3,442.94,140.8ZM393,183.6c4.35,10.93,8.22,20.92,12.41,30.78.49,1.15,2.79,2.11,4.28,2.16,7.43.22,14.88.21,22.31,0,1.51,0,3.87-.9,4.35-2,4.27-10,8.2-20.12,12.51-30.92Zm-83,11H260.92c1.64,6.84,2.93,13.15,4.8,19.28.39,1.28,2.92,2.65,4.49,2.68,11.21.23,22.43.13,34.16.13C306.25,209.33,308.06,202.27,310.05,194.55Zm270.94.08H532c1.55,6.42,2.73,12.34,4.51,18.06.5,1.6,2.74,3.72,4.24,3.77,10.54.32,21.11.27,31.67,0a5,5,0,0,0,3.82-2.69C578.05,207.65,579.38,201.36,581,194.63Z" transform="translate(-73.53 -96.45)"/></svg>