<svg id="Layer_1" data-name="Layer 1" xmlns="http://www.w3.org/2000/svg" viewBox="0 0 695.84 494.84"><defs><style>.cls-1{fill:#fafafa;}</style></defs><path class="cls-1" d="M889.53,270.46Q841.77,222.61,794,174.77a19.49,19.49,0,0,0-15-6.11q-122.29.22-244.6.1c-1.35,0-2.72,0-4.07,0a12.8,12.8,0,0,0-12.12,11.58c-.56,5.45,3.3,10.91,8.91,13,3.09,1.14,6.24.95,9.39.95q117.54,0,235.09-.08a12.78,12.78,0,0,1,10.07,4.1q32.48,32.86,65.3,65.38a42.42,42.42,0,0,0,5.26,3.87L851,268.82H243.28c24.73-24.63,48.65-48.4,72.46-72.28,2.26-2.26,4.71-2.24,7.43-2.23q23.44,0,46.88,0c30.57,0,137.83-.06,168.4-.15,8.93,0,15.23-5.74,15.06-13.15s-6-12.36-14.82-12.36c-49.14,0-175,.14-224.11,0a15.18,15.18,0,0,0-11.49,4.66q-49.18,49.29-98.49,98.48A15.67,15.67,0,0,0,199.83,284c.2,16.3.16,32.61.06,48.92a91.21,91.21,0,0,0,13.36,48.27,22.17,22.17,0,0,1,3.17,12.08q-.13,126-.06,252.08a56.59,56.59,0,0,0,.08,6.11c.79,7.29,5.69,11.93,13.09,12,27.86.09,55.72,0,83.57,0,5.88,0,9.82-3,11.84-8.38,3.32-8.92-3.19-17-14-17.11-20.83-.14-41.67-.25-62.5.1-5.43.09-6.57-1.48-6.56-6.68q.27-106.32.12-212.66V412c24.12,15.79,49.38,20.26,76.11,14.22,27-6.11,47.35-22,61.95-45.68,20,30.87,47.5,48.08,84.15,48s63.91-17.47,83.63-47.83c20.23,30.9,47.73,48,84.42,47.81,36.45-.21,63.7-17.64,83.36-48,14.79,24,35.17,39.63,62,45.72s52.15,1.25,75.94-14.13c0,74.69,0,148.06.09,221.44,0,3.86-1.47,4.36-4.74,4.3-10-.18-19.94-.39-29.89.06-5.52.26-7.18-1.19-7.15-7,.23-53.22.15-106.45.13-159.67,0-13.83-3.86-17.69-17.7-17.7q-95.46,0-190.92,0c-14.36,0-18,3.64-18,18,0,53.22-.09,106.44.13,159.66,0,5.45-1.51,6.74-6.77,6.66-20.15-.31-40.31-.11-60.47-.14-3,0-5.92,0-8.67,1.18-5,2.15-7.92,5.88-8,11.46-.11,5.87,2.84,9.76,8.07,12.15,2.83,1.29,5.79.75,8.69.75q171.55.06,343.12,0c13.82,0,17.72-3.87,17.72-17.65q0-122-.12-243.92c0-9.43.68-18.08,6.22-26.26,5.81-8.57,6.7-19.25,10.34-28.8v-69.3C893.63,275.13,891.72,272.66,889.53,270.46ZM679.37,638c-20.8-.28-41.62-.22-62.42,0-4.35,0-6.32-.54-6.3-5.71q.32-73.63,0-147.26c0-4.84,1.43-6.05,6.11-6,21,.24,42.08.29,63.11,0,5.28-.08,6.32,1.62,6.27,6.54-.26,24.2-.12,48.4-.12,72.61,0,24.43-.19,48.86.14,73.28C686.26,636.91,684.54,638,679.37,638Zm107.37-5.78c0,4.24-.83,5.84-5.51,5.78-21.49-.26-43-.29-64.47,0-4.89.07-5.45-1.81-5.43-5.89.15-24.43.07-48.86.07-73.29s.13-48.87-.1-73.29c0-4.86.89-6.66,6.24-6.58,21,.33,42.07.27,63.11,0,4.64-.05,6.14,1.07,6.12,6Q786.49,558.55,786.74,632.19Zm83.53-330c-.92,14.88,1.32,29.89-1.62,44.7-6.44,32.54-35.87,56.46-69.38,56.49a71.18,71.18,0,0,1-69.69-57.8,108.34,108.34,0,0,1-1.25-12.79c-.59-8.23-6-13.39-13.43-13.12-7.13.27-11.84,5.5-12.17,13.52-1.47,35.93-28.41,65.81-61.32,69.54-40.18,4.57-72.54-22.08-79.32-56.23-1-5.08-1.13-10.34-1.86-15.48-1-6.92-5.65-11.21-12.12-11.35-6.77-.15-12.23,4.18-12.69,11.38-1.07,16.87-5.11,32.64-16.22,45.77-19.54,23.1-44.69,31.6-73.61,23.84-28.57-7.67-46-27.28-51.49-56.75a80.89,80.89,0,0,1-1.21-10.76c-.46-8.27-5.44-13.57-12.94-13.49-7.35.09-12.51,5.39-12.71,13.84-.42,18.19-6.87,33.83-19.06,47.23-19,20.92-49.37,27.95-77.05,17.84-26.32-9.62-44.8-35.09-45.54-63.12-.3-11.54.1-23.1-.28-34.64-.16-4.69,1-6.06,5.87-6,28.76.25,57.53.13,86.29.13h231q157.29,0,314.58-.17C869.21,294.7,870.63,296.34,870.27,302.15Z" transform="translate(-199.83 -168.66)"/><path class="cls-1" d="M497.81,520.86q-59.1-.3-118.19,0c-6.51,0-11.52,5.09-12.28,11.43-.68,5.63,3.38,11.28,9.33,13.36,2.68.94,5.36.71,8.05.72,31.91,0,63.82,0,96.44,0-3.23,12.69-6.48,24.39-9.07,36.24-.86,4-2.32,5.08-6.19,5.06q-52-.2-103.92,0c-3.9,0-5.28-1.08-6-5.13-4.21-22.36-8.83-44.65-13.38-66.94-1.6-7.83-5.66-11.33-13.54-11.44q-16-.22-31.93,0c-8.2.13-13.19,4.84-13.38,12.15-.2,7.58,4.86,12.63,13.32,13a96.62,96.62,0,0,0,14.93,0c6-.68,8,1.62,9.06,7.37,3.83,21.28,8.17,42.48,12.42,63.69,1.92,9.56,6.09,12.81,16,12.81H477.79c9.93,0,13.34-2.55,15.8-12,2.72-10.46,5.32-21,8-31.42,2.61-10.26,5.34-20.48,7.8-30.77C511.78,528.78,507,520.9,497.81,520.86Z" transform="translate(-199.83 -168.66)"/><path class="cls-1" d="M455.45,621.32a21.09,21.09,0,0,0-20.9,21.24,20.86,20.86,0,0,0,21.2,20.84c11.48,0,21.25-9.82,21.12-21.14S466.91,621.27,455.45,621.32Z" transform="translate(-199.83 -168.66)"/><path class="cls-1" d="M371.81,621.32a21.09,21.09,0,0,0-21.05,21,21,21,0,0,0,42.08.11A21.27,21.27,0,0,0,371.81,621.32Z" transform="translate(-199.83 -168.66)"/></svg>