<svg id="Layer_1" data-name="Layer 1" xmlns="http://www.w3.org/2000/svg" viewBox="0 0 644.39 542.63"><defs><style>.cls-1{fill:#f9f9f9;}</style></defs><path class="cls-1" d="M738.2,560.68c-4.45,7-11.15,8.27-18.88,8.27q-284.66-.13-569.3-.1a52.21,52.21,0,0,1-8.75-.65,12.34,12.34,0,0,1-1.76-23.79,33.55,33.55,0,0,1,9.28-1.16c17.15-.1,34.3,0,53,0-1.93-10.1-3.17-19.56-5.6-28.7-9.89-37.27-29.31-69.69-52.78-99.73-12.63-16.16-26.64-31.24-40-46.79-2.19-2.54-4.62-4.89-6.67-7.53-3.41-4.38-3.87-9.23-1.12-14.09,2.63-4.66,7-7.14,12.13-6.05,11,2.35,22.12,4.67,32.77,8.25,36.57,12.31,69.42,31.1,98.13,57.76-.88-1.82-1.7-3.67-2.65-5.46-25.48-47.77-57.4-91-93.11-131.52-11.63-13.21-23.86-25.91-35.8-38.84-1.71-1.85-3.47-3.66-5-5.62-3.48-4.34-4.12-9.13-1.45-14,2.54-4.67,6.72-7.25,12-6.36a273.93,273.93,0,0,1,27.59,5.75c62.08,17.36,118.93,45,167.61,87.78,15.21,13.36,28.49,28.92,42.64,43.5,1.53,1.58,2.91,3.32,5.2,5.94,1.36-16.65,2.5-32,3.89-47.38C362.21,270,364.74,240,368,210c3-27.87,6-55.8,10.62-83.43C382.83,101.51,389,76.73,395,52c1.49-6.08,5-12,8.88-17.1,8.61-11.3,23-11.66,30.66.27,6.2,9.65,11.34,20.81,13.65,32q9.82,47.55,16.74,95.69c4.13,28.36,6.73,57,9.68,85.48,1.85,17.87,3.11,35.81,4.76,55.26,3.93-4,7-7.11,10.15-10.25C539,243.5,597.27,208,664.61,187.89c16.58-4.95,33.69-8.16,50.61-11.93,7.72-1.72,13.49.69,16.37,6.07,3,5.59,2,10.79-4,16.91-29.89,30.66-58.29,62.6-84,96.86-31.64,42.17-59.52,86.58-79.73,135.47a233.43,233.43,0,0,0-10.29,30.63c5-8.11,9.64-16.5,15.12-24.28,35-49.75,83.75-79,141.59-94.56,2.42-.65,4.91-1.06,7.3-1.8,8.49-2.59,15.58-1.07,20.63,6.75v8.81c-3.22,3.79-6.38,7.63-9.68,11.34-8.22,9.22-16.76,18.16-24.72,27.59-27.15,32.12-50.52,66.6-64.41,106.72-4.49,13-7.76,26.25-8.15,40.73h7.34c27.22,0,54.43.17,81.65-.1,7.76-.08,13.84,2,18,8.77ZM402.7,542.85C396.38,474.3,375.18,412,331.65,358.52c-47-57.78-108.36-94-178.35-117.14a42.44,42.44,0,0,0,5.62,7.5C207.28,303.64,249.79,362.26,278,430.2c11.66,28.07,20.57,57,23.65,87.41.85,8.28,1.34,16.61,2,25.24Zm87.33,0h23.11c.9-12,1.09-23.8,2.76-35.36,5.87-40.74,19.68-79,37.76-115.77,29.44-59.79,68.2-113.28,112.08-163.2,5.27-6,10.5-12,16.23-18.59a13,13,0,0,0-2.27,0c-49.92,14.18-95.43,37.07-136,69.47-61.32,49-104.19,110.51-126.27,186.11a20.51,20.51,0,0,0-.32,9.06c2,11.31,4.66,22.51,6.63,33.82s3.48,23,5.19,34.57h35.66M420.42,60.1l-1.67.14c-1.34,4.37-3.16,8.65-3.93,13.11-5.71,32.73-12,65.38-16.55,98.27-4.66,34-7.83,68.21-11,102.39-2.89,30.65-4.88,61.38-7.46,92.07-.83,9.94-.38,19.08,5.42,28.09s9.71,19.42,14.46,29.19c.74,1.52,1.62,3,3,5.52a394.93,394.93,0,0,1,52-95.16,8.26,8.26,0,0,0,1.13-5.25c-3.47-38.79-6.4-77.65-10.79-116.34-4.22-37.19-9.62-74.26-15.22-111.27C427.69,87.11,423.59,73.68,420.42,60.1ZM148.05,379.39c20.57,24.35,38.1,49.21,52.1,76.37s24.64,55.7,26.35,87.06H275C268.1,465.27,218.55,406.5,148.05,379.39ZM605.2,542.81c6.15-63.9,39.25-114.57,78.29-163.23-69.53,26.94-119.67,85.6-126.3,163.23Z" transform="translate(-93.81 -26.32)"/></svg>