<svg xmlns="http://www.w3.org/2000/svg" xmlns:xlink="http://www.w3.org/1999/xlink" width="500" zoomAndPan="magnify" viewBox="0 0 375 374.999991" height="500" preserveAspectRatio="xMidYMid meet" version="1.2"><defs><clipPath id="6dd0ba2abf"><path d="M 39.75 108 L 335.25 108 L 335.25 337 L 39.75 337 Z M 39.75 108 "/></clipPath></defs><g id="0e2c32c58c"><path style=" stroke:none;fill-rule:nonzero;fill:#11354a;fill-opacity:1;" d="M 160.984375 68.925781 C 177.9375 78.191406 194.695312 87.457031 211.648438 96.917969 C 213.816406 98.101562 215.984375 100.070312 218.351562 98.296875 C 220.714844 96.722656 219.929688 93.765625 219.335938 91.59375 C 218.351562 87.457031 218.351562 83.316406 219.335938 79.175781 C 219.730469 77.597656 219.535156 76.023438 219.535156 74.445312 C 219.535156 53.351562 196.074219 37.582031 177.152344 46.253906 C 168.082031 50.394531 162.167969 58.476562 157.632812 67.152344 L 160.589844 68.726562 C 160.789062 68.925781 160.984375 68.925781 160.984375 68.925781 Z M 160.984375 68.925781 "/><g clip-rule="nonzero" clip-path="url(#6dd0ba2abf)"><path style=" stroke:none;fill-rule:nonzero;fill:#11354a;fill-opacity:1;" d="M 286.753906 242.203125 C 284.785156 238.0625 282.222656 234.121094 278.671875 230.96875 C 273.746094 226.628906 269.015625 227.023438 264.675781 231.953125 C 262.902344 233.925781 261.523438 236.09375 260.144531 238.261719 C 257.382812 242.597656 254.820312 246.933594 252.257812 251.46875 L 239.839844 245.753906 C 239.445312 245.554688 238.851562 245.359375 238.457031 245.160156 L 219.335938 236.488281 C 218.351562 236.09375 217.167969 235.5 216.183594 235.105469 L 209.875 232.148438 C 209.875 232.148438 209.675781 232.148438 209.675781 231.953125 L 205.539062 229.980469 L 204.75 227.023438 L 200.609375 208.691406 C 198.835938 200.410156 196.863281 191.933594 195.089844 183.65625 C 192.328125 171.039062 189.371094 158.226562 186.613281 145.609375 C 185.429688 140.089844 182.867188 135.554688 178.726562 131.613281 C 178.136719 131.023438 177.542969 130.628906 177.152344 130.035156 C 175.375 128.460938 173.207031 127.277344 170.84375 126.683594 C 169.265625 126.289062 167.492188 125.699219 165.914062 124.910156 C 161.578125 122.9375 157.832031 119.785156 154.875 116.238281 C 153.101562 113.871094 150.734375 111.898438 147.777344 110.914062 C 145.414062 110.125 142.851562 109.335938 140.484375 108.941406 C 137.132812 108.351562 133.585938 109.140625 130.234375 109.535156 C 126.683594 109.929688 122.941406 110.324219 119.390625 110.519531 C 112.292969 111.113281 105.199219 111.703125 98.101562 112.292969 C 93.371094 112.6875 89.625 114.460938 86.46875 118.207031 C 84.5 120.574219 82.332031 123.136719 80.359375 125.503906 C 75.824219 131.023438 71.09375 136.542969 66.363281 142.0625 L 59.265625 150.933594 C 58.082031 152.3125 56.902344 153.691406 55.71875 155.070312 C 54.730469 156.253906 53.945312 157.632812 52.761719 158.621094 C 51.972656 159.410156 50.988281 160 49.804688 160 C 49.210938 160 48.421875 159.804688 47.832031 159.804688 C 43.496094 159.410156 39.75 164.335938 39.75 168.28125 C 39.75 172.617188 41.917969 175.375 45.859375 177.152344 C 104.804688 203.960938 163.941406 230.769531 222.886719 257.582031 C 229.785156 260.734375 236.488281 263.886719 243.582031 267.042969 C 238.457031 274.730469 234.121094 282.222656 223.476562 282.222656 C 218.546875 282.222656 215.394531 285.179688 213.421875 289.910156 C 208.496094 302.132812 202.976562 314.15625 197.847656 326.183594 C 196.273438 329.730469 194.695312 333.277344 193.316406 336.828125 L 335.25 336.828125 C 319.085938 305.285156 302.527344 273.941406 286.753906 242.203125 Z M 88.835938 177.152344 C 83.117188 174.585938 77.597656 172.023438 72.277344 169.460938 L 71.488281 169.066406 L 78.585938 161.972656 C 84.5 155.664062 90.414062 149.355469 96.128906 143.046875 C 97.3125 141.667969 98.691406 141.074219 100.664062 140.878906 C 104.210938 140.878906 107.957031 140.679688 111.898438 140.484375 C 104.410156 152.902344 96.523438 164.929688 88.835938 177.152344 Z M 143.636719 202.1875 L 163.152344 173.800781 C 164.140625 172.417969 165.125 171.039062 166.109375 169.660156 C 171.039062 186.21875 175.574219 202.382812 180.5 218.941406 C 167.886719 213.421875 155.859375 207.902344 143.636719 202.1875 Z M 143.636719 202.1875 "/></g><path style=" stroke:none;fill-rule:nonzero;fill:#11354a;fill-opacity:1;" d="M 172.023438 316.917969 C 171.039062 300.359375 170.054688 283.40625 166.898438 267.042969 C 164.535156 254.230469 156.253906 243.582031 149.355469 232.742188 L 78.78125 200.019531 C 78.386719 201.199219 78.191406 201.988281 77.796875 202.777344 C 68.335938 239.640625 58.871094 276.503906 49.410156 313.367188 C 48.816406 315.734375 48.226562 318.097656 48.03125 320.464844 C 47.636719 324.605469 48.421875 327.757812 50.789062 331.109375 C 52.167969 333.082031 54.140625 334.855469 56.507812 335.839844 C 60.644531 337.417969 65.96875 335.839844 69.515625 333.671875 C 73.460938 331.308594 74.640625 327.757812 76.023438 323.621094 C 77.597656 318.886719 79.175781 314.15625 80.753906 309.230469 C 83.90625 299.765625 87.0625 290.105469 90.414062 280.644531 C 93.371094 271.972656 96.128906 263.492188 99.085938 254.820312 C 101.058594 249.105469 103.027344 243.386719 105 237.277344 C 112.097656 242.796875 119.195312 248.316406 126.289062 254.03125 C 130.429688 257.382812 134.570312 261.128906 137.132812 265.859375 C 139.894531 271.378906 140.878906 277.6875 141.667969 283.601562 C 143.046875 292.472656 144.425781 301.539062 145.808594 310.410156 C 146.988281 317.113281 147.1875 324.40625 150.933594 330.320312 C 152.3125 332.488281 154.285156 334.460938 156.847656 335.25 C 158.816406 335.839844 160.984375 335.644531 162.957031 335.445312 C 164.929688 335.054688 166.898438 334.460938 168.675781 333.277344 C 170.84375 331.703125 171.828125 328.941406 172.222656 326.183594 C 172.417969 324.011719 172.222656 321.648438 172.023438 319.480469 C 172.222656 318.886719 172.222656 317.902344 172.023438 316.917969 Z M 172.023438 316.917969 "/><path style=" stroke:none;fill-rule:nonzero;fill:#11354a;fill-opacity:1;" d="M 167.292969 117.417969 C 178.726562 123.726562 193.90625 118.011719 201.398438 104.804688 C 202.382812 103.027344 203.171875 101.253906 203.761719 99.480469 C 190.359375 92.1875 160.589844 76.023438 160.589844 76.023438 C 160.589844 76.023438 155.859375 88.246094 156.253906 96.328125 C 156.253906 96.328125 156.253906 96.523438 156.253906 96.523438 C 156.058594 105.199219 160 113.28125 167.292969 117.417969 Z M 167.292969 117.417969 "/></g></svg>