<svg xmlns="http://www.w3.org/2000/svg" xmlns:xlink="http://www.w3.org/1999/xlink" width="500" zoomAndPan="magnify" viewBox="0 0 375 374.999991" height="500" preserveAspectRatio="xMidYMid meet" version="1.2"><defs><clipPath id="d1b053e4a8"><path d="M 38 49 L 329 49 L 329 333.980469 L 38 333.980469 Z M 38 49 "/></clipPath></defs><g id="3c150a3a75"><g clip-rule="nonzero" clip-path="url(#d1b053e4a8)"><path style=" stroke:none;fill-rule:nonzero;fill:#11354a;fill-opacity:1;" d="M 275.851562 130.507812 C 267.910156 138.359375 255.09375 138.359375 247.246094 130.507812 C 239.421875 122.683594 239.421875 109.867188 247.246094 102.019531 C 251.078125 98.207031 256.136719 96.097656 261.492188 96.097656 C 266.933594 96.097656 272.015625 98.207031 275.851562 102.019531 C 283.675781 109.867188 283.675781 122.683594 275.851562 130.507812 Z M 302.070312 75.730469 C 266.980469 40.59375 209.886719 40.59375 174.796875 75.730469 C 146.625 103.902344 140.339844 147.410156 159.257812 182.25 L 38.898438 302.675781 C 38.152344 303.425781 37.855469 304.492188 38.195312 305.535156 L 46.066406 330.53125 L 157.535156 219.066406 C 158.644531 217.953125 160.460938 217.953125 161.570312 219.066406 C 162.683594 220.175781 162.683594 221.96875 161.570312 223.082031 L 50.605469 334.046875 L 86.601562 332.003906 C 88.03125 331.9375 89.210938 330.757812 89.28125 329.328125 L 89.890625 316.242188 L 103.003906 315.558594 C 104.476562 315.492188 105.679688 314.359375 105.726562 312.859375 L 106.359375 299.703125 L 119.515625 299.09375 C 120.195312 299.09375 120.878906 298.75 121.398438 298.296875 L 129.589844 290.042969 C 130.109375 289.519531 130.382812 288.90625 130.449219 288.160156 L 131.0625 275.070312 L 144.171875 274.433594 C 145.648438 274.320312 146.78125 273.1875 146.894531 271.714844 L 147.53125 258.601562 L 160.617188 257.988281 C 161.367188 257.921875 161.980469 257.625 162.5 257.128906 L 199.226562 220.402344 C 233.726562 237.144531 274.851562 230.246094 302.070312 203.027344 C 337.1875 167.914062 337.1875 110.796875 302.070312 75.730469 "/></g></g></svg>