<svg fill="#ffffff" id="Layer_1" data-name="Layer 1" xmlns="http://www.w3.org/2000/svg" viewBox="0 0 711.49 106.1"><path d="M776.69,344.7a6.08,6.08,0,1,1-6.07-5.92,6,6,0,0,1,6.07,5.92m-10.65,0a4.58,4.58,0,0,0,4.62,4.72,4.53,4.53,0,0,0,4.51-4.69,4.57,4.57,0,1,0-9.13,0m3.65,3.1h-1.38v-5.92a12,12,0,0,1,2.28-.18,3.74,3.74,0,0,1,2.06.43,1.66,1.66,0,0,1,.57,1.3A1.5,1.5,0,0,1,772,344.8v.08a1.75,1.75,0,0,1,1.08,1.44,4.72,4.72,0,0,0,.43,1.48H772a5.14,5.14,0,0,1-.47-1.44c-.11-.65-.47-.94-1.22-.94h-.65Zm0-3.36h.65c.76,0,1.37-.25,1.37-.86s-.39-.91-1.26-.91a3,3,0,0,0-.76.08Z" transform="translate(-65.2 -244.59)"/><path d="M344,297.27c0-16.88,0-33.76,0-50.63,0-1.59.37-2,2-2q41.07.08,82.14,0c1.53,0,1.92.4,1.89,1.91-.1,4.83-.11,9.66,0,14.49,0,1.64-.48,2-2.06,2-20.62,0-41.23,0-61.85-.08-2.07,0-2.5.6-2.47,2.55.12,6.89.1,13.78,0,20.67,0,1.61.39,2,2,2,15.72-.07,31.44,0,47.16-.08,1.71,0,2.33.36,2.27,2.21-.14,4.76-.11,9.53,0,14.3,0,1.52-.38,1.92-1.91,1.91-15.78-.06-31.57,0-47.35-.08-1.8,0-2.18.5-2.18,2.22,0,6.95,0,13.91-.19,20.86,0,1.65.33,2.15,2.09,2.15,20.74-.07,41.49,0,62.23-.09,1.7,0,2.31.33,2.26,2.17-.14,4.7-.12,9.41,0,14.11,0,1.66-.34,2.16-2.1,2.15q-38.07-.09-76.15,0c-1.86,0-3.74-.14-5.6,0s-2.17-.64-2.16-2.3C344,330.9,344,314.09,344,297.27Z" transform="translate(-65.2 -244.59)"/><path d="M151.8,295.38c6-6.41,7.57-14.25,7-22.71-.68-10.06-5.37-17.57-14.37-22.24-8.32-4.32-17.38-5.56-26.56-5.68-16.82-.2-33.64-.06-50.45-.15-1.7,0-2.23.35-2.23,2.17q.09,50.53,0,101.09c0,1.62.29,2.17,2.07,2.17,17.46-.08,34.92,0,52.38-.07A75.52,75.52,0,0,0,142,347.05c7.74-2.39,14.42-6.28,18.31-13.77C167,320.46,163.52,305.09,151.8,295.38Zm-66.92-30.7c0-1.17.2-1.7,1.56-1.69,12.11.09,24.21.08,36.32.17a25.3,25.3,0,0,1,9.25,1.73c4.62,1.83,7,5.5,7.06,10.69s-2.32,8.73-6.87,10.62c-3.88,1.61-8,1.87-12.12,1.93-4.9.06-9.79,0-14.69,0h0c-6.25,0-12.5,0-18.74,0-1.25,0-1.8-.18-1.79-1.64C84.94,279.24,84.92,272,84.88,264.68Zm51.63,65.06a32.76,32.76,0,0,1-11.94,1.88c-5.92.05-11.85,0-17.77,0-6.76,0-13.53,0-20.29,0-1.2,0-1.65-.24-1.64-1.56q.09-11,0-22c0-1.29.39-1.59,1.62-1.59,13,0,26,0,39,0a29.87,29.87,0,0,1,11,1.85c4.64,1.86,7,5.41,7,10.69S141.18,327.88,136.51,329.74Z" transform="translate(-65.2 -244.59)"/><path d="M309.75,348.27q-23.53-51.15-47-102.34a2,2,0,0,0-2.18-1.31c-7,0-14.05.09-21.06,0a3.23,3.23,0,0,0-3.57,2.24q-19,41.75-38.23,83.44l-9,19.71c7.07,0,13.76,0,20.45,0,1.12,0,1.37-.73,1.72-1.48,3-6.6,6.13-13.17,9.11-19.79a2.29,2.29,0,0,1,2.45-1.59q27.15.06,54.3,0a2.29,2.29,0,0,1,2.47,1.56c3,6.62,6.07,13.19,9.07,19.81a2.16,2.16,0,0,0,2.31,1.5q9-.09,18,0C310.06,350,310.47,349.83,309.75,348.27Zm-41.6-39.35c-12.43-.07-24.86,0-37.29-.05a2.1,2.1,0,0,1-1.61-.3l20.26-44.19c.44.79.76,1.3,1,1.83q9.38,20.4,18.75,40.81C269.88,308.37,270,308.93,268.15,308.92Z" transform="translate(-65.2 -244.59)"/><path d="M564.51,349.92c-8.78-11.48-16.34-22.39-25-32.51-6.46-8.73-12.83-17.52-19.42-26.15-1.86-2.42-2-3.92.41-6.11,8-7.17,15.75-14.56,23.57-21.9,6.19-5.82,12.33-11.68,19.56-18.53h-.12l.12-.12H539.05L488,292V244.6H470.34V350H488V316.82a4.41,4.41,0,0,1,1.49-2.74c4.45-3.93,8.85-7.94,13.07-12.11,1.51-1.5,2.48-1.57,3.5-.68h0L542.94,350h21.57l-.11-.12Z" transform="translate(-65.2 -244.59)"/><path d="M617.51,349.6c-14,0-21-5-21-15.13,0-5.65,2.25-9.7,6.74-12.1a15,15,0,0,1-3.12-9.41c0-9.55,6.74-14.91,17.38-14.91S635,303.41,635,313h-9.27c0-3.91-3.4-6.08-8.18-6.08s-8.11,2.17-8.11,6.08c0,2.18,1.52,4.56,4.27,6.52l15.71,11.22v-7.38h9.12v11.15c0,.94-.07,1.81-.14,2.68l5.28,3.76-5,7.53-4.56-3.26c-3.48,3-9,4.42-16.58,4.42m0-8.84a20.67,20.67,0,0,0,8.47-1.37L611.28,329c-3.69.87-5.5,2.75-5.5,5.51q0,6.28,11.73,6.29" transform="translate(-65.2 -244.59)"/><path d="M674.34,298.05c9.19,0,16.07,3.18,20.2,9.19l-7.68,5.29c-2.46-3.76-6.66-5.65-12.52-5.65-10.21,0-15.28,5.65-15.28,16.94s5.07,16.94,15.28,16.94c5.86,0,10.06-1.88,12.52-5.64l7.68,5.28c-4.13,6-11,9.2-20.2,9.2-15.71,0-24.54-9.27-24.54-25.78s8.83-25.77,24.54-25.77" transform="translate(-65.2 -244.59)"/><path d="M701.41,323.82c0-16.5,8.84-25.77,24.55-25.77s24.54,9.27,24.54,25.77S741.67,349.6,726,349.6s-24.55-9.27-24.55-25.78M726,340.76c10.21,0,15.27-5.64,15.27-16.94s-5.06-16.94-15.27-16.94-15.28,5.65-15.28,16.94,5.07,16.94,15.28,16.94" transform="translate(-65.2 -244.59)"/></svg>