<svg fill="#1b364b" id="Layer_1" data-name="Layer 1" xmlns="http://www.w3.org/2000/svg" viewBox="0 0 417.56 212.74"><path d="M212.16,191.27H311q90.41,0,90.41,62.57,0,24.72-14.7,40,23.77,16,23.78,47.87,0,62.25-90.42,62.26H212.16Zm39.42,36.92v51h69.77q21.27,0,30.65-6.26t9.39-19.08q0-13.14-9.39-19.4t-30.65-6.25Zm78.84,138.9q21.27,0,30.66-6.26t9.38-19.08q0-13.14-9.38-19.4t-30.66-6.26H251.58v51Z" transform="translate(-212.16 -191.27)"/><polygon points="323.56 87.82 416.67 0 363.01 0 263.7 93.11 263.7 0 226.2 0 226.2 212.74 263.7 212.74 263.7 143.68 296.05 113.45 370.59 212.74 417.56 212.74 323.56 87.82"/></svg>