<svg id="Layer_1" data-name="Layer 1" xmlns="http://www.w3.org/2000/svg" viewBox="0 0 611.42 609.4"><defs><style>.cls-1{fill:#f9f9f9;stroke-miterlimit:10;stroke-width:6.2px;}.cls-1,.cls-2,.cls-3{stroke:#f9f9f9;}.cls-2,.cls-3{fill:none;stroke-linecap:round;stroke-linejoin:round;}.cls-2{stroke-width:30.98px;}.cls-3{stroke-width:24.78px;}</style></defs><path class="cls-1" d="M476.47,582.56c-2.64-5-5.71-9.91-7.81-15.17-6.74-16.85-14-33.59-19.43-50.86-8.35-26.35-15.44-53.1-23-79.7-5.37-19,7.08-33.51,26.7-30.92,16.88,2.24,29.23,11.2,36.54,26.56,6.43,13.53,12.37,27.29,18.52,40.95l2-.14c-.4-2-1.15-4-1.15-6q-.11-87.55,0-175.12c0-19,12.45-34,30.2-36.75,22.32-3.52,41.75,13,41.9,36,.22,32.25.06,64.51.08,96.76,0,1.86.09,3.72.15,5.93,21.46-9.46,38.16-4,50.65,14.84,25.26-15.65,48.42-2.55,56.11,17,4.49-1.31,8.88-3.2,13.44-3.8,19-2.49,35.44,11.22,36.76,30.33.31,4.54.19,9.11.19,13.67,0,21.56-.62,43.14.16,64.68,1.34,37-6.6,71.58-24.49,103.93-.68,1.22-1.27,2.49-2,3.71-2.62,4.64-7.1,6.25-11.43,4.14s-6-6.59-3.78-11.56c4-8.9,8.64-17.57,12.46-26.56a149.87,149.87,0,0,0,11.89-58.8c.07-30,0-59.95.06-89.92,0-6.8-2.84-12-8.68-15.11-5.56-3-11.74-2.8-16.21,1.47-3.14,3-4.66,7.79-6.51,12-.65,1.47-.05,3.47-.17,5.21-.36,5.18-4,8.71-8.73,8.59-4.59-.11-8.09-3.46-8.28-8.47-.24-6.65-.09-13.32-.17-20-.13-12.13-7.65-20.33-18.61-20.36-10.79,0-18.43,8.44-18.51,20.49,0,1.05,0,2.1,0,3.15-.31,5.83-3.54,9.18-8.72,9.06-5-.11-8.11-3.34-8.31-8.92s-.05-11.22-.17-16.82c-.26-11.69-8-19.71-18.87-19.58-10.39.13-18.08,8.42-18.24,19.68,0,1.75.1,3.52-.09,5.25-.56,5-4,8.12-8.74,8-4.47-.13-7.71-3.23-8.2-8a46.57,46.57,0,0,1-.07-4.73q0-67,0-134.1c0-12.09-8.08-20.56-19.21-20.45a18.73,18.73,0,0,0-18.66,17.15c-.19,2.09-.11,4.2-.11,6.3q0,99.39,0,198.79c0,5.09-.56,9.9-5.11,13.07-7.08,4.94-15.39,2.22-19.27-6.39q-13.47-29.87-26.77-59.81c-4.91-11-13.23-17.39-25.3-18.49-5.89-.54-8.72,2.73-7.09,8.37,9.47,32.76,18.57,65.65,28.79,98.19,8.56,27.25,23.16,51.51,40.16,74.38,5.94,8,11.46,16.29,17.05,24.53,2.77,4.09,2.08,9.17-1.33,11.85a8.13,8.13,0,0,1-12.05-1.67c-6.81-9.09-13.17-18.51-19.73-27.79-2.92-4.13-5.87-8.23-9.37-13.13" transform="translate(-210.7 -37.3)"/><circle class="cls-1" cx="331.87" cy="168.32" r="15.34"/><path class="cls-2" d="M422.71,560.89" transform="translate(-210.7 -37.3)"/><path class="cls-2" d="M735.42,560.89" transform="translate(-210.7 -37.3)"/><polyline class="cls-3" points="180.46 485.1 12.39 485.1 12.39 12.39 599.03 12.39 599.03 485.1 527.95 485.1"/></svg>