<svg id="Layer_1" data-name="Layer 1" xmlns="http://www.w3.org/2000/svg" viewBox="0 0 493.66 544.72"><defs><style>.cls-1,.cls-2,.cls-3{fill:#f9f9f9;}.cls-1,.cls-2{stroke:#f9f9f9;stroke-miterlimit:10;}.cls-1{stroke-width:6.2px;}.cls-2{stroke-linecap:round;stroke-width:30.98px;}</style></defs><path class="cls-1" d="M605.5,58.65c3.4,1.2,6.92,2.14,10.19,3.63,19.88,9,30.08,24.67,30.27,46.33.31,34,.12,68,.07,102,0,6.86-3.48,11-8.73,10.89s-8.53-4.32-8.53-11.11c0-33.47-.48-67,.17-100.43.35-17.75-12.26-34.62-34.57-34.56q-97.3.27-194.6,0c-20.63-.07-34.65,15-34.61,34.5q.45,218,0,435.91c0,19.72,14.09,34.73,35,34.64q96.76-.42,193.54,0c22.62.1,36.26-16.54,35.14-35-.63-10.47-.12-21-.12-32.07-5.43-1.71-11-3-16.24-5.2-16.69-7.16-33.63-13.88-49.71-22.23-24.53-12.73-48.46-26.63-72.59-40.12-17.26-9.65-18.7-28.7-3-40.74,13.52-10.36,28.59-12.75,44.62-7.05,14.11,5,28,10.55,42.06,15.86.44-.52.89-1,1.34-1.55-1.7-1.13-3.65-2-5.06-3.43q-62-61.85-123.86-123.8c-13.43-13.45-15.21-32.81-4.63-47.34,13.3-18.27,38.71-20.34,55.12-4.14,23,22.66,45.66,45.58,68.47,68.37,1.32,1.32,2.7,2.56,4.31,4.09,8.48-21.87,24.11-29.86,46.3-25.32,6.8-28.94,32.44-36.05,51.73-27.63,2.25-4.1,4-8.54,6.82-12.19,11.64-15.17,33-17.13,47.43-4.54,3.43,3,6.58,6.3,9.81,9.52,15.26,15.23,30.07,31,45.84,45.62,27.11,25.22,46,55.29,56.18,90.81.38,1.35.86,2.66,1.23,4,1.43,5.14-.59,9.44-5.15,11s-8.93-.39-10.85-5.5c-3.43-9.16-6.31-18.53-10-27.59a149.76,149.76,0,0,0-33.17-50c-21.14-21.24-42.4-42.38-63.54-63.62-4.8-4.82-10.46-6.44-16.82-4.55-6,1.81-10.28,6.32-10.42,12.51-.1,4.33,2.21,8.8,3.85,13.05.58,1.5,2.42,2.49,3.56,3.81,3.41,3.92,3.35,9-.09,12.24s-8.17,3.28-11.85-.13c-4.87-4.54-9.48-9.36-14.24-14-8.68-8.48-19.8-9-27.56-1.23s-7.07,19,1.39,27.57c.74.75,1.51,1.47,2.22,2.25,3.9,4.34,4,9,.24,12.57s-8.11,3.38-12.19-.43-8-7.9-12-11.77c-8.44-8.08-19.61-8.26-27.18-.51-7.26,7.45-6.83,18.74,1,26.82,1.22,1.25,2.55,2.42,3.64,3.78,3.17,3.95,2.92,8.56-.53,11.82-3.25,3.07-7.74,3.17-11.44.15a43.82,43.82,0,0,1-3.39-3.29Q533,293.9,485.59,246.5c-8.57-8.54-20.26-8.83-28-.88a18.71,18.71,0,0,0-1.07,25.32c1.34,1.61,2.89,3.05,4.38,4.53Q531.14,345.76,601.45,416c3.6,3.6,6.6,7.4,5.63,12.85-1.52,8.51-9.32,12.46-18.15,9.12q-30.63-11.6-61.21-23.37c-11.27-4.32-21.66-2.94-31,4.81-4.54,3.79-4.24,8.1.91,10.94,29.87,16.47,59.56,33.29,89.79,49.07,25.32,13.21,52.8,20.05,81,24.2,9.85,1.45,19.62,3.41,29.4,5.29,4.86.93,7.95,5,7.45,9.32a8.14,8.14,0,0,1-9.71,7.34c-11.24-1.61-22.4-3.78-33.6-5.7-5-.86-10-1.67-15.91-2.66,0,2.41.08,4.58,0,6.75-.51,12,.38,24.37-1.91,36.07-4.3,22-24.29,37.08-46.74,37.1q-99.93.08-199.85,0c-27.35,0-48.55-20.63-49.57-48.08-.07-1.93,0-3.86,0-5.79V112.62c0-28.67,12.48-45.23,40.1-53.27.29-.08.51-.46.76-.7Z" transform="translate(-344.82 -55.56)"/><line class="cls-2" x1="141.9" y1="67.92" x2="166.25" y2="67.92"/><circle class="cls-3" cx="154.07" cy="479.89" r="15.34"/></svg>