<svg id="Layer_1" data-name="Layer 1" xmlns="http://www.w3.org/2000/svg" viewBox="0 0 660.32 159.15"><defs><style>.cls-1{fill:#b38c50;}</style></defs><path class="cls-1" d="M110.77,221.51a4.12,4.12,0,0,1,4.25-3.1h5.86a3.84,3.84,0,0,1,4.13,3.1l20,67.16c.23.77-.08,1.15-.92,1.15H138.9c-.76,0-1.18-.31-1.26-.92l-5.4-18.37H103.77L98.26,288.9a1.27,1.27,0,0,1-1.26.92H91.71c-.84,0-1.11-.38-.8-1.15Zm-5.28,42.94h24.92L119,225.75c-.23-.69-.5-1-.8-1h-.58c-.38,0-.69.34-.92,1Z" transform="translate(-90.79 -218.06)"/><path class="cls-1" d="M216.63,219.55a1,1,0,0,1,1.15-1.15h4.82a1,1,0,0,1,1.15,1.15v48.34a20,20,0,0,0,1.32,7.81,11.69,11.69,0,0,0,3.79,4.93,15.17,15.17,0,0,0,6,2.59,37.12,37.12,0,0,0,7.75.75h.69a36.9,36.9,0,0,0,7.81-.75,15.09,15.09,0,0,0,5.91-2.59,11.69,11.69,0,0,0,3.79-4.93,20,20,0,0,0,1.32-7.81V219.55a1,1,0,0,1,1.15-1.15h4.82a1,1,0,0,1,1.15,1.15v48.34a27.69,27.69,0,0,1-1.84,10.85,16.85,16.85,0,0,1-5.16,6.89,19.8,19.8,0,0,1-8.16,3.61,51.51,51.51,0,0,1-10.79,1h-.69a51.58,51.58,0,0,1-10.79-1,19.81,19.81,0,0,1-8.15-3.61,16.87,16.87,0,0,1-5.17-6.89,27.87,27.87,0,0,1-1.84-10.85Z" transform="translate(-90.79 -218.06)"/><path class="cls-1" d="M351.77,288.67a1,1,0,0,1-1.15,1.15H345.8a1,1,0,0,1-1.15-1.15V218.41h28.82q9.87,0,14.06,5t4.2,14.75V240a32.78,32.78,0,0,1-.69,6.89,16.67,16.67,0,0,1-2.3,5.68,14.58,14.58,0,0,1-4.19,4.2,15.72,15.72,0,0,1-6.49,2.29l13.21,29.85c.23.62,0,.92-.58.92h-5.28a1.33,1.33,0,0,1-1.38-.92L371.52,260H351.77ZM384.61,238q0-6.56-2.7-9.93t-9.47-3.39H351.77v29.51h20.67q6.88,0,9.53-3.73t2.64-10.28Z" transform="translate(-90.79 -218.06)"/><rect class="cls-1" x="374.08" y="0.34" width="7.12" height="71.42" rx="1.15"/><path class="cls-1" d="M564.64,221.51a4.11,4.11,0,0,1,4.24-3.1h5.86a3.83,3.83,0,0,1,4.13,3.1l20,67.16c.23.77-.08,1.15-.92,1.15h-5.16c-.77,0-1.19-.31-1.27-.92l-5.39-18.37H557.63l-5.51,18.37a1.27,1.27,0,0,1-1.26.92h-5.28c-.85,0-1.11-.38-.81-1.15Zm-5.28,42.94h24.91l-11.37-38.7c-.23-.69-.49-1-.8-1h-.57c-.39,0-.69.34-.93,1Z" transform="translate(-90.79 -218.06)"/><path class="cls-1" d="M724.23,288.67c0,.85-.38,1.27-1.15,1.27h-4.82c-.77,0-1.15-.42-1.15-1.27V240.45a20.36,20.36,0,0,0-1.32-7.92,11.48,11.48,0,0,0-3.73-4.88,15.12,15.12,0,0,0-5.86-2.53,37.47,37.47,0,0,0-7.8-.75h-1a37.4,37.4,0,0,0-7.8.75,15.12,15.12,0,0,0-5.86,2.53,11.48,11.48,0,0,0-3.73,4.88,20.36,20.36,0,0,0-1.32,7.92v48.22c0,.85-.39,1.27-1.15,1.27h-4.82c-.77,0-1.15-.42-1.15-1.27V240.34a27.29,27.29,0,0,1,1.84-10.8,16.91,16.91,0,0,1,5.16-6.83,19.92,19.92,0,0,1,8.1-3.62,50.69,50.69,0,0,1,10.73-1h1a50.82,50.82,0,0,1,10.73,1,20.38,20.38,0,0,1,8.15,3.62,16.34,16.34,0,0,1,5.17,6.83,28.3,28.3,0,0,1,1.78,10.8Z" transform="translate(-90.79 -218.06)"/><path class="cls-1" d="M751.1,284.31a6.11,6.11,0,0,1-.42,2.32,5.48,5.48,0,0,1-1.14,1.74,5,5,0,0,1-1.67,1.08,5.28,5.28,0,0,1-2,.37,5.35,5.35,0,0,1-2-.37,4.92,4.92,0,0,1-1.65-1.08,5.33,5.33,0,0,1-1.15-1.74,6.62,6.62,0,0,1,0-4.64,5.23,5.23,0,0,1,1.15-1.74,4.92,4.92,0,0,1,1.65-1.08,5.36,5.36,0,0,1,2-.38,5.29,5.29,0,0,1,2,.38,5,5,0,0,1,1.67,1.08,5.37,5.37,0,0,1,1.14,1.74,6.07,6.07,0,0,1,.42,2.32m-1.11,0a5.42,5.42,0,0,0-.3-1.84,4.37,4.37,0,0,0-.85-1.42,3.56,3.56,0,0,0-1.29-.91,4.13,4.13,0,0,0-1.66-.32,4.08,4.08,0,0,0-1.65.32,3.56,3.56,0,0,0-1.29.91,4.37,4.37,0,0,0-.85,1.42,5.42,5.42,0,0,0-.3,1.84,5.32,5.32,0,0,0,.3,1.83,4.41,4.41,0,0,0,.85,1.43,3.69,3.69,0,0,0,1.29.91,4.26,4.26,0,0,0,1.65.32,4.31,4.31,0,0,0,1.66-.32,3.69,3.69,0,0,0,1.29-.91,4.41,4.41,0,0,0,.85-1.43,5.32,5.32,0,0,0,.3-1.83m-2.59,3a9.94,9.94,0,0,0-.78-1.3,9.22,9.22,0,0,0-.76-1h-1v2.28h-1.08v-5.91a7.9,7.9,0,0,1,.87-.14,8.39,8.39,0,0,1,.84,0,3.44,3.44,0,0,1,2,.48,1.7,1.7,0,0,1,.69,1.48,1.63,1.63,0,0,1-.3,1,1.91,1.91,0,0,1-.84.65c.1.12.22.28.35.46s.26.38.41.61.28.45.42.7a7.33,7.33,0,0,1,.39.73Zm-2.56-3.17h.58a2.89,2.89,0,0,0,1.14-.19.76.76,0,0,0,.46-.79.8.8,0,0,0-.43-.78,2.26,2.26,0,0,0-1.05-.22h-.35l-.35,0Z" transform="translate(-90.79 -218.06)"/><path class="cls-1" d="M306.09,376.77h-5.81V345.48h22.84v4.92h-17Zm-.45-16.85H321.2v4.82H305.64Z" transform="translate(-90.79 -218.06)"/><path class="cls-1" d="M341.09,376.77V345.48h5.81v26.37h16.36v4.92Z" transform="translate(-90.79 -218.06)"/><path class="cls-1" d="M394.86,377.21a18.5,18.5,0,0,1-6.73-1.2,16.21,16.21,0,0,1-5.39-3.4,15.54,15.54,0,0,1-3.53-5.12,17,17,0,0,1,0-12.78,15.36,15.36,0,0,1,3.53-5.1,16.31,16.31,0,0,1,5.37-3.37,18.21,18.21,0,0,1,6.75-1.21,18.54,18.54,0,0,1,6.7,1.19,15.62,15.62,0,0,1,5.34,3.35,15.09,15.09,0,0,1,3.51,5.12,17.14,17.14,0,0,1,0,12.85,15.58,15.58,0,0,1-8.85,8.49A18.54,18.54,0,0,1,394.86,377.21Zm0-5.09a11.38,11.38,0,0,0,4.35-.81,10.17,10.17,0,0,0,3.47-2.28,10.51,10.51,0,0,0,2.3-3.48,11.57,11.57,0,0,0,.83-4.43,11.71,11.71,0,0,0-.81-4.42,10,10,0,0,0-2.3-3.49,10.66,10.66,0,0,0-3.49-2.28,11.57,11.57,0,0,0-4.35-.8,12,12,0,0,0-4.41.8,10.34,10.34,0,0,0-3.51,2.3,11.27,11.27,0,0,0-2.32,3.49,11.76,11.76,0,0,0,0,8.78,11.24,11.24,0,0,0,2.32,3.51,10.05,10.05,0,0,0,3.51,2.3A11.84,11.84,0,0,0,394.86,372.12Z" transform="translate(-90.79 -218.06)"/><path class="cls-1" d="M430.16,376.77V345.48H443a17.52,17.52,0,0,1,7.13,1.32,10.18,10.18,0,0,1,4.58,3.82,10.85,10.85,0,0,1,1.61,6,10,10,0,0,1-6.19,9.7,17.35,17.35,0,0,1-7.13,1.34h-9.61l2.55-2.59v11.71ZM436,365.68l-2.55-2.81h9.34a8.77,8.77,0,0,0,5.79-1.66,5.72,5.72,0,0,0,1.94-4.6,5.65,5.65,0,0,0-1.94-4.58q-1.95-1.63-5.79-1.63h-9.34l2.55-2.87Zm14.66,11.09-7.92-11.36h6.22l7.95,11.36Z" transform="translate(-90.79 -218.06)"/><path class="cls-1" d="M481,371.85h17.66v4.92H475.17V345.48H498v4.92H481Zm-.44-13.36h15.55v4.78H480.54Z" transform="translate(-90.79 -218.06)"/><path class="cls-1" d="M527.15,377.21a23.11,23.11,0,0,1-7-1,15.88,15.88,0,0,1-5.34-2.7l2-4.52a15.94,15.94,0,0,0,4.65,2.46,16.71,16.71,0,0,0,5.67,1,12.13,12.13,0,0,0,4-.54,4.83,4.83,0,0,0,2.24-1.45,3.34,3.34,0,0,0,.71-2.08,2.86,2.86,0,0,0-1-2.3,7.5,7.5,0,0,0-2.66-1.39c-1.08-.34-2.29-.65-3.62-.94s-2.65-.63-4-1.05a17.48,17.48,0,0,1-3.65-1.58,7.13,7.13,0,0,1-3.66-6.69,8.46,8.46,0,0,1,1.36-4.67,9.38,9.38,0,0,1,4.16-3.39,17.08,17.08,0,0,1,7.08-1.28,22.15,22.15,0,0,1,5.59.72,16.07,16.07,0,0,1,4.83,2.05l-1.84,4.52a16.91,16.91,0,0,0-4.33-1.86,16.54,16.54,0,0,0-4.29-.6,11,11,0,0,0-3.89.58A4.67,4.67,0,0,0,522,352a3.51,3.51,0,0,0-.7,2.13,2.9,2.9,0,0,0,1,2.3,7.14,7.14,0,0,0,2.64,1.36c1.08.33,2.3.64,3.64.94s2.66.65,4,1.05a17.12,17.12,0,0,1,3.62,1.56,7.65,7.65,0,0,1,2.66,2.55,7.46,7.46,0,0,1,1,4.05,8.35,8.35,0,0,1-1.36,4.62,9.35,9.35,0,0,1-4.18,3.4A17.3,17.3,0,0,1,527.15,377.21Z" transform="translate(-90.79 -218.06)"/></svg>