<svg id="Layer_1" data-name="Layer 1" xmlns="http://www.w3.org/2000/svg" viewBox="0 0 667.32 160.39"><defs><style>.cls-1{fill:#b38c50;}</style></defs><path class="cls-1" d="M118.1,234.55a4.15,4.15,0,0,1,4.29-3.12h5.89a3.87,3.87,0,0,1,4.17,3.12l20.13,67.69c.23.78-.07,1.16-.92,1.16h-5.21c-.77,0-1.2-.31-1.27-.92L139.74,284H111l-5.55,18.52a1.28,1.28,0,0,1-1.27.92H98.89c-.85,0-1.12-.38-.81-1.16Zm-5.32,43.28h25.11l-11.46-39c-.23-.69-.5-1-.81-1h-.57c-.39,0-.7.35-.93,1Z" transform="translate(-97.96 -231.08)"/><path class="cls-1" d="M224.79,232.58a1,1,0,0,1,1.16-1.15h4.86a1,1,0,0,1,1.16,1.15V281.3a20.17,20.17,0,0,0,1.33,7.87,11.73,11.73,0,0,0,3.82,5,15.1,15.1,0,0,0,6,2.61,37.72,37.72,0,0,0,7.81.75h.7a37.49,37.49,0,0,0,7.87-.75,15.19,15.19,0,0,0,6-2.61,11.71,11.71,0,0,0,3.81-5,20.15,20.15,0,0,0,1.34-7.87V232.58a1,1,0,0,1,1.15-1.15h4.86a1,1,0,0,1,1.16,1.15V281.3a28.12,28.12,0,0,1-1.85,10.94,17.11,17.11,0,0,1-5.21,6.94,20,20,0,0,1-8.21,3.64,51.7,51.7,0,0,1-10.88,1.05h-.7a51.6,51.6,0,0,1-10.87-1.05,20.09,20.09,0,0,1-8.22-3.64,17.11,17.11,0,0,1-5.21-6.94,28.12,28.12,0,0,1-1.85-10.94Z" transform="translate(-97.96 -231.08)"/><path class="cls-1" d="M361,302.24a1,1,0,0,1-1.16,1.16H355a1,1,0,0,1-1.15-1.16V231.43h29q9.94,0,14.17,5t4.23,14.87v1.85a32.52,32.52,0,0,1-.7,6.94,16.75,16.75,0,0,1-2.31,5.73,14.78,14.78,0,0,1-4.22,4.23,15.87,15.87,0,0,1-6.54,2.31l13.31,30.09c.23.61,0,.92-.58.92h-5.33a1.37,1.37,0,0,1-1.39-.92l-12.61-29.16H361Zm33.09-51q0-6.59-2.72-10t-9.54-3.41H361v29.74h20.83q6.94,0,9.6-3.76t2.66-10.36Z" transform="translate(-97.96 -231.08)"/><rect class="cls-1" x="377.01" y="0.35" width="7.17" height="71.98" rx="1.16"/><path class="cls-1" d="M575.52,234.55a4.16,4.16,0,0,1,4.29-3.12h5.9a3.87,3.87,0,0,1,4.16,3.12L610,302.24c.23.78-.08,1.16-.93,1.16h-5.2c-.78,0-1.2-.31-1.28-.92L597.16,284h-28.7l-5.55,18.52a1.27,1.27,0,0,1-1.27.92h-5.33c-.85,0-1.11-.38-.81-1.16Zm-5.32,43.28h25.11l-11.45-39c-.24-.69-.51-1-.81-1h-.58c-.39,0-.7.35-.93,1Z" transform="translate(-97.96 -231.08)"/><path class="cls-1" d="M736.37,302.24c0,.86-.39,1.28-1.16,1.28h-4.86c-.77,0-1.16-.42-1.16-1.28V253.65a20.46,20.46,0,0,0-1.33-8,11.67,11.67,0,0,0-3.76-4.92,15.31,15.31,0,0,0-5.9-2.54,37.39,37.39,0,0,0-7.87-.76h-1a37.39,37.39,0,0,0-7.87.76,15.31,15.31,0,0,0-5.9,2.54,11.59,11.59,0,0,0-3.76,4.92,20.46,20.46,0,0,0-1.33,8v48.59c0,.86-.39,1.28-1.16,1.28h-4.86c-.77,0-1.16-.42-1.16-1.28V253.53a27.47,27.47,0,0,1,1.86-10.88,17.2,17.2,0,0,1,5.2-6.89,20.2,20.2,0,0,1,8.16-3.64,51.54,51.54,0,0,1,10.82-1h1a51.54,51.54,0,0,1,10.82,1,20.72,20.72,0,0,1,8.22,3.64,16.61,16.61,0,0,1,5.21,6.89,28.49,28.49,0,0,1,1.79,10.88Z" transform="translate(-97.96 -231.08)"/><path class="cls-1" d="M765.28,297.85a6.21,6.21,0,0,1-.43,2.34,5.38,5.38,0,0,1-1.15,1.75A5,5,0,0,1,762,303a5.43,5.43,0,0,1-4,0,5,5,0,0,1-1.67-1.08,5.22,5.22,0,0,1-1.15-1.75,6.58,6.58,0,0,1,0-4.68,5,5,0,0,1,1.15-1.75,4.88,4.88,0,0,1,1.67-1.09,5.43,5.43,0,0,1,4,0,4.92,4.92,0,0,1,1.68,1.09,5.18,5.18,0,0,1,1.15,1.75,6.18,6.18,0,0,1,.43,2.34m-1.13,0a5.4,5.4,0,0,0-.3-1.85,4.46,4.46,0,0,0-.85-1.44,3.79,3.79,0,0,0-1.31-.92,4.49,4.49,0,0,0-3.33,0,3.75,3.75,0,0,0-1.3.92,4.31,4.31,0,0,0-.86,1.44,5.4,5.4,0,0,0-.3,1.85,5.48,5.48,0,0,0,.3,1.85,4.37,4.37,0,0,0,.86,1.43,3.63,3.63,0,0,0,1.3.92,4.37,4.37,0,0,0,3.33,0,3.66,3.66,0,0,0,1.31-.92,4.52,4.52,0,0,0,.85-1.43,5.48,5.48,0,0,0,.3-1.85m-2.61,3a10.06,10.06,0,0,0-.78-1.31c-.3-.42-.55-.75-.76-1h-1v2.3h-1.09V295a6.07,6.07,0,0,1,.87-.14c.31,0,.59-.05.85-.05a3.43,3.43,0,0,1,2,.49,1.71,1.71,0,0,1,.69,1.49,1.66,1.66,0,0,1-.3,1,1.94,1.94,0,0,1-.85.65c.1.12.22.28.35.46s.27.39.41.62.29.46.43.7.27.49.39.74ZM759,297.71h.58a3,3,0,0,0,1.15-.19.77.77,0,0,0,.46-.8.78.78,0,0,0-.44-.78,2.26,2.26,0,0,0-1.05-.23h-.35l-.35,0Z" transform="translate(-97.96 -231.08)"/><path class="cls-1" d="M253.18,391.47a18.28,18.28,0,0,1-6.68-1.19,15.7,15.7,0,0,1-8.83-8.49,17.29,17.29,0,0,1,0-12.91,15.59,15.59,0,0,1,3.54-5.1,16.11,16.11,0,0,1,5.33-3.39,19.29,19.29,0,0,1,13.71.14,14,14,0,0,1,5.39,3.92L261.87,368a12,12,0,0,0-3.85-2.76,11.29,11.29,0,0,0-4.53-.92,12.09,12.09,0,0,0-4.5.81,10.44,10.44,0,0,0-3.54,2.29,10.56,10.56,0,0,0-2.36,3.49,12,12,0,0,0,0,8.87,10.6,10.6,0,0,0,2.36,3.5,10.27,10.27,0,0,0,3.54,2.28,12.09,12.09,0,0,0,4.5.81,11.29,11.29,0,0,0,4.53-.92,11.54,11.54,0,0,0,3.85-2.8l3.77,3.54a14.14,14.14,0,0,1-5.39,3.95A18.07,18.07,0,0,1,253.18,391.47Z" transform="translate(-97.96 -231.08)"/><path class="cls-1" d="M279.16,391l14.12-31.37H299L313.18,391H307l-12.1-28.27h2.33L285.13,391Zm6.5-7.26,1.62-4.57h16.89l1.57,4.57Z" transform="translate(-97.96 -231.08)"/><path class="cls-1" d="M329.53,391V359.65h14.74c3.74,0,6.59.74,8.57,2.22a7.05,7.05,0,0,1,3,5.94,7.59,7.59,0,0,1-1.16,4.28,7.79,7.79,0,0,1-3.12,2.73,9.45,9.45,0,0,1-4.23,1l.81-1.62a11.2,11.2,0,0,1,4.75,1,7.69,7.69,0,0,1,3.31,2.8,8.1,8.1,0,0,1,1.21,4.57,7.3,7.3,0,0,1-3.07,6.27c-2,1.5-5.08,2.24-9.12,2.24Zm5.83-4.57h9.45a9.54,9.54,0,0,0,5-1.08,4.25,4.25,0,0,0,0-6.87,9.34,9.34,0,0,0-5-1.1h-9.9v-4.53h8.69a8.57,8.57,0,0,0,4.66-1.07,3.58,3.58,0,0,0,1.66-3.23,3.63,3.63,0,0,0-1.66-3.27,8.48,8.48,0,0,0-4.66-1.08h-8.24Z" transform="translate(-97.96 -231.08)"/><path class="cls-1" d="M371.57,391l14.11-31.37h5.74L405.58,391h-6.14l-12.1-28.27h2.33L377.53,391Zm6.49-7.26,1.62-4.57h16.89l1.57,4.57Z" transform="translate(-97.96 -231.08)"/><polygon class="cls-1" points="323.98 159.94 323.98 128.57 329.8 128.57 329.8 155.01 346.2 155.01 346.2 159.94 323.98 159.94"/><polygon class="cls-1" points="363.19 159.94 363.19 128.57 369.01 128.57 369.01 155.01 385.41 155.01 385.41 159.94 363.19 159.94"/><rect class="cls-1" x="402.4" y="128.57" width="5.83" height="31.37"/><polygon class="cls-1" points="435.42 159.94 435.42 133.5 425.02 133.5 425.02 128.57 451.64 128.57 451.64 133.5 441.25 133.5 441.25 159.94 435.42 159.94"/><path class="cls-1" d="M581.06,391.47a18.35,18.35,0,0,1-6.74-1.21,15.87,15.87,0,0,1-5.4-3.41,15.22,15.22,0,0,1-3.54-5.13,16.91,16.91,0,0,1,0-12.81,15,15,0,0,1,3.54-5.11,16.36,16.36,0,0,1,5.37-3.39,19.71,19.71,0,0,1,13.49,0,15.73,15.73,0,0,1,5.36,3.36,15.17,15.17,0,0,1,3.51,5.14,17.09,17.09,0,0,1,0,12.88,15.43,15.43,0,0,1-3.51,5.13,15.63,15.63,0,0,1-5.36,3.38A18.61,18.61,0,0,1,581.06,391.47Zm0-5.11a11.72,11.72,0,0,0,4.37-.8,10.24,10.24,0,0,0,3.47-2.29,10.43,10.43,0,0,0,2.31-3.49,12.43,12.43,0,0,0,0-8.88,10,10,0,0,0-2.3-3.49,10.57,10.57,0,0,0-3.5-2.29,11.52,11.52,0,0,0-4.37-.81,11.84,11.84,0,0,0-4.41.81,10.07,10.07,0,0,0-3.52,2.31,11.24,11.24,0,0,0-2.33,3.49,11.37,11.37,0,0,0,2.33,12.33,10.07,10.07,0,0,0,3.52,2.31A12,12,0,0,0,581.06,386.36Z" transform="translate(-97.96 -231.08)"/></svg>