<svg id="Layer_1" data-name="Layer 1" xmlns="http://www.w3.org/2000/svg" viewBox="0 0 635.29 154.45"><defs><style>.cls-1,.cls-2{fill:#b38c50;}.cls-1{stroke:#b38c50;stroke-miterlimit:10;stroke-width:2.02px;}</style></defs><path class="cls-1" d="M122.84,224.2a3.92,3.92,0,0,1,4-3h5.58a3.66,3.66,0,0,1,3.93,3l19,64c.22.73-.07,1.09-.87,1.09h-4.93q-1.1,0-1.2-.87l-5.14-17.5H116.17l-5.25,17.5a1.2,1.2,0,0,1-1.2.87h-5c-.81,0-1.06-.36-.77-1.09Zm-5,40.89h23.72l-10.82-36.85c-.22-.66-.47-1-.77-1h-.54c-.37,0-.66.32-.88,1Z" transform="translate(-102.8 -219.91)"/><path class="cls-1" d="M223.65,222.34a1,1,0,0,1,1.09-1.1h4.59a1,1,0,0,1,1.1,1.1v46a19,19,0,0,0,1.25,7.43,11.11,11.11,0,0,0,3.61,4.7A14.46,14.46,0,0,0,241,283a35.72,35.72,0,0,0,7.38.7H249a35.64,35.64,0,0,0,7.44-.7,14.52,14.52,0,0,0,5.63-2.47,11.11,11.11,0,0,0,3.61-4.7,19.2,19.2,0,0,0,1.25-7.43v-46a1,1,0,0,1,1.1-1.1h4.59a1,1,0,0,1,1.09,1.1v46A26.38,26.38,0,0,1,272,278.7a16,16,0,0,1-4.92,6.56,18.83,18.83,0,0,1-7.76,3.44,48.93,48.93,0,0,1-10.28,1h-.65a48.93,48.93,0,0,1-10.28-1,18.83,18.83,0,0,1-7.76-3.44,16,16,0,0,1-4.92-6.56,26.38,26.38,0,0,1-1.75-10.33Z" transform="translate(-102.8 -219.91)"/><path class="cls-1" d="M352.34,288.16a1,1,0,0,1-1.1,1.09h-4.59a1,1,0,0,1-1.09-1.09V221.24H373q9.4,0,13.39,4.76t4,14.05v1.75a31.1,31.1,0,0,1-.66,6.56,16,16,0,0,1-2.19,5.41,13.79,13.79,0,0,1-4,4,14.78,14.78,0,0,1-6.18,2.19L390,288.38c.22.58,0,.87-.55.87h-5a1.28,1.28,0,0,1-1.31-.87l-11.92-27.56h-18.8Zm31.27-48.22q0-6.24-2.57-9.46t-9-3.22H352.34v28.1H372q6.56,0,9.07-3.56t2.52-9.78Z" transform="translate(-102.8 -219.91)"/><rect class="cls-1" x="357.24" y="1.34" width="6.78" height="68.01" rx="1.09"/><path class="cls-1" d="M555.05,224.2a3.92,3.92,0,0,1,4-3h5.58a3.66,3.66,0,0,1,3.93,3l19,64c.22.73-.08,1.09-.88,1.09h-4.92q-1.1,0-1.2-.87l-5.14-17.5H548.38l-5.25,17.5a1.2,1.2,0,0,1-1.2.87h-5c-.81,0-1.06-.36-.77-1.09Zm-5,40.89h23.72l-10.82-36.85c-.22-.66-.48-1-.77-1h-.54c-.37,0-.66.32-.88,1Z" transform="translate(-102.8 -219.91)"/><path class="cls-1" d="M707,288.16c0,.8-.36,1.2-1.09,1.2h-4.59c-.73,0-1.09-.4-1.09-1.2V242.23a19.54,19.54,0,0,0-1.26-7.54,11,11,0,0,0-3.56-4.65,14.49,14.49,0,0,0-5.57-2.4,35.6,35.6,0,0,0-7.44-.71h-1a35.43,35.43,0,0,0-7.43.71,14.47,14.47,0,0,0-5.58,2.4,11,11,0,0,0-3.55,4.65,19.35,19.35,0,0,0-1.26,7.54v45.93c0,.8-.37,1.2-1.1,1.2h-4.59c-.73,0-1.09-.4-1.09-1.2v-46a26,26,0,0,1,1.75-10.28,16.05,16.05,0,0,1,4.92-6.51,18.92,18.92,0,0,1,7.71-3.44,48.11,48.11,0,0,1,10.22-1h1a48.27,48.27,0,0,1,10.23,1,19.45,19.45,0,0,1,7.76,3.44,15.54,15.54,0,0,1,4.92,6.51A26.8,26.8,0,0,1,707,242.13Z" transform="translate(-102.8 -219.91)"/><path class="cls-2" d="M738.09,284a5.73,5.73,0,0,1-.41,2.21,4.84,4.84,0,0,1-1.09,1.66,4.65,4.65,0,0,1-1.58,1,5.25,5.25,0,0,1-3.77,0,4.65,4.65,0,0,1-1.58-1,4.84,4.84,0,0,1-1.09-1.66,6.31,6.31,0,0,1,0-4.42,4.9,4.9,0,0,1,1.09-1.65,4.5,4.5,0,0,1,1.58-1,5.12,5.12,0,0,1,3.77,0,4.5,4.5,0,0,1,1.58,1,4.9,4.9,0,0,1,1.09,1.65,5.73,5.73,0,0,1,.41,2.21M737,284a5.14,5.14,0,0,0-.29-1.75,4.34,4.34,0,0,0-.81-1.35,3.36,3.36,0,0,0-1.23-.87,4,4,0,0,0-1.57-.31,4.08,4.08,0,0,0-1.58.31,3.36,3.36,0,0,0-1.23.87,4.34,4.34,0,0,0-.81,1.35,5.43,5.43,0,0,0,0,3.5,4.27,4.27,0,0,0,.81,1.36,3.62,3.62,0,0,0,1.23.87,4.08,4.08,0,0,0,1.58.3,4,4,0,0,0,1.57-.3,3.62,3.62,0,0,0,1.23-.87,4.27,4.27,0,0,0,.81-1.36A5.14,5.14,0,0,0,737,284m-2.47,2.89a9.08,9.08,0,0,0-.75-1.24,11.27,11.27,0,0,0-.71-.94h-1v2.18h-1v-5.63a7.19,7.19,0,0,1,.83-.13,7.77,7.77,0,0,1,.8,0,3.27,3.27,0,0,1,1.9.46,1.63,1.63,0,0,1,.65,1.41,1.55,1.55,0,0,1-.28.93,1.83,1.83,0,0,1-.81.62c.1.11.21.26.34.43l.39.58.41.67c.13.23.25.47.36.7Zm-2.44-3h.56a2.83,2.83,0,0,0,1.08-.18.73.73,0,0,0,.44-.75.75.75,0,0,0-.42-.74,2.13,2.13,0,0,0-1-.21h-.33l-.34,0Z" transform="translate(-102.8 -219.91)"/><path class="cls-2" d="M305.73,374.36a13.8,13.8,0,0,1-5.07-.91,12,12,0,0,1-4.05-2.56A11.6,11.6,0,0,1,294,367a12,12,0,0,1-.94-4.79,12.13,12.13,0,0,1,.94-4.83,11.52,11.52,0,0,1,2.66-3.83,12.11,12.11,0,0,1,4-2.54,13.7,13.7,0,0,1,5.08-.91,14,14,0,0,1,5,.89,12,12,0,0,1,4,2.52,11.25,11.25,0,0,1,2.64,3.86,12.78,12.78,0,0,1,0,9.67,11.5,11.5,0,0,1-2.64,3.85,11.77,11.77,0,0,1-4,2.54A14,14,0,0,1,305.73,374.36Zm0-3.84a8.74,8.74,0,0,0,3.28-.6,7.67,7.67,0,0,0,2.6-1.72,8,8,0,0,0,1.74-2.62,9.32,9.32,0,0,0,0-6.66,7.54,7.54,0,0,0-1.73-2.62,7.7,7.7,0,0,0-2.62-1.72,8.74,8.74,0,0,0-3.28-.61,9,9,0,0,0-3.32.61,7.53,7.53,0,0,0-2.64,1.73,8.51,8.51,0,0,0,0,11.88,7.53,7.53,0,0,0,2.64,1.73A9,9,0,0,0,305.73,370.52Z" transform="translate(-102.8 -219.91)"/><path class="cls-2" d="M336.68,374H332.3V350.48h17.19v3.7H336.68Zm-.34-12.68h11.71V365H336.34Z" transform="translate(-102.8 -219.91)"/><path class="cls-2" d="M367.39,374H363V350.48h17.2v3.7H367.39Zm-.34-12.68h11.71V365H367.05Z" transform="translate(-102.8 -219.91)"/><path class="cls-2" d="M393.73,374V350.48h4.37V374Z" transform="translate(-102.8 -219.91)"/><path class="cls-2" d="M424.64,374.36a13.77,13.77,0,0,1-5-.89A12.29,12.29,0,0,1,413,357.41a11.77,11.77,0,0,1,2.66-3.84,12.08,12.08,0,0,1,4-2.54,14.59,14.59,0,0,1,10.3.1,10.44,10.44,0,0,1,4,2.94l-2.82,2.66a8.92,8.92,0,0,0-2.9-2.07,8.35,8.35,0,0,0-3.39-.69,9.16,9.16,0,0,0-3.38.61,7.67,7.67,0,0,0-2.66,1.72,8.08,8.08,0,0,0-1.77,2.62,9,9,0,0,0,0,6.66,8.08,8.08,0,0,0,1.77,2.62,7.82,7.82,0,0,0,2.66,1.72,9.16,9.16,0,0,0,3.38.6,8.35,8.35,0,0,0,3.39-.68,8.76,8.76,0,0,0,2.9-2.11l2.82,2.66a10.6,10.6,0,0,1-4,3A13.63,13.63,0,0,1,424.64,374.36Z" transform="translate(-102.8 -219.91)"/><path class="cls-2" d="M451.86,370.32h13.28V374H447.48V350.48h17.19v3.7H451.86Zm-.34-10.06h11.71v3.6H451.52Z" transform="translate(-102.8 -219.91)"/><path class="cls-2" d="M508.6,374V350.48H513V374Z" transform="translate(-102.8 -219.91)"/></svg>