<svg id="Layer_1" data-name="Layer 1" xmlns="http://www.w3.org/2000/svg" viewBox="0 0 542 542.16"><defs><style>.cls-1{fill:#fafafa;}</style></defs><path class="cls-1" d="M803.35,643c.21-8.86-3.38-15.9-10.61-20.63-4.89-3.2-6.62-7-6.42-12.72.33-9.57-3.24-17.89-11.31-23.19-5.12-3.37-7.19-7.25-6.6-13.1a77.66,77.66,0,0,0,0-7.93c0-5.1-1.23-10-4.61-13.75-3.26-3.62-3.89-7.59-3.87-12.15q.12-48.37,0-96.76V334.94c0-3.53-.2-7.14,2.58-9.93,4.69-4.71,6.15-10.5,5.9-16.94-.11-2.81,0-5.64,0-8.46,0-3.09,1.5-4.43,4.54-4.48,3.87-.05,7.75.16,11.62-.16,11.69-.94,18.65-8.39,18.68-19.94,0-4.93,0-9.87,0-14.8,0-21.41-.77-22.46-20.72-30.71q-104-43-208.05-86.09c-11.81-4.87-23.12-11.28-36.12-12.84H524.68a77.87,77.87,0,0,0-14.48,4.52c-33.76,14.16-67.65,28-101.45,42.06-45.17,18.81-90.43,37.42-135.62,56.17-6.26,2.59-10.6,6.7-11.77,13.62v32.79a15.66,15.66,0,0,0,7.78,11.85c4.72,2.84,9.83,3.55,15.22,3.53,12.36,0,11.45-1.11,11.3,11.43-.09,7.14,1,13.66,6.31,18.95,2,2,2.18,4.72,2.19,7.4,0,7.93,0,15.87,0,23.8q0,91.76,0,183.5c0,4.18-.57,7.83-3.62,11.15A19.06,19.06,0,0,0,295.71,565c.08,4.22,0,8.46,0,12.69a7.21,7.21,0,0,1-3.56,6.61c-10.4,6.47-15.06,15.93-14.39,28.08.2,3.66-1,6.39-4.24,8.41-6.89,4.31-11.51,10.22-12.15,18.65v27.51c1.36,6.05,6,5.82,10.75,5.82q259.8,0,519.58,0c.89,0,1.77,0,2.65,0,6.41-.18,8.87-2.59,9-9.08C803.4,656.78,803.2,649.9,803.35,643Zm-518-368.19c-4.62,0-6.95-.88-6-5.89a13.87,13.87,0,0,0,0-1.58c.33-5.06-2-11.18.93-14.87,2.66-3.39,8.52-4.32,13-6.19q115.17-47.74,230.34-95.5c6.14-2.55,11.72-2.05,17.74.45Q645.8,194.6,750.24,237.72c10,4.15,20,8.41,30.12,12.4,3.15,1.25,4.87,2.66,4.5,6.44a68.39,68.39,0,0,0,0,13.19c.42,4.41-1.37,5.08-5.29,5.07q-123.69-.15-247.37-.08Q408.77,274.74,285.36,274.84ZM695.58,565c2.65-2.7,8.31-.65,12.65-.79,4.56-.15,9.13,0,13.69,0,7.73,0,15.46.11,23.19,0,2.73-.05,3.5.78,3.59,3.55.46,14.12.55,14.11-13.6,14.11-11.94,0-23.88-.07-35.82.06-3.1,0-5-.28-4.55-4.18C695.27,573.35,693,567.67,695.58,565Zm7.89-231.36c0-3.57,1-4.4,4.43-4.31,8.8.23,17.61.28,26.41,0,4-.13,5.26.75,5.23,5.05-.2,34.53-.11,69.06-.11,103.59,0,34.18-.07,68.36.1,102.54,0,4.11-1,5.33-5.14,5.17-8.79-.35-17.61-.24-26.41,0-3.29.07-4.52-.59-4.52-4.27Q703.64,437.49,703.47,333.63ZM735.6,311H721.38c-7.56,0-15.11-.09-22.66.05-2.75.05-4-.43-4-3.66-.31-14-.44-14,13.55-14,12.12,0,24.24.12,36.36-.07,3.26,0,4.08.89,4.11,4.13C748.81,311,748.93,311,735.6,311ZM675.1,581c-2.86,2.47-9.4.76-14.32.76q-64.5,0-129,0c-46,0-92-.1-138,.12-5,0-6.35-1.48-5.87-6.13a86.65,86.65,0,0,0,.06-10.57c-.13-6.08-1.92-11.56-7-15.23-2.32-1.67-2.24-3.65-2.24-5.94q0-106.57,0-213.14c0-2.58.44-4.4,2.76-6.18,4.93-3.8,6.47-9.41,6.53-15.48.05-5.09-1.82-12.12.76-14.77,3.29-3.35,10.3-1.05,15.69-1.05q133-.09,266-.17c4.93,0,6.18,1.35,5.92,6-.29,5.07-.57,10.2.45,15.29.79,4,2.48,7.47,5.64,9.82,2.61,1.95,3.1,4.12,3.09,7.12q-.11,106,0,212.09c0,3-.54,5.16-3.15,7.12-3.83,2.87-5.43,7.24-6,11.93-.15,1.22-.07,2.47-.16,3.7C675.79,571.38,678.43,578.11,675.1,581ZM324.74,436.87c0-34,.12-68-.14-102,0-4.88,1.4-5.74,5.81-5.56,8.79.35,17.61.21,26.41,0,3-.06,3.86.75,3.86,3.8q-.12,104.39,0,208.77c0,3.21-1.18,3.75-4,3.71-9.16-.15-18.33-.26-27.48,0-3.78.12-4.58-1-4.57-4.65C324.79,506.29,324.74,471.58,324.74,436.87ZM356,311c-12.12,0-24.24-.1-36.35.07-3.23.05-4.12-.89-4.15-4.15-.12-13.53-.24-13.53,13.08-13.53h14.22c7.73,0,15.46.12,23.18-.06,2.79-.07,3.45.81,3.52,3.53C369.8,311,369.88,311,356,311Zm-27.38,253.2H342.8c7.55,0,15.11.2,22.65-.08,3.38-.13,4.28,1,4,4.13-.43,4.34,1.79,10-.82,12.72s-8.35.76-12.7.8c-11.94.12-23.89-.1-35.82.13-3.76.08-4.66-1.12-4.63-4.74C315.54,564.17,315.4,564.16,328.57,564.16Zm-23,36.11a39.76,39.76,0,0,1,4.23-.06H754.42c10,0,14.75,6.24,12.31,15.95-.32,1.26-.83,1.84-2.07,1.85H531.52q-113.13,0-226.27-.17c-2.53,0-7.58,3.34-7.81-3.35C297.12,605.48,299.62,600.91,305.58,600.27ZM784.81,652c-.24,1.5-.63,2.24-2.19,2.18s-2.82,0-4.23,0H532q-122.4,0-244.8-.12c-2.52,0-6.42,2.25-7.66-1.75-1.89-6.06.58-12.8,4.88-15a12.71,12.71,0,0,1,4-1.06,33.13,33.13,0,0,1,4.23,0h479C782.43,636.22,786.53,641.21,784.81,652Z" transform="translate(-261.36 -130.59)"/><path class="cls-1" d="M625.34,337.8A149.67,149.67,0,0,1,599.52,339c-21.12-1.26-40.27-7.43-55.93-22.46-7.72-7.42-15.43-7.31-23.22.22a73.84,73.84,0,0,1-22.29,14.76c-19.19,8.3-39.2,8.78-59.55,6.26-8-1-13.06,2-16.34,9.37a75.42,75.42,0,0,0-5.32,18.12c-4.27,25.55-2.64,51,3.29,76q20.55,86.64,103.17,120.64a21.92,21.92,0,0,0,17.31.17c31.53-12.58,57.49-32.3,77-60.2,22.84-32.72,31.43-69.68,31.9-109,.1-15.59-1.36-30.93-7.48-45.47C638.72,339.55,633.89,336.84,625.34,337.8Zm5.57,63.78c-.89,28.8-8.23,59-25.9,86.08-16.81,25.79-39.72,44.3-68.12,56.12a11.22,11.22,0,0,1-9.48,0c-47.8-20.47-77.34-56.31-89.38-106.65a187.38,187.38,0,0,1-4.33-60.79c0-.35,0-.71.06-1.05,1-5.87.51-12.92,4.33-17.09,4-4.39,10.89-.84,16.47-.74,27.38.49,52.58-5.71,74.05-23.55,2.62-2.17,4.07-2.43,6.84-.12,21.6,18,47,24.34,74.54,23.52,3.17-.1,6.53.32,9.46-.59,6.37-2,7.75,1.81,8.77,6.52C630.73,374.85,631.7,386.56,630.91,401.58Z" transform="translate(-261.36 -130.59)"/><path class="cls-1" d="M570.08,392.53c-4.61-1.13-7.65,1.28-10.24,4.74-14.64,19.57-29.37,39.08-43.93,58.72-2.12,2.85-3.55,3.71-6.11.56a67.88,67.88,0,0,0-7.08-7.11c-4.26-3.89-9.56-4-13.2-.32-3.79,3.81-3.8,8.87.32,13.14,5.75,6,11.68,11.74,17.53,17.59a9.78,9.78,0,0,0,6.63,3c3.79-.17,6.35-2.3,8.56-5.28,8.48-11.45,17.05-22.83,25.6-34.23,8.86-11.82,17.8-23.59,26.59-35.47C579.47,401.46,577.22,394.28,570.08,392.53Z" transform="translate(-261.36 -130.59)"/></svg>