<svg id="Layer_1" data-name="Layer 1" xmlns="http://www.w3.org/2000/svg" viewBox="0 0 494.28 494.36"><defs><style>.cls-1{fill:#f9f9f9;}</style></defs><path class="cls-1" d="M275.9,546c2.61-7.69,6-14.79,13.11-19.52,5.84-3.91,11.73-3.48,15.43,1.33s2.91,10.85-2.83,15.08c-6.84,5-4.58,11.91-4.89,18.74h81.56c0-4.23.42-8.39-.11-12.42-.62-4.61-4.69-7.4-10.36-7.5-8.84-.16-17.69,0-26.54-.07-10.72,0-14.11-3.45-14.11-14.2q0-192.55,0-385.1c0-27.79,16.87-48.22,44-53.31a42.81,42.81,0,0,1,7.68-.52c16.41,0,32.84.53,49.22-.15,27-1.12,54,19.88,53.94,53.14,0,9.17.17,9.17,8.59,12.45A51,51,0,0,1,523,201q.06,9.88,0,19.79c0,7.74-3.62,11.67-11.33,11.88-7.87.21-15.76.06-23.64.06-18.18,0-36.36,0-54.54,0-10.1,0-13.79-3.62-13.6-13.69.17-9.3-.5-18.85,1.37-27.84,4.17-20,16.76-33.1,36.45-39.11,1.08-.33,2.13-.74,4-1.4-.61-6.33-.47-13-2-19.29-3.36-13.44-14.89-21.87-29.76-22.12-16.89-.29-33.79-.35-50.67,0-18.63.39-31.06,13.2-31.07,31.58q0,188,0,375.93v4.09c4.93,0,9.73.4,14.44-.07,22.56-2.26,39.19,13.69,36.86,37.1a54.7,54.7,0,0,0,0,11.08c.66,6.15-1.74,10.51-6.82,13.66H275.9ZM441.21,211.75h60.73c1.37-14.41-.56-27.41-13.68-35.79-10.84-6.91-22.27-7-33.17-.19C441.74,184.12,439.5,197.13,441.21,211.75Z" transform="translate(-275.9 -88.29)"/><path class="cls-1" d="M653.3,582.65c-7.33-5.52-8.09-8.15-5.09-17.19,4.89-14.73,9.76-29.46,14.27-43.08-11.5-2-23.18-2.75-34.05-6.12-38.63-12-63.5-46.69-64.37-88.35q-.18-9.17,0-18.33c.15-8.66,3.83-12.24,12.44-12.25H708.33V392q0-43.43,0-86.84c0-16,11.29-29.22,26.53-31.22,16.19-2.11,30.67,7.93,34.5,24a29.81,29.81,0,0,1,.7,6.67q.08,30.15,0,60.3c0,7.16-4.23,12-10.33,12-5.85,0-10.28-4.7-10.33-11.61-.14-18.65,0-37.31-.08-56a44.81,44.81,0,0,0-.29-6.25,10,10,0,0,0-19.69-.09,23.48,23.48,0,0,0-.29,3.84q0,43.19,0,86.36c0,1.25.19,2.51.33,4.13,9.84,0,19.46,0,29.08,0,7.76,0,11.6,3.79,11.6,11.5,0,54-.05,108.06.1,162.1,0,5.59-2.72,8.88-6.84,11.71ZM592.07,459.09a70.26,70.26,0,0,0,19.33,24.78c15.16,12.41,32.77,16.77,52.08,16.35,18-.39,36-.18,54,0,7.31.07,11.65,4.48,11.39,10.84-.26,6.16-4.62,9.8-11.84,9.82-9.49,0-19,.09-28.46-.05-2.67,0-4,.72-4.77,3.41-2.63,8.58-5.61,17-8.44,25.57-1.29,3.87-2.55,7.74-3.85,11.7H749v-143H584.53c.32,6.78.62,13.15.93,19.9h6.4q61,0,122,0a40.64,40.64,0,0,1,6.72.4,9.73,9.73,0,0,1,8.24,9.3c.43,6.65-4.1,11-11.59,11q-59.57,0-119.15,0Z" transform="translate(-275.9 -88.29)"/><path class="cls-1" d="M440.84,263.27c0,3.21.09,6.42,0,9.63-.21,6.68-4.73,11.44-10.63,11.34s-10.17-4.7-10.33-11.14-.15-12.85,0-19.27S424.3,243,430.23,242.9s10.29,4.27,10.58,10.74C441,256.84,440.83,260.06,440.84,263.27Z" transform="translate(-275.9 -88.29)"/><path class="cls-1" d="M419.85,324.94c0-3.37-.18-6.75,0-10.11.4-6.12,4.84-10.24,10.64-10.15a10.17,10.17,0,0,1,10.21,10.06c.29,6.9.26,13.82,0,20.71A10.63,10.63,0,0,1,430.38,346c-5.53,0-10.14-4.45-10.5-10.48C419.68,332,419.85,328.48,419.85,324.94Z" transform="translate(-275.9 -88.29)"/><path class="cls-1" d="M419.85,386.75c0-3.37-.18-6.75,0-10.11.39-6.13,4.81-10.26,10.6-10.19a10.17,10.17,0,0,1,10.25,10c.29,7.05.29,14.13,0,21.18a10.51,10.51,0,0,1-10.31,10.12c-5.52.06-10.16-4.42-10.52-10.44C419.68,393.83,419.85,390.29,419.85,386.75Z" transform="translate(-275.9 -88.29)"/><path class="cls-1" d="M440.82,449.17c0,3.21.14,6.43,0,9.63-.32,6.29-5,10.93-10.71,10.76s-10-4.64-10.2-10.75c-.2-6.74-.23-13.5,0-20.23.22-6.19,4.65-10.36,10.43-10.36s10.1,4.18,10.45,10.36C441,442.1,440.82,445.64,440.82,449.17Z" transform="translate(-275.9 -88.29)"/><path class="cls-1" d="M440.83,510.6c0,3.21.11,6.43,0,9.63-.25,6.42-4.62,11-10.37,11.11s-10.38-4.54-10.56-10.9q-.28-9.86,0-19.74c.19-6.46,4.62-10.76,10.6-10.7,5.74.06,10,4.28,10.33,10.49C441,503.85,440.83,507.23,440.83,510.6Z" transform="translate(-275.9 -88.29)"/><path class="cls-1" d="M523,263.33c0,3.68.13,7.38,0,11.06a10.39,10.39,0,0,1-10,9.85c-5,.18-10-3.64-10.3-8.84a206.63,206.63,0,0,1,0-24c.34-5.51,5.29-8.89,10.89-8.49a10.09,10.09,0,0,1,9.33,9.83C523.09,256.27,523,259.8,523,263.33Z" transform="translate(-275.9 -88.29)"/><path class="cls-1" d="M523,325.15c0,3.52.1,7.06,0,10.58a10.44,10.44,0,0,1-10,10.29,10.09,10.09,0,0,1-10.35-9.36,213.53,213.53,0,0,1,.05-23.05c.33-5.67,4.95-9.14,10.55-8.93a10.05,10.05,0,0,1,9.76,9.88C523.09,318.09,523,321.62,523,325.15Z" transform="translate(-275.9 -88.29)"/><path class="cls-1" d="M523,387.08c0,3.52.1,7.06,0,10.58a10.39,10.39,0,0,1-9.69,10.11c-5.12.37-10.31-3.58-10.61-9a205.05,205.05,0,0,1,0-23.52c.33-5.61,5.07-9.05,10.67-8.77a10.07,10.07,0,0,1,9.62,10C523.08,380,523,383.55,523,387.08Z" transform="translate(-275.9 -88.29)"/><path class="cls-1" d="M523,449c0,3.37.09,6.74,0,10.11a10.46,10.46,0,0,1-9.89,10.42,10,10,0,0,1-10.46-9.21,206.09,206.09,0,0,1,0-23.05c.33-5.88,5.12-9.44,10.9-9.06,5.32.34,9.28,4.56,9.44,10.21C523.06,442,523,445.5,523,449Z" transform="translate(-275.9 -88.29)"/><path class="cls-1" d="M523,510.87c0,3.36.09,6.73,0,10.1A10.46,10.46,0,0,1,513,531.34a10.06,10.06,0,0,1-10.42-9.27,208.69,208.69,0,0,1,0-23.06c.34-5.85,5.17-9.4,11-9,5.3.37,9.23,4.61,9.39,10.27C523.06,503.81,523,507.34,523,510.87Z" transform="translate(-275.9 -88.29)"/><path class="cls-1" d="M461.24,284.19c0-3.53-.09-7.06,0-10.59a10.42,10.42,0,0,1,9.52-10.27c5.1-.46,10.45,3.45,10.75,8.84a202.28,202.28,0,0,1,0,24c-.35,5.51-5.33,8.89-10.91,8.46a10.09,10.09,0,0,1-9.31-9.86C461.13,291.25,461.24,287.72,461.24,284.19Z" transform="translate(-275.9 -88.29)"/><path class="cls-1" d="M481.63,346.24c0,3.84.35,7.73-.08,11.52-.63,5.58-5.2,9-10.8,8.65a10,10,0,0,1-9.47-9.68q-.25-10.82,0-21.65a10.28,10.28,0,0,1,9.79-10,10.11,10.11,0,0,1,10.45,8.67c.45,4.12.09,8.32.09,12.48Z" transform="translate(-275.9 -88.29)"/><path class="cls-1" d="M461.23,407.48c0-3.36-.07-6.73,0-10.1A10.43,10.43,0,0,1,471,386.87a10.12,10.12,0,0,1,10.63,9.57,207.41,207.41,0,0,1-.05,22.58c-.34,5.92-5,9.5-10.82,9.17a10.09,10.09,0,0,1-9.53-10.12C461.15,414.54,461.24,411,461.23,407.48Z" transform="translate(-275.9 -88.29)"/><path class="cls-1" d="M461.24,469.29c0-3.53-.11-7.06,0-10.58A10.38,10.38,0,0,1,471,448.64c5.14-.33,10.28,3.61,10.57,9.07a205.05,205.05,0,0,1,0,23.52c-.34,5.6-5.12,9-10.7,8.73a10.06,10.06,0,0,1-9.57-10.08C461.15,476.35,461.24,472.82,461.24,469.29Z" transform="translate(-275.9 -88.29)"/><path class="cls-1" d="M461.24,531c0-3.53-.11-7.07,0-10.59a10.37,10.37,0,0,1,9.8-10c5-.28,10.13,3.51,10.43,8.66a206.63,206.63,0,0,1,0,24c-.32,5.58-5.16,9-10.75,8.66a10.08,10.08,0,0,1-9.49-9.68C461.11,538.38,461.24,534.68,461.24,531Z" transform="translate(-275.9 -88.29)"/></svg>