<svg id="Layer_1" data-name="Layer 1" xmlns="http://www.w3.org/2000/svg" viewBox="0 0 1929.51 877.51"><defs><style>.cls-1{fill:#070708;}</style></defs><path class="cls-1" d="M491.11,25.31H898.89q372.93,0,372.93,258.1,0,101.94-60.64,165.16,98,65.82,98.07,197.44,0,256.8-372.93,256.8H491.11Zm162.6,152.28V387.93H941.48q87.74,0,126.46-25.81t38.71-78.71q0-54.21-38.71-80T941.48,177.59ZM978.9,750.53q87.74,0,126.47-25.81t38.7-78.71q0-54.19-38.7-80T978.9,540.19H653.71V750.53Z" transform="translate(-491.11 -25.31)"/><polygon class="cls-1" points="1334.65 362.25 1718.69 0 1497.38 0 1087.71 384.06 1087.71 0 933.05 0 933.05 877.51 1087.71 877.51 1087.71 592.66 1221.17 467.99 1528.62 877.51 1722.4 877.51 1334.65 362.25"/><path class="cls-1" d="M2420.62,860.59c0,23.66-18.57,42.23-42.74,42.23-23.91,0-43-18.57-43-42.23,0-23.15,19.08-41.72,43-41.72,24.17,0,42.74,18.57,42.74,41.72m-75,0c0,18.57,13.74,33.32,32.57,33.32,18.31,0,31.8-14.75,31.8-33.06,0-18.58-13.49-33.58-32.06-33.58s-32.31,15-32.31,33.32m25.7,21.88h-9.67V840.75a84,84,0,0,1,16-1.27c7.89,0,11.45,1.27,14.5,3a11.57,11.57,0,0,1,4.07,9.16c0,4.57-3.56,8.14-8.65,9.67v.5c4.07,1.53,6.36,4.58,7.64,10.18,1.26,6.35,2,8.9,3,10.43h-10.43c-1.28-1.53-2-5.34-3.31-10.17-.77-4.59-3.31-6.62-8.65-6.62h-4.58Zm.26-23.66h4.57c5.35,0,9.67-1.78,9.67-6.1,0-3.82-2.8-6.37-8.9-6.37a22.56,22.56,0,0,0-5.34.52Z" transform="translate(-491.11 -25.31)"/></svg>