<svg id="Layer_1" data-name="Layer 1" xmlns="http://www.w3.org/2000/svg" viewBox="0 0 795.34 319.13"><defs><style>.cls-1,.cls-2{fill:#f9f9f9;}.cls-1{stroke:#f9f9f9;stroke-linecap:round;stroke-miterlimit:10;stroke-width:27px;}</style></defs><line class="cls-1" x1="353.34" y1="149.39" x2="377.69" y2="149.39"/><path class="cls-2" d="M923.55,333c0,17.89.42,35.79-.11,53.66-.59,19.57-10.17,34.48-27.77,42.5-17.32,7.88-35.64,13.57-53.4,20.54-2.19.86-4.19,3.42-5.28,5.68-12.81,26.48-33.51,42.21-62.72,46.24-33.78,4.66-68.24-14.51-82.13-46-2.21-5-4.81-6.16-9.78-6.15q-170.31.18-340.61,0c-5.23,0-7.4,1.77-9.66,6.44-14.5,30.11-39.08,46.54-72.18,46.36-32.57-.18-57.26-16.12-71.82-45.81-2.59-5.29-5.16-7.23-10.9-7-11.13.44-22.29.31-33.43.07-11.59-.25-15.14-4.06-15.14-15.45,0-26.19.52-52.39-.16-78.55-.6-23.37,10.3-40,29.39-51a300.2,300.2,0,0,1,125.43-39.59c7.48-.65,15-.77,22.45-1.65a29.82,29.82,0,0,0,9.33-3.18c31.77-15.59,62.76-33.05,95.38-46.58,65.32-27.08,134.28-33.35,204.21-29.11,69.2,4.2,134.31,23.44,194.14,58.7,15.83,9.34,33,9.43,49.82,12.39,17.31,3.05,34.81,5,52.17,7.78,9.45,1.51,12.84,5.66,12.92,15.29.15,18.15,0,36.3,0,54.45ZM551.46,290c-2.2-.11-3.71-.24-5.23-.24-77.5,0-155-.29-232.49.09a288.25,288.25,0,0,0-139,35.79c-11.64,6.38-19.51,15.33-20.25,29.08-.52,9.56-.52,19.15-.59,28.73-.1,12.63,0,25.26,0,38.12h25.92c2.89-46.29,37-75.67,74.46-78.7a75.81,75.81,0,0,1,51.27,14.32c22,15.67,33.13,37.65,34.71,64.5H551.46Zm133,131.8c.78-22.47,9-41.7,25.1-56.91s35.47-22.76,57.85-22.18c40.35,1.05,67.08,27.7,77.73,78.36,13.42-5.65,26.91-10.8,39.91-17,8.82-4.19,11.84-12.63,11.95-22,.14-11.15,0-22.3,0-33.44V329.51h0c0-9.26-.36-17.65-.36-27h0V288.22c-18.43-2.65-36.53-5.69-54.73-7.76-17.66-2-34.59-5.32-49.45-16-5.61-4-12.44-6.33-18.39-10-4.46-2.72-7.23-1.64-10.56,1.92-7.26,7.75-15.39,14.72-22.36,22.71s-15,11.08-25.82,10.93c-42.5-.58-85-.24-127.53-.24H579.3V421.83Zm79.89,53.34a53,53,0,0,0,53-52.55c.35-28.53-23.77-52.67-52.9-52.93-28.77-.25-52.69,23.69-52.74,52.81A52.34,52.34,0,0,0,764.4,475.17ZM207.3,423a52.64,52.64,0,0,0,105.28-.84c-.17-29.17-24.13-52.87-53-52.43A52.9,52.9,0,0,0,207.3,423Zm535.21-182.5c-53.74-21.11-107.39-30.84-163.21-30.07v52.85c46,0,91.35,0,136.7-.11a8.79,8.79,0,0,0,5.31-2.45C728.16,254.39,734.81,247.86,742.51,240.47Zm-191-29.33c-65.46,3-126.11,20.07-184.92,51.62H551.5Z" transform="translate(-128.44 -183.14)"/></svg>