<svg id="Layer_1" data-name="Layer 1" xmlns="http://www.w3.org/2000/svg" viewBox="0 0 1811.7 1833.36"><defs><style>.cls-1{fill:#808980;stroke:#808980;stroke-miterlimit:10;stroke-width:13.43px;}</style></defs><path class="cls-1" d="M1999.4,509.22q-94.35.52-188.68.95a123.31,123.31,0,0,1-34.58-4.4Q1379.93,394,983.51,283.09c-10.19-2.85-14.83-8.24-19.09-17.14-13.53-28.23-37-42.61-68-42-30.39.55-53.84,15.8-64.89,43.69-6,15.26-15.38,21.13-28.9,26.49Q529.91,402.11,257.4,510.7c-15.76,6.26-22.79,16.9-22.68,33.68.36,51.8.29,103.61.36,155.41,0,35.22,8.29,43.54,43.55,43.56q153.47,0,306.93,0c43.52,0,43.52,0,44,43.93.34,28.93,9.68,38.17,39.27,38.3,32.69.14,65.39.51,98.06-.22,11.59-.26,15.59,2.2,15.57,14.89q-.57,496.77-.1,993.56c0,10.33-1.43,14.18-13.42,15.34-87,8.43-146.82,68.65-155.52,155-2.56,25.35,9.2,39.58,33.8,39.6q250.72.19,501.45,0c23.49,0,33.83-10.85,33.59-33.89-.85-82.61-63.59-150.06-151.17-160.3-14.21-1.66-16.37-5.7-16.34-18.42q.63-247,.28-494c0-164.66.21-329.33-.37-494-.05-14.79,4.06-18.33,18.24-17.86,32.65,1.06,65.37.62,98,.23,25.36-.3,35.81-11.18,36-36.22.09-9.87,1.14-19.9-.25-29.56-2.13-14.89,4.47-16.8,17.44-16.67,65.3.63,130.61.29,195.92.29,119,0,238.08.3,357.12-.35,16.22-.09,21.74,3.1,21.65,20.83q-1.2,224.79-.15,449.6c0,13-3,20.26-14.75,27.45-45.55,28-53.72,93.86-11.37,125.51,25.65,19.17,27.58,39.31,26,65.06-.3,4.92-.09,9.87,0,14.8.3,25.73,5.92,32.56,30.75,37.4,22.22,4.33,33.28,15.26,34.73,34.3,1.25,16.54-8.8,32.25-24.07,37.58-17.9,6.26-33.68.24-45.84-17.48-12.78-18.62-28.15-23.09-43.41-12.62-13.9,9.54-15.84,26.32-5.11,44.17,20.43,34,60.66,52,99.92,44.6,36.81-6.9,69.78-40.59,75.46-77.14,6.59-42.36-13.34-81.86-51.62-101.33-7.82-4-16.47-6.45-13.76-18,3.06-13-7.44-28.25,10.94-39,56.12-32.73,55.58-107.15-.52-140.54-8-4.8-10.83-9.25-10.82-18.34q.42-230.36-.11-460.7c0-13.48,4.37-16.24,16.8-16.1,54.89.6,109.79.5,164.68.14,25.44-.16,35.89-11,36-36.19q.39-82.32.3-164.66C2033,522.25,2019.27,509.12,1999.4,509.22ZM881.86,417.39c.87-19.63.23-39.33.23-59h.12c0-18.44.2-36.88-.08-55.31-.16-10.95,2-20,15-20.79s16.35,7.35,16.37,18.9q.13,58.05,1.07,116.09c.24,15.79-11.38,8.88-18.36,9.72C889.6,427.81,881.29,430.11,881.86,417.39ZM300.34,686.06c-8,.06-6.74-5.25-6.75-10,0-22.76,0-45.52,0-72.39L386.14,686C354.87,686,327.6,685.84,300.34,686.06Zm152.89-17.31c-36.4-33-73.19-65.54-111.69-99.88H581.59c-38.72,34.37-75.64,66.75-112,99.76C463.06,674.57,459.55,674.47,453.23,668.75ZM621,686H536.9l91.32-81.23c0,27.65-.05,51.55,0,75.45C628.27,685.43,625,686,621,686Zm8.57-216.7c-.16,40.94-.16,40.94-41.15,40.94H425.2c-.28-1.15-.55-2.31-.82-3.46l399.43-159c0,25.39-.26,48.6.1,71.79.19,12-8.43,8.2-14.19,8.23-46.17.24-92.35.1-138.52.15C638.24,428,629.74,436.49,629.6,469.28Zm394.86,1437.88c38.74.28,78.35,30,92.35,66.2,3.24,8.36,3.85,12.14-7.07,12.13q-216.39-.3-433-.13c9.87-42.8,50.88-77.72,94.27-78.14C855.52,1906.4,940,1906.55,1024.46,1907.16Zm-67.76-68.41c.08,7.22-2.27,9.49-9.43,9.38-23.76-.36-47.54-.14-75.18-.14l84.47-104.53C956.56,1779,956.37,1808.86,956.7,1838.75ZM840.47,1528.09c28.21,34.74,54.21,66.34,79.68,98.35,9.34,11.72,26.42,22.66,25.23,35.9-1.11,12.32-16.47,23.44-25.76,34.93-25.5,31.52-51.1,63-79.15,97.49Zm-.11-165.69V1098.24c10,6.65,15,15.79,21.34,23.5,26.5,32.38,52.58,65.11,79.22,97.37,5.22,6.33,7.34,10.46,1.15,18C908.82,1277.33,876.19,1318.1,840.36,1362.4Zm115.35,215.84c-35.8-44.25-69.32-85.75-102.94-127.16-3-3.64-4.89-6.42-1.12-11,34-41.65,67.86-83.47,104.06-128.09Zm-.11-432.73c-35.58-44-69.05-85.43-102.71-126.73-3.71-4.55-4.32-7.7-.31-12.59,33.78-41.19,67.3-82.61,103-126.56Zm-116-214.69c0-35.9,0-66.88,0-97.86,0-6,3.85-6.69,8.57-6.68,24.29.05,48.58,0,76,0Zm253.06-163.09q-195.15-.74-390.32,0c-13.24,0-16.11-3.69-16-16.42q.9-124.79,0-249.57c-.11-13.32,3.86-16.11,16.46-16,64.74.64,129.49.3,194.24.3,65.36,0,130.73.41,196.08-.34,13.33-.16,15.93,3.83,15.84,16.39q-.89,124.85,0,249.68C1109.09,765.05,1105.4,767.78,1092.69,767.73ZM1130.85,428c-47.49-.3-95-.72-142.45.29-14.43.3-17.81-4.23-17-17.69a481.74,481.74,0,0,0,.05-55.46c-.69-13.38,2.89-15.11,15.59-11.48,104.32,29.85,208.84,59,313.34,88.24q131,36.68,262.1,73.1h0c5.88-1,10.14,2.76,15,7.74h-28q-182,0-364-.18c-6.12,0-13.74,3.62-18.34-4.19h0c0-14.8,0-29.6-.16-44.4C1166.8,439.09,1156.18,428.17,1130.85,428Zm43.86,258.07c-7.27.06-7.6-3.82-7.57-9.27.13-24.5,0-49,0-77L1273.61,686C1237.9,686,1206.3,685.82,1174.71,686.09Zm185.46-13.59c-4.08,3.31-7.36,3.31-11.37,0-41.84-34-83.76-68-128.19-104h267.81C1443.83,604.62,1402,638.5,1360.17,672.5Zm76,12.88c44.27-35.81,86.08-69.39,127.54-103.4,6.63-5.45,10.71-2.8,15.82,1.35,40.92,33.28,81.92,66.48,125.78,102ZM1787.2,1331c-13.51.09-24.09-10-23.82-22.6.28-12.37,11.91-23.64,24.31-22.83,13.78.91,21.17,9.55,22.66,22.46C1811.81,1320.61,1800.76,1330.87,1787.2,1331Zm22-671.77c-22.14,17.92-22.23,17.92-44.18.13-36.46-29.54-72.86-59.16-112-90.94h268C1882,600.09,1845.62,629.68,1809.17,659.19Zm156.52,26.89c-31.08-.22-62.16-.1-97.67-.1l106.21-86c0,28.08-.2,53,.12,77.84C1974.44,684.55,1971.81,686.12,1965.69,686.08Z" transform="translate(-228.01 -217.18)"/><path class="cls-1" d="M1555,510.14a13.6,13.6,0,0,0-1.61-.12h-2A19.07,19.07,0,0,0,1555,510.14Z" transform="translate(-228.01 -217.18)"/><path class="cls-1" d="M1555,510.14c3.43.44,7.82,1.49,7.56-5.12C1560.52,508.73,1557.84,509.93,1555,510.14Z" transform="translate(-228.01 -217.18)"/><path class="cls-1" d="M1551.34,510a62.11,62.11,0,0,0-7-.79q-126.69.47-253.39.16c-41.27-.07-82.53-.65-123.8-1,1.69.7,3.22,1.68,5.2,1.68Q1361.87,510.4,1551.34,510Z" transform="translate(-228.01 -217.18)"/></svg>