<svg id="Layer_1" data-name="Layer 1" xmlns="http://www.w3.org/2000/svg" viewBox="0 0 687 686.77"><defs><style>.cls-1{fill:#fafafa;}</style></defs><path class="cls-1" d="M909.34,518.24c-5.42-48.71-25.6-90.42-59.55-125.58-11-11.35-10.89-11.16-21.55.53-2.94,3.22-2.84,4.79.35,7.67,7.33,6.59,14.36,13.54,20.41,22.38-6.13,0-11.29.26-16.4-.08-4-.28-5.7,1.08-7,5.07-6.75,21.39-14,42.62-20.84,64-1,3.06-2.35,4.9-5.44,5.87-13.35,4.2-26.67,8.46-39.94,12.91-2.91,1-4.92.47-7.31-1.31-12.89-9.58-25.8-19.14-39-28.35-3.25-2.28-4-4.73-3.92-8.31.16-13,.33-25.94-.07-38.89-.15-4.69,1.68-7.24,5.19-9.76,17.75-12.77,35.33-25.78,53.09-38.53,2.94-2.11,4.23-3.78,2.58-7.57-2.14-4.92-3.41-10.22-5-15.33,1.82-.81,3.16,0,4.64.57a186.48,186.48,0,0,1,28.66,14.23c4,2.35,44.45,34.27,47.69,33.55,3.46-.76,5.48-7,8.63-10.43,3.56-3.84-33.5-32.88-37.54-35.52-46.6-30.52-97.62-42.44-152.37-32.95C594,344.65,542,383.74,509,447.57c-6.73,13-6.36,12.76,6.82,18.73,5.32,2.41,6.73,1.11,8.83-3.78,8.19-19.07,8.4-18.88,26.48-18.58,3.38.06,5,.84,6.12,4.32,5,16.13,10.16,32.21,15.74,48.13,1.38,3.94.18,5.5-2.71,7.54-10.58,7.45-21,15.11-31.49,22.71-12.93,9.37-12.84,9.24-25.78.15-3.28-2.3-5-4.19-3.9-8.56a150,150,0,0,0,3-18.43c.56-4.55,18.92-53.94,16-57.33-2.59-3-8.6-2.88-12.9-4.64-4.07-1.66-19.48,43.16-20.71,47.76-9.42,35-10.17,70.07-1.44,105.19,21.36,85.91,88.59,148,177,160.56,22,3.13,81.26,3,82.57-12.72.45-5.53-64.5-7.24-72-7-11.23.28-22.17-2.82-34.09-6.34,5-3.64,9-6.77,13.21-9.54,3.42-2.24,4.5-4.32,3-8.72-7.14-21-13.69-42.27-20.59-63.38-1-3.19-1.15-5.58,1.15-8.49,5.66-7.17,11-14.65,16.15-22.18,1.86-2.71,3.93-3.57,7.16-3.55,21.46.14,42.92.17,64.38,0a8,8,0,0,1,7.6,4c4.78,7,9.73,13.9,14.93,20.59,2.59,3.32,3.19,6.13,1.78,10.34-7.06,21-13.57,42.27-20.56,63.34-1.2,3.65-.64,5.54,2.52,7.56,4.61,3,8.89,6.42,14.09,10.24-12.11,3.32-23.15,5.53-34.43,6.25-10.76.69-10.77.56-10.37,11.58a37,37,0,0,1,.07,5.36c-.42,3.55.91,4.7,4.49,4.38,10-.92,19.92-2.14,29.8-4,79.45-14.77,147.34-81,164.41-160.09,1.8-8.33,1.93-17,5.2-25V537.07c-2.08-3.13-2.17-6.26,0-9.39V521C909.19,520.52,909.45,519.29,909.34,518.24Zm-84.51-22c4.71-13.86,9.21-27.81,13.8-41.72C842.08,444,842.09,444,854.27,444c7.73-2.74,11.37,2.7,14.86,9.7A209.68,209.68,0,0,1,889,518.41c.49,3.45-.31,5.73-3.24,7.9-13.27,9.85-13.2,9.94-26.88.1-10.49-7.56-20.86-15.29-31.53-22.58C824.14,501.63,823.66,499.64,824.83,496.21ZM651.63,371.44a16.91,16.91,0,0,0,1.53-5.09c1.18-10.17,7.47-13.72,17-14.43s19.1-1.77,29.46-1.63c11.33-.31,23.28,1,35.18,3,4.34.73,6.76,2.61,8.12,7.18,4.34,14.68,4.56,14.59-7.79,23.54-10.82,7.86-21.69,15.66-32.37,23.71-2.8,2.11-4.73,2.13-7.53,0q-20.65-15.36-41.58-30.36C651.32,375.74,650.31,374.21,651.63,371.44Zm-79.06,57.47c-1.34-4.24-3.07-6.29-7.86-5.79-5,.52-10.06.12-16.39.12,23-28.83,50.65-48.76,84.83-61.59-1.75,5.62-2.69,10.42-4.7,14.73-2.39,5.11-.71,7.6,3.57,10.64,17.66,12.5,34.94,25.54,52.53,38.15a8.78,8.78,0,0,1,4.18,8.25q-.32,20.1,0,40.22c0,3.53-1.13,5.67-4,7.71-12.9,9.19-25.64,18.59-38.38,28-2.71,2-5.07,2.61-8.55,1.39-12.77-4.45-25.69-8.53-38.61-12.53-3.52-1.09-5.3-3.1-6.4-6.55C586.12,470.73,579.17,449.87,572.57,428.91ZM637.89,706.2c-13,11.89-13.78,12-29.07,3.84a198,198,0,0,1-50.12-38.53c-2.76-2.9-2.94-5.35-1.82-8.79,5-15.45,5-15.46,21.31-15.48,13.16,0,26.33,0,39.49-.15,2.69,0,4.43.3,5.38,3.32,5.33,16.91,10.86,33.76,16.32,50.63a9.26,9.26,0,0,1,.3,1.31C640.1,704.63,638.89,705.28,637.89,706.2Zm8.23-109.37c-6.43,8.56-12.82,17.16-18.89,26-2.3,3.33-4.85,4.28-8.81,4.24-21.89-.2-43.79,0-65.68-.16-4.18,0-6.42.8-7.4,5.32-1.11,5.09-3.3,9.94-5.29,15.68-19.89-30.43-30.69-62.74-32.18-99.43,5.29,3.79,9.84,6.55,13.78,10,3.23,2.83,5.5,2.09,8.52-.11,17.82-13,35.8-25.84,53.56-39,3.22-2.38,5.83-3,9.72-1.6,10,3.58,20.23,6.66,30.4,9.82a7.61,7.61,0,0,1,5.66,5.65c5.83,18.63,12,37.16,18.14,55.69C648.66,592,648,594.33,646.12,596.83Zm99.73-60.37q-8,23.67-15.22,47.56c-1.21,4-3.17,5.09-7.08,5-8.25-.26-16.53-.08-24.79-.08-8.49,0-17-.12-25.47.06-3.21.07-4.64-1-5.63-4.16-5.11-16.31-10.48-32.53-15.86-48.76-1-3-.76-5.07,2.2-7.16q20.76-14.65,41.15-29.85c2.73-2,4.55-2.49,7.46-.3q20.34,15.24,41,30C746.86,531,747,533,745.85,536.46Zm93.91,134.78a192.27,192.27,0,0,1-61.36,44.41c-2.29,1.05-4.09,1.48-6-.41a7.1,7.1,0,0,0-1.07-.8c-13.88-9.65-13.86-9.65-8.64-25.84,3.95-12.26,7.94-24.5,11.69-36.81,1-3.16,2.06-4.79,5.82-4.74,17.2.25,34.4.16,51.6.2,1.77,0,3.85-.38,4.59,1.78,2,5.88,3.86,11.82,5.84,18C842.56,668.89,840.94,670,839.76,671.24Zm18.12-23c-2.68-7.71-3.17-16.3-7.68-20.07s-13.29-1-20.18-1.11q-25.47-.21-50.95,0c-3.69,0-6.11-.9-8.28-4.09-6-8.85-12.36-17.5-18.82-26-2.1-2.78-2.59-5-1.42-8.47,6.16-18.31,12-36.71,17.76-55.16,1-3.22,2.78-4.66,5.76-5.58,10.17-3.15,20.4-6.18,30.4-9.83,3.93-1.44,6.57-.82,9.73,1.5,17.27,12.67,34.78,25,51.94,37.83,4.36,3.25,7.5,4.25,11.8.07,3.28-3.19,7.45-5.48,12.09-8.78C888.46,585,878,617.58,857.88,648.19Z" transform="translate(-223.61 -66.25)"/><path class="cls-1" d="M369.39,302.24c5.52-.42,8.89-1.84,7.31-8.25-1.16-4.74.94-5.89,5.61-5.85q40.21.35,80.45,0c4.7,0,5.56,1.46,5,5.71-1.72,14.17-4.13,28.17-8.33,41.84-1.42,4.6-5.91,10.15-3.8,13.41,2.3,3.54,8.9,4.18,13.47,6.4,3.38,1.65,4.64,1,6-2.68,7.09-19.12,11.77-38.74,12.81-59.11.23-4.42,1.54-5.61,5.87-5.56,19.21.23,38.44.26,57.65,0,4.64-.06,5.47,1.57,5.4,5.71-.23,13-.09,25.93-.09,38.89,0,15.57,0,15.4,15.84,15.31,4.23,0,5.2-1.26,5.14-5.31-.23-16.32.05-32.64-.18-49-.06-4.24.93-5.71,5.46-5.64,17.65.27,35.31.11,53,.11,9.88,0,9.85,0,10.51,9.55.16,2.22.64,4.41,1,6.62,1.71,11.72,1.68,11.44,13.24,9.92,6.72-.88,10.13-2.82,7.29-10.33-1.14-3-.5-6.69-1.24-9.93-1.12-4.9.62-6,5.38-5.94,25.47.23,51,.11,76.43.11,10.09,0,10.09,0,9,10.22,0,.22-.05.45-.07.67-2,15.58-2,15.5,13.16,17.81,3.65.56,5.1-.47,5.69-4.22a215.1,215.1,0,0,0-8.52-103c-4.66-13.93-4.54-13.45-18.14-8.51-5.85,2.13-5.4,4.5-3.6,9.08a180.06,180.06,0,0,1,11.78,52.55c.29,4-1,4.76-4.66,4.74q-40.9-.21-81.8,0c-4.19,0-5.34-1-4.84-5.18,1.94-16.63,4.89-33,10.63-48.79,8-22.16,19.46-42.35,35.19-60.22a177.58,177.58,0,0,1,15.84,21.18c2.52,3.92,24.13,49,27.2,49.51,3.87.67,8.51-3.92,13-5.82,4.33-1.85-15.14-42.19-17.51-46.15Q705.78,96.54,621,73c-11.51-3.18-23.41-4-35-6.71h-1.34c-2.68,2.29-5.36,1.89-8,0H547.12c-6,2.45-40.25,10.15-46.45,11.52-16.9,3.76-16.79,3.61-11.13,20.09,1,3,1.92,3,4.61,2.38,9.77-2.2,47.37-12.08,57.4-12.94,5-.42,5.34,1.31,5.32,5.35-.16,21.9-.08,43.8-.08,65.7,0,34.65,0,69.29.08,103.93,0,3.78-.46,5.45-4.94,5.38-19.66-.28-39.33-.22-59,0-3.91,0-4.81-1.32-4.95-5a144.23,144.23,0,0,0-1.76-18c-6.31-38.43-21.78-72.73-46.82-102.59-2.44-2.91-2.39-4.36.45-6.86a203.14,203.14,0,0,1,46.64-30.88c4.51-2.17,11.79-2.39,12.88-6.84,1-4.12-3.09-9.39-4.69-14.24-1.1-3.33-2.57-3.6-5.79-2.31A212.36,212.36,0,0,0,355.66,290.71C356.39,303.41,356.66,303.22,369.39,302.24ZM577.68,177.12c0-27.7.13-55.4-.12-83.09,0-5.22.53-7.22,6.65-6.64,41.95,4,78.53,20,110.24,47.56,3,2.66,3.17,4.12.48,7.34-27.61,33-43.38,71.11-48.29,113.8-1.31,11.45-1.33,11.45-13.26,11.45-16.52,0-33-.2-49.57.13-4.9.09-6.32-1-6.27-6.13C577.83,233.4,577.68,205.26,577.68,177.12Zm-201.07,85a191.09,191.09,0,0,1,37-97.87c8.58-11.72,8.68-11.66,17.23-.09,21.66,29.32,33.58,62.3,37.06,98.49.36,3.7-.29,5-4.36,5-13.83-.25-27.66-.1-41.5-.1-13.38,0-26.77-.18-40.15.11C377.44,267.75,376.22,266.56,376.61,262.14Z" transform="translate(-223.61 -66.25)"/><path class="cls-1" d="M910.61,537.07v-9.39A13.66,13.66,0,0,0,910.61,537.07Z" transform="translate(-223.61 -66.25)"/><path class="cls-1" d="M584.67,66.25h-8.16C577.56,68.79,583.8,70,584.67,66.25Z" transform="translate(-223.61 -66.25)"/><path class="cls-1" d="M245.41,462a11,11,0,0,1,3.13-9.56C290,408,340.05,378.65,399.31,364.85c5.17-1.21,8.77-.31,12.86,2.65a329.88,329.88,0,0,1,61.25,57.78c2.95,3.57,5.95,10.05,8.83,10,4-.06,7.81-5.32,12-7.77s3.65-4.21,1-7.63C461.7,376.6,420.46,342.83,370.64,320c-25.28-11.59-51.56-19.8-80-17.63-13.38,1-25,5.92-34.33,15.85-8.84,9.43-14.6,20.63-19.32,32.54-1.51,3.81-12.6,41.18-8.49,42.27,4.7,1.26,9.74,5.07,13.74,4.1s15.5-43.45,17.53-47.6c11.6-23.66,22.48-28.95,48.15-26.7,19.65,1.71,38.19,8.13,56,16.57,5.43,2.57,11.23,4.53,16.33,9-51.95,15-96.71,41-136.56,79.34,1.29-12.78,1.93-23.72,3.59-34.51,2-13.16,2.25-12.59-11-16-6.32-1.63-7.43.81-8.29,5.77a306,306,0,0,0,.24,104.62c11.19,64.77,38.44,121.89,82.94,170.56,10.29,11.25,10,11.18,20.76.81,3.51-3.4,3.73-5.2.16-8.87C281.11,597.62,253.43,534.35,245.41,462Z" transform="translate(-223.61 -66.25)"/><path class="cls-1" d="M520.66,698.14a31.16,31.16,0,0,1-4.14-2.15c-3-2.16-4.88-1.63-6.54,1.81-8.94,18.43-24.64,23-43.55,21.08a161.72,161.72,0,0,1-38.86-9.1c-12-4.36-23.83-9.33-35.56-16.5a314.72,314.72,0,0,0,79.37-34.38c12.73-7.66,12.55-7.57,4.27-20.23-2.5-3.82-4.12-4.32-8.09-1.74-24.38,15.85-50.39,28.34-78.59,35.7s-17.51,9-40.89-8.47c-12.95-9.68-47.85-47.21-58.46-35-2.14,2.46,33.23,40.9,35.61,42.89,39.77,33.08,82.92,59.5,135.29,66.75,25.85,3.58,49-1.46,64.24-25.56C531,703.42,531.19,703.54,520.66,698.14Z" transform="translate(-223.61 -66.25)"/><path class="cls-1" d="M435.57,569.3c13.82-7.91,13.59-8,4.77-21.74-1.84-2.87-3-2.76-5.67-1.31-4.61,2.47-9.54,8.29-13.78,6.45-4-1.73-5.78-8.52-8.46-13.12-4.79-8.24-4.77-8.25,3.59-13.12,9-5.25,9-5.25,3.88-14.09s-5.09-8.82-14.06-3.67c-8.45,4.85-8.55,4.91-13.25-3.54-2.67-4.79-8.32-9.66-7.08-14.34,1-3.59,8-5.55,12.34-8.23a3.42,3.42,0,0,1,.59-.33c2.94-1.16,2.91-3,1.11-5.13-3.58-4.29-3.65-11.28-10.19-13.26-.28-.09-.72.48-1.12.67-4.94,2.35-10.25,8.66-14.26,6.84-4.33-2-6.25-9.23-9.22-14.19a10.3,10.3,0,0,1-1-1.75c-1.09-3.06-2.77-2.38-5.06-1.18C344,462.05,344,462,352.31,476.47a20,20,0,0,0,1.67,2.89c2.5,3,1.07,4.56-1.8,6-3.56,1.83-6.95,4-10.45,5.94-5.55,3.06-.79,6.3.68,7.87,3.1,3.32,1.62,11.82,9.46,9.74,5.23-1.39,10.17-8.57,14.32-6.66,4.33,2,6.25,9.24,9.22,14.19a24.1,24.1,0,0,0,1.64,2.9c2.54,3.09,2.12,4.94-1.6,7-4.34,2.4-11.47,3.76-12,8.13-.49,4.13,4.4,8.82,6.67,13.39,1.58,3.17,3.15,3.45,6.16,1.52,4.24-2.71,9.57-7.42,13.19-6.48,4.42,1.16,5.65,8.46,8.62,12.88.49.73.83,1.59,1.39,2.27,3.84,4.72,2.75,7.43-2.72,10.29-11.35,5.91-10.9,6.11-4.93,17.33,2.83,5.33,5.34,7.48,10.65,3,2.34-2,5.47-3,8-4.76,2.25-1.56,3.33-1.12,4.58,1.2,2.63,4.9,5.58,9.63,8.34,14.46.64,1.12,1,2.43,2.55,2.52.46-.24.86-.44,1.24-.66,5-2.94,11.6-4.83,14.35-9.18,2-3.19-4-8.11-5.95-12.52a12.8,12.8,0,0,0-1.69-2.88C431.28,573.61,431.49,571.64,435.57,569.3Z" transform="translate(-223.61 -66.25)"/></svg>