<svg id="Layer_1" data-name="Layer 1" xmlns="http://www.w3.org/2000/svg" viewBox="0 0 749.86 584.02"><defs><style>.cls-1{fill:#f9f9f9;}.cls-2{fill:none;stroke:#f9f9f9;stroke-linecap:round;stroke-linejoin:round;stroke-width:17px;}</style></defs><path class="cls-1" d="M839.16,506.86c-5.86-4.42-6.47-6.52-4.07-13.76,3.91-11.78,7.81-23.57,11.42-34.46-9.2-1.6-18.55-2.2-27.25-4.9-30.91-9.59-50.81-37.37-51.5-70.7-.1-4.89-.09-9.78,0-14.67.12-6.93,3.07-9.79,10-9.79H883.19v-4.29q0-34.74,0-69.48c0-12.81,9-23.39,21.22-25,13-1.7,24.54,6.34,27.61,19.24a23.86,23.86,0,0,1,.56,5.34q.06,24.12,0,48.25c0,5.72-3.39,9.6-8.27,9.58-4.68,0-8.22-3.76-8.26-9.29-.12-14.92,0-29.85-.07-44.78a36.25,36.25,0,0,0-.23-5,8,8,0,0,0-15.76-.07,19.74,19.74,0,0,0-.23,3.07q0,34.56,0,69.1c0,1,.16,2,.26,3.31,7.88,0,15.57,0,23.27,0,6.22,0,9.28,3,9.28,9.2,0,43.24,0,86.47.08,129.71,0,4.47-2.17,7.11-5.47,9.37Zm-49-98.87a56.06,56.06,0,0,0,15.47,19.83c12.13,9.93,26.22,13.42,41.67,13.08,14.4-.31,28.82-.14,43.23,0,5.84.05,9.31,3.58,9.1,8.67-.2,4.93-3.69,7.85-9.47,7.86-7.59,0-15.18.07-22.77,0-2.14,0-3.16.57-3.82,2.72-2.1,6.87-4.49,13.65-6.75,20.47-1,3.09-2,6.19-3.08,9.36h62V375.48H784.13c.26,5.43.5,10.52.75,15.92H790q48.82,0,97.65,0a32.13,32.13,0,0,1,5.38.32,7.79,7.79,0,0,1,6.6,7.44c.33,5.32-3.29,8.8-9.28,8.81H790.17Z" transform="translate(-183.58 -36.49)"/><path class="cls-1" d="M653.3,460.38V589.74c-.36,1-.8,1.91-1.08,2.9A37.52,37.52,0,0,1,605.71,619c-16-4.52-26.46-18.61-27-36.26-.1-3.6,0-7.21,0-10.8H258.55c-.35,6.44,0,12.66-1.15,18.56-3.77,18.78-21.24,31.72-39.35,29.78-20.42-2.18-34.4-17.45-34.42-37.7,0-37.62-.12-75.23,0-112.84.1-24.66,8.67-46.26,24.73-64.86a12.17,12.17,0,0,0,3.18-8.61q-.14-70.63,0-141.28a78.27,78.27,0,0,1,.87-13.7c5.75-32.34,32.12-54.83,64.86-54.88q140.34-.21,280.68,0c18.95,0,35.17,7.09,48.1,21,12.22,13.17,17.49,29,17.45,46.87-.1,46.48,0,93-.09,139.44a12.44,12.44,0,0,0,3.51,9.38,98,98,0,0,1,23.23,42.57C651.45,450.55,652.27,455.49,653.3,460.38ZM202,498.18h6.07q119.46,0,238.93,0c2.13,0,152.36,0,154.41.52a9.06,9.06,0,0,1-.17,17.74c-2.21.47-152.59.53-154.87.53q-119.24,0-238.48,0h-5.66v35.73H634.64V517h-5.77q-41.05,0-82.09,0a26.49,26.49,0,0,1-5.91-.53,8.78,8.78,0,0,1-7-9.81c.46-5.33,4.45-8.44,11.09-8.45q42.19,0,84.39,0h6.1c-.53-13.75.23-27-1.77-39.9-6.39-41-40.61-69.58-82.25-69.7-24-.07-48,0-72,0q-97,0-194,0c-34.18,0-63.83,19.72-76.92,50.41C200.42,458,202.06,477.82,202,498.18Zm28.44-113c5.65-2.74,10.61-5.42,15.81-7.53,2.79-1.13,3.53-2.64,3.47-5.46-.17-8.1-.07-16.21-.06-24.31,0-29.9,21-51.22,50.85-51.44,25.68-.2,51.36-.11,77.05,0a49.74,49.74,0,0,1,33.58,12.48c2.62,2.28,5.29,4.51,8.08,6.9-.05.05.48-.47.94-1,10-12.07,22.91-18.15,38.39-18.3,26.14-.25,52.29-.34,78.43,0,29.45.38,50.15,21.74,50.2,51.13,0,8.41-.06,16.82.07,25.23,0,1.31.58,3.31,1.51,3.8,5.08,2.63,10.36,4.89,16,7.47v-4.36c0-42.05-.42-84.1.14-126.14A47.91,47.91,0,0,0,556.41,205c-92.65.45-185.29.17-277.94.19a49.67,49.67,0,0,0-9.13.54c-23.82,4.5-39,22.79-39,47.12q-.11,64,0,128C230.29,382.17,230.4,383.51,230.48,385.19ZM269.1,370H409.19c0-9.34.5-17.75-.1-26.09-1.2-16.72-13.84-28.51-30.5-28.61q-40.56-.24-81.1.06c-13.46.1-26.24,9.91-28.1,23.14C267.92,349.06,269.1,360,269.1,370Zm159.32.17H568.51a10.49,10.49,0,0,0,.24-2c-.06-8.4.49-16.87-.39-25.18-1.82-17.06-14.05-27.68-31.21-27.74-26.73-.09-53.46-.14-80.18.09-14.06.12-26.66,10.61-28.32,24.5C427.5,349.45,428.42,359.29,428.42,370.16ZM202.14,571.87c0,4.63-.45,9.07.09,13.37,1.19,9.42,8.53,16.17,17.29,16.53,9.84.41,17.92-5.28,19.61-14.74.86-4.83.15-9.93.15-15.16Zm395.14,0c0,3.72,0,7.19,0,10.65.08,10.25,7.11,18.43,16.47,19.21,10.71.9,19.21-5.4,20.82-16.05.67-4.42.11-9,.11-13.81Z" transform="translate(-183.58 -36.49)"/><rect class="cls-2" x="493.52" y="8.5" width="247.84" height="456.47"/><circle class="cls-2" cx="617.44" cy="159.97" r="52.43"/></svg>