<svg id="Layer_1" data-name="Layer 1" xmlns="http://www.w3.org/2000/svg" viewBox="0 0 654.72 498.96"><defs><style>.cls-1{fill:#fafafa;}</style></defs><path class="cls-1" d="M901.18,281.34c-4.69-4.83-10.5-7.89-16.43-10.78q-126-61.51-252-123c-31-15.15-62.28-15.27-93.33-.51Q410,208.6,280.68,270.49c-11.29,5.38-20.65,12.36-25.37,24.38v12.79c6.59,14.59,19.49,21.59,33.2,27.63,1.94.85,3.75,2,5.75,2.7,3.5,1.13,4.65,3.14,4.63,6.95q-.25,55,0,110c0,3.27-.66,5.13-3.88,6.92-25.59,14.25-26.13,48.39-1,63.62,3.47,2.1,3.43,3.7,2.38,7-5.92,18.33-11.63,36.73-17.4,55.11Q271.6,611,264.22,634.63h94.44a20.08,20.08,0,0,0-.39-2.2q-15.66-49.68-31.41-99.32c-1.16-3.65-1.22-5.59,2.8-7.9,24.07-13.84,24-48.88-.13-62.63-3.93-2.24-5.29-4.31-5.27-8.68.18-31.54.09-63.08.13-94.63,0-1.78-.63-3.73.87-5.85,11.19,5.52,22.24,11.27,33.57,16.39,4.17,1.89,5.29,4.23,5.28,8.6-.16,49-.05,98-.17,147.05a17.84,17.84,0,0,0,4.3,12.24,264.16,264.16,0,0,0,103.51,75.62c55.7,22.82,113.27,27.34,171.94,15,60.16-12.6,110.58-42.31,150.75-89.1a22.53,22.53,0,0,0,5.69-15.66c-.18-47.95,0-95.9-.2-143.85,0-4.8,1.05-7.4,5.75-9.64,26.41-12.56,52.6-25.59,78.85-38.5a75,75,0,0,0,14.19-8.49C912.83,311.79,913.82,294.37,901.18,281.34Zm-128.81,247c-33.81,37.56-75.24,62.92-124.2,74.61-79.68,19-153.85,6.28-220.75-42.37a217.73,217.73,0,0,1-35.26-32.32,10.42,10.42,0,0,1-3.08-7.34q.14-67.44.08-134.88a23.15,23.15,0,0,1,.44-2.7c26.61,12.74,52.55,25.22,78.55,37.59,26.59,12.65,52.78,26.32,80,37.45,27.05,11.07,54.8,9.94,81.47-3.07q70-34.14,139.89-68.44c1.84-.9,3.72-1.72,6.29-2.9v6.87q0,63.93.06,127.85A13.1,13.1,0,0,1,772.37,528.3ZM874.47,310q-41,20.31-82.18,40.37-85.54,41.78-171.16,83.44c-23.65,11.49-47.62,11.42-71.22.18q-94.11-44.85-188-90.21c-2-1-4.08-2-7.41-3.61,30-3.57,58.54-7,87-10.34q40.21-4.74,80.46-9.38c19.64-2.28,39.29-4.49,58.93-6.78a25.45,25.45,0,0,0,5.59-1.27,11.52,11.52,0,0,0,7.59-13.17c-1-5.38-5.55-9.78-11.21-9.31-13.77,1.14-27.49,2.8-41.21,4.39q-35.16,4.08-70.31,8.31-41.16,4.88-82.33,9.77c-23,2.72-46,5.38-69.05,8.14a19.22,19.22,0,0,1-11.59-2.31c-7.51-3.92-15.3-7.3-22.9-11-2.44-1.2-5.55-2.75-5.5-5.59s3.29-4.23,5.76-5.42q38-18.42,76.13-36.74Q456.18,214.12,550.5,169c23.4-11.13,47.26-11.22,70.69.19q126.6,61.63,253.06,123.57c4.26,2.09,10.94,3.39,11,8.47S878.76,307.85,874.47,310Z" transform="translate(-255.31 -136.08)"/></svg>