<svg id="Layer_1" data-name="Layer 1" xmlns="http://www.w3.org/2000/svg" viewBox="0 0 377.73 475.22"><defs><style>.cls-1{fill:#f9f9f9;}</style></defs><path class="cls-1" d="M536.35,655c-5.44-.88-10.9-1.64-16.32-2.66C459.92,641,415.21,608,385.37,555.08c-19.45-34.47-26.65-71.91-21.45-111.3,3.18-24.12,10.46-47,24.94-67,7.11-9.81,15.74-17.87,27.75-21.36a31.58,31.58,0,0,1,7.3-1.16c10.3-.44,16.57,6.73,15.61,17.08-1.81,19.47-1.81,38.93,3.19,58a69.81,69.81,0,0,0,6.43,15.75c3.39,6.14,9,8.85,16.25,8.57,4.55-.17,6.25-2.26,5.95-6.25-.55-7.54-.79-15.17-2.24-22.55a440.18,440.18,0,0,1-7.73-105.15c1.2-26.07,5.7-51.51,17.86-75.06,14.54-28.17,37-47,67-56.94,17.17-5.67,34.84-8,52.87-8,12.62,0,19,10,13.64,21.39-7.74,16.35-11.79,33.32-9.95,51.58,2.29,22.63,12.34,41.39,28.93,56.33,9.7,8.74,20.78,16,31.42,23.66,34,24.51,58.45,56,71.25,96.19,6.37,20,6.66,40.43,4.07,61a186.48,186.48,0,0,1-16.93,57.42,188.94,188.94,0,0,1-51.18,65.06,185,185,0,0,1-83.79,39.28c-7.7,1.48-15.54,2.25-23.32,3.34ZM409.63,395.86c-1.34,2.21-2.45,3.84-3.36,5.58-16,30.56-19.42,63-12.5,96.3,7.71,37.11,26.71,68,56,92,35.78,29.25,76.86,41.6,123.07,35.62a153.09,153.09,0,0,0,68.88-26.46C678.61,573.09,701.55,538,709.5,493.5c2.92-16.36,3.92-32.85-.08-49.23-8.95-36.64-30.64-64.64-60.14-87C636,347.25,621.39,339,609.55,327c-29.68-30.07-40.89-65.65-32.53-107.21.68-3.38,1.42-6.74,2.18-10.38a19.56,19.56,0,0,0-2.84,0c-3.34.57-6.69,1.12-10,1.84-30.19,6.61-52.33,23.36-65,51.91-6.71,15.12-10.09,31.15-11.29,47.48a397.6,397.6,0,0,0,4.9,98.8,276.22,276.22,0,0,1,4,40.9c.28,11.19-4.71,20.7-15,26.49-15.68,8.86-37.37,5.89-50.68-7C422.1,459,416.76,445.05,414,430.13,412,419.09,411.12,407.83,409.63,395.86Z" transform="translate(-362.29 -179.72)"/></svg>