<svg xmlns="http://www.w3.org/2000/svg" xmlns:xlink="http://www.w3.org/1999/xlink" width="300" zoomAndPan="magnify" viewBox="0 0 224.87999 74.999997" height="100" preserveAspectRatio="xMidYMid meet" version="1.0"><defs><g/></defs><g fill="#ffffff" fill-opacity="1"><g transform="translate(4.952044, 58.968763)"><g><path d="M 44.484375 -46.5625 C 45.015625 -46.5625 45.28125 -46.304688 45.28125 -45.796875 L 45.28125 -0.703125 C 45.28125 -0.191406 45.015625 0.0625 44.484375 0.0625 L 40.90625 0.0625 C 40.394531 0.0625 40.140625 -0.191406 40.140625 -0.703125 L 40.140625 -16.09375 L 11.6875 -16.09375 L 11.6875 -0.703125 C 11.6875 -0.191406 11.429688 0.0625 10.921875 0.0625 L 7.375 0.0625 C 6.84375 0.0625 6.578125 -0.191406 6.578125 -0.703125 L 6.578125 -45.796875 C 6.578125 -46.304688 6.84375 -46.5625 7.375 -46.5625 L 10.921875 -46.5625 C 11.429688 -46.5625 11.6875 -46.304688 11.6875 -45.796875 L 11.6875 -20.625 L 40.140625 -20.625 L 40.140625 -45.796875 C 40.140625 -46.304688 40.394531 -46.5625 40.90625 -46.5625 Z M 44.484375 -46.5625 "/></g></g></g><g fill="#ffffff" fill-opacity="1"><g transform="translate(56.803621, 58.968763)"><g><path d="M 3.28125 -23.125 C 3.28125 -25.820312 3.675781 -28.375 4.46875 -30.78125 C 5.257812 -33.1875 6.382812 -35.382812 7.84375 -37.375 C 9.300781 -39.363281 11.023438 -41.082031 13.015625 -42.53125 C 15.003906 -43.976562 17.203125 -45.097656 19.609375 -45.890625 C 22.015625 -46.679688 24.554688 -47.078125 27.234375 -47.078125 C 29.921875 -47.078125 32.46875 -46.679688 34.875 -45.890625 C 37.28125 -45.097656 39.476562 -43.976562 41.46875 -42.53125 C 43.457031 -41.082031 45.179688 -39.363281 46.640625 -37.375 C 48.097656 -35.382812 49.222656 -33.1875 50.015625 -30.78125 C 50.816406 -28.375 51.21875 -25.820312 51.21875 -23.125 C 51.21875 -20.457031 50.816406 -17.925781 50.015625 -15.53125 C 49.222656 -13.132812 48.097656 -10.953125 46.640625 -8.984375 C 45.179688 -7.015625 43.457031 -5.3125 41.46875 -3.875 C 39.476562 -2.4375 37.28125 -1.320312 34.875 -0.53125 C 32.46875 0.25 29.921875 0.640625 27.234375 0.640625 C 24.554688 0.640625 22.015625 0.25 19.609375 -0.53125 C 17.203125 -1.320312 15.003906 -2.4375 13.015625 -3.875 C 11.023438 -5.3125 9.300781 -7.015625 7.84375 -8.984375 C 6.382812 -10.953125 5.257812 -13.132812 4.46875 -15.53125 C 3.675781 -17.925781 3.28125 -20.457031 3.28125 -23.125 Z M 8.375 -23.125 C 8.375 -21.03125 8.6875 -19.039062 9.3125 -17.15625 C 9.9375 -15.28125 10.816406 -13.566406 11.953125 -12.015625 C 13.097656 -10.472656 14.457031 -9.132812 16.03125 -8 C 17.601562 -6.863281 19.335938 -5.988281 21.234375 -5.375 C 23.128906 -4.769531 25.128906 -4.46875 27.234375 -4.46875 C 29.347656 -4.46875 31.351562 -4.769531 33.25 -5.375 C 35.144531 -5.988281 36.875 -6.863281 38.4375 -8 C 40 -9.132812 41.351562 -10.472656 42.5 -12.015625 C 43.65625 -13.566406 44.546875 -15.28125 45.171875 -17.15625 C 45.796875 -19.039062 46.109375 -21.03125 46.109375 -23.125 C 46.109375 -25.25 45.796875 -27.253906 45.171875 -29.140625 C 44.546875 -31.023438 43.65625 -32.753906 42.5 -34.328125 C 41.351562 -35.898438 40 -37.253906 38.4375 -38.390625 C 36.875 -39.535156 35.144531 -40.414062 33.25 -41.03125 C 31.351562 -41.65625 29.347656 -41.96875 27.234375 -41.96875 C 25.128906 -41.96875 23.128906 -41.65625 21.234375 -41.03125 C 19.335938 -40.414062 17.601562 -39.535156 16.03125 -38.390625 C 14.457031 -37.253906 13.097656 -35.898438 11.953125 -34.328125 C 10.816406 -32.753906 9.9375 -31.023438 9.3125 -29.140625 C 8.6875 -27.253906 8.375 -25.25 8.375 -23.125 Z M 8.375 -23.125 "/></g></g></g><g fill="#ffffff" fill-opacity="1"><g transform="translate(111.286014, 58.968763)"><g><path d="M 56.265625 -1.015625 C 56.328125 -0.296875 56.019531 0.0625 55.34375 0.0625 L 52.09375 0.0625 C 51.488281 0.0625 51.15625 -0.265625 51.09375 -0.921875 L 48.25 -32.703125 L 31.359375 -0.3125 C 31.191406 -0.0195312 31.03125 0.191406 30.875 0.328125 C 30.726562 0.472656 30.53125 0.546875 30.28125 0.546875 L 30.25 0.546875 C 30.03125 0.546875 29.84375 0.472656 29.6875 0.328125 C 29.539062 0.191406 29.375 -0.0195312 29.1875 -0.3125 L 12.296875 -32.703125 L 9.484375 -0.921875 C 9.398438 -0.265625 9.0625 0.0625 8.46875 0.0625 L 5.234375 0.0625 C 4.535156 0.0625 4.226562 -0.296875 4.3125 -1.015625 L 8.4375 -46.28125 C 8.5 -46.8125 8.785156 -47.078125 9.296875 -47.078125 L 9.421875 -47.078125 C 9.691406 -47.078125 9.875 -47.015625 9.96875 -46.890625 C 10.070312 -46.773438 10.195312 -46.601562 10.34375 -46.375 L 30.28125 -8.328125 L 50.234375 -46.375 C 50.359375 -46.601562 50.472656 -46.773438 50.578125 -46.890625 C 50.691406 -47.015625 50.882812 -47.078125 51.15625 -47.078125 L 51.25 -47.078125 C 51.757812 -47.078125 52.039062 -46.8125 52.09375 -46.28125 Z M 56.265625 -1.015625 "/></g></g></g><g fill="#ffffff" fill-opacity="1"><g transform="translate(171.825405, 58.968763)"><g><path d="M 39.4375 -4.890625 C 39.84375 -4.890625 40.160156 -4.785156 40.390625 -4.578125 C 40.628906 -4.378906 40.75 -4.109375 40.75 -3.765625 L 40.75 -0.953125 C 40.75 -0.660156 40.648438 -0.425781 40.453125 -0.25 C 40.265625 -0.0820312 40.007812 0 39.6875 0 L 7.5625 0 C 6.90625 0 6.578125 -0.328125 6.578125 -0.984375 L 6.578125 -45.53125 C 6.578125 -46.15625 6.90625 -46.46875 7.5625 -46.46875 L 39 -46.46875 C 39.71875 -46.46875 40.078125 -46.160156 40.078125 -45.546875 L 40.078125 -42.59375 C 40.078125 -41.9375 39.71875 -41.609375 39 -41.609375 L 11.6875 -41.609375 L 11.6875 -22.390625 L 33.953125 -22.390625 C 34.773438 -22.390625 35.1875 -22.054688 35.1875 -21.390625 L 35.1875 -18.59375 C 35.1875 -17.96875 34.773438 -17.65625 33.953125 -17.65625 L 11.6875 -17.65625 L 11.6875 -4.890625 Z M 39.4375 -4.890625 "/></g></g></g></svg>