<svg xmlns="http://www.w3.org/2000/svg" xmlns:xlink="http://www.w3.org/1999/xlink" width="500" zoomAndPan="magnify" viewBox="0 0 375 374.999991" height="500" preserveAspectRatio="xMidYMid meet" version="1.0"><defs><g/><clipPath id="7c3d0c4c31"><path d="M 75 0.160156 L 140 0.160156 L 140 65 L 75 65 Z M 75 0.160156 " clip-rule="nonzero"/></clipPath><clipPath id="7bddc202d2"><path d="M 149 0.160156 L 220 0.160156 L 220 65 L 149 65 Z M 149 0.160156 " clip-rule="nonzero"/></clipPath><clipPath id="e8c2b5c9d2"><rect x="0" width="285" y="0" height="81"/></clipPath></defs><g transform="matrix(1, 0, 0, 1, 45, 146)"><g clip-path="url(#e8c2b5c9d2)"><g fill="#4a494a" fill-opacity="1"><g transform="translate(1.697791, 63.812039)"><g><path d="M 59.4375 -62.21875 C 60.144531 -62.21875 60.5 -61.875 60.5 -61.1875 L 60.5 -0.9375 C 60.5 -0.257812 60.144531 0.078125 59.4375 0.078125 L 54.65625 0.078125 C 53.96875 0.078125 53.625 -0.257812 53.625 -0.9375 L 53.625 -21.5 L 15.609375 -21.5 L 15.609375 -0.9375 C 15.609375 -0.257812 15.269531 0.078125 14.59375 0.078125 L 9.859375 0.078125 C 9.140625 0.078125 8.78125 -0.257812 8.78125 -0.9375 L 8.78125 -61.1875 C 8.78125 -61.875 9.140625 -62.21875 9.859375 -62.21875 L 14.59375 -62.21875 C 15.269531 -62.21875 15.609375 -61.875 15.609375 -61.1875 L 15.609375 -27.546875 L 53.625 -27.546875 L 53.625 -61.1875 C 53.625 -61.875 53.96875 -62.21875 54.65625 -62.21875 Z M 59.4375 -62.21875 "/></g></g></g><g clip-path="url(#7c3d0c4c31)"><g fill="#4a494a" fill-opacity="1"><g transform="translate(70.970884, 63.812039)"><g><path d="M 4.375 -30.90625 C 4.375 -34.5 4.90625 -37.90625 5.96875 -41.125 C 7.03125 -44.34375 8.535156 -47.28125 10.484375 -49.9375 C 12.429688 -52.59375 14.734375 -54.882812 17.390625 -56.8125 C 20.046875 -58.75 22.984375 -60.25 26.203125 -61.3125 C 29.421875 -62.375 32.8125 -62.90625 36.375 -62.90625 C 39.976562 -62.90625 43.382812 -62.375 46.59375 -61.3125 C 49.8125 -60.25 52.75 -58.75 55.40625 -56.8125 C 58.0625 -54.882812 60.363281 -52.59375 62.3125 -49.9375 C 64.257812 -47.28125 65.765625 -44.34375 66.828125 -41.125 C 67.898438 -37.90625 68.4375 -34.5 68.4375 -30.90625 C 68.4375 -27.332031 67.898438 -23.941406 66.828125 -20.734375 C 65.765625 -17.535156 64.257812 -14.617188 62.3125 -11.984375 C 60.363281 -9.359375 58.0625 -7.085938 55.40625 -5.171875 C 52.75 -3.253906 49.8125 -1.769531 46.59375 -0.71875 C 43.382812 0.332031 39.976562 0.859375 36.375 0.859375 C 32.8125 0.859375 29.421875 0.332031 26.203125 -0.71875 C 22.984375 -1.769531 20.046875 -3.253906 17.390625 -5.171875 C 14.734375 -7.085938 12.429688 -9.359375 10.484375 -11.984375 C 8.535156 -14.617188 7.03125 -17.535156 5.96875 -20.734375 C 4.90625 -23.941406 4.375 -27.332031 4.375 -30.90625 Z M 11.203125 -30.90625 C 11.203125 -28.09375 11.613281 -25.429688 12.4375 -22.921875 C 13.269531 -20.421875 14.445312 -18.132812 15.96875 -16.0625 C 17.5 -13.988281 19.3125 -12.195312 21.40625 -10.6875 C 23.507812 -9.175781 25.828125 -8.007812 28.359375 -7.1875 C 30.898438 -6.375 33.570312 -5.96875 36.375 -5.96875 C 39.21875 -5.96875 41.90625 -6.375 44.4375 -7.1875 C 46.96875 -8.007812 49.273438 -9.175781 51.359375 -10.6875 C 53.441406 -12.195312 55.253906 -13.988281 56.796875 -16.0625 C 58.335938 -18.132812 59.523438 -20.421875 60.359375 -22.921875 C 61.191406 -25.429688 61.609375 -28.09375 61.609375 -30.90625 C 61.609375 -33.738281 61.191406 -36.414062 60.359375 -38.9375 C 59.523438 -41.457031 58.335938 -43.765625 56.796875 -45.859375 C 55.253906 -47.960938 53.441406 -49.773438 51.359375 -51.296875 C 49.273438 -52.828125 46.96875 -54.003906 44.4375 -54.828125 C 41.90625 -55.660156 39.21875 -56.078125 36.375 -56.078125 C 33.570312 -56.078125 30.898438 -55.660156 28.359375 -54.828125 C 25.828125 -54.003906 23.507812 -52.828125 21.40625 -51.296875 C 19.3125 -49.773438 17.5 -47.960938 15.96875 -45.859375 C 14.445312 -43.765625 13.269531 -41.457031 12.4375 -38.9375 C 11.613281 -36.414062 11.203125 -33.738281 11.203125 -30.90625 Z M 11.203125 -30.90625 "/></g></g></g></g><g clip-path="url(#7bddc202d2)"><g fill="#4a494a" fill-opacity="1"><g transform="translate(143.758718, 63.812039)"><g><path d="M 75.171875 -1.34375 C 75.253906 -0.394531 74.847656 0.078125 73.953125 0.078125 L 69.609375 0.078125 C 68.796875 0.078125 68.347656 -0.351562 68.265625 -1.21875 L 64.46875 -43.703125 L 41.90625 -0.40625 C 41.6875 -0.03125 41.472656 0.25 41.265625 0.4375 C 41.054688 0.632812 40.789062 0.734375 40.46875 0.734375 L 40.421875 0.734375 C 40.128906 0.734375 39.878906 0.632812 39.671875 0.4375 C 39.460938 0.25 39.238281 -0.03125 39 -0.40625 L 16.4375 -43.703125 L 12.671875 -1.21875 C 12.566406 -0.351562 12.117188 0.078125 11.328125 0.078125 L 6.984375 0.078125 C 6.054688 0.078125 5.648438 -0.394531 5.765625 -1.34375 L 11.28125 -61.84375 C 11.363281 -62.550781 11.742188 -62.90625 12.421875 -62.90625 L 12.59375 -62.90625 C 12.945312 -62.90625 13.191406 -62.820312 13.328125 -62.65625 C 13.460938 -62.5 13.625 -62.269531 13.8125 -61.96875 L 40.46875 -11.125 L 67.125 -61.96875 C 67.289062 -62.269531 67.445312 -62.5 67.59375 -62.65625 C 67.738281 -62.820312 67.988281 -62.90625 68.34375 -62.90625 L 68.46875 -62.90625 C 69.15625 -62.90625 69.535156 -62.550781 69.609375 -61.84375 Z M 75.171875 -1.34375 "/></g></g></g></g><g fill="#4a494a" fill-opacity="1"><g transform="translate(224.63863, 63.812039)"><g><path d="M 52.6875 -6.546875 C 53.238281 -6.546875 53.671875 -6.40625 53.984375 -6.125 C 54.296875 -5.851562 54.453125 -5.488281 54.453125 -5.03125 L 54.453125 -1.265625 C 54.453125 -0.878906 54.320312 -0.570312 54.0625 -0.34375 C 53.800781 -0.113281 53.453125 0 53.015625 0 L 10.09375 0 C 9.21875 0 8.78125 -0.4375 8.78125 -1.3125 L 8.78125 -60.828125 C 8.78125 -61.671875 9.21875 -62.09375 10.09375 -62.09375 L 52.125 -62.09375 C 53.070312 -62.09375 53.546875 -61.6875 53.546875 -60.875 L 53.546875 -56.90625 C 53.546875 -56.03125 53.070312 -55.59375 52.125 -55.59375 L 15.609375 -55.59375 L 15.609375 -29.921875 L 45.375 -29.921875 C 46.46875 -29.921875 47.015625 -29.472656 47.015625 -28.578125 L 47.015625 -24.859375 C 47.015625 -24.015625 46.46875 -23.59375 45.375 -23.59375 L 15.609375 -23.59375 L 15.609375 -6.546875 Z M 52.6875 -6.546875 "/></g></g></g></g></g></svg>