<svg id="Layer_1" data-name="Layer 1" xmlns="http://www.w3.org/2000/svg" viewBox="0 0 589.46 543.18"><defs><style>.cls-1,.cls-2,.cls-3{fill:#f9f9f9;}.cls-1,.cls-2{stroke:#f9f9f9;stroke-miterlimit:10;}.cls-1{stroke-width:4.13px;}.cls-2{stroke-linecap:round;stroke-width:30.98px;}</style></defs><path class="cls-1" d="M128.28,538.82V36c4.2-6.37,10.3-7.85,17.6-7.85q274.86.16,549.71.09c1.71,0,3.44-.11,5.14,0,8.5.76,12.66,5.19,12.67,13.74,0,37.9.69,75.83-.51,113.69-.26,8.48.4,16.75.41,25.12q.24,175.71,0,351.42a35.91,35.91,0,0,1-3.75,15.28c-7.13,14.38-19.79,19.67-35.22,19.67H168c-10.8,0-21.27-1.79-28.66-10.17C134.73,551.75,131.91,544.93,128.28,538.82ZM420.75,169.2q-125.69,0-251.38,0a51.6,51.6,0,0,0-8,.41c-5.31.84-8.4,4.15-9.16,9.44a47.26,47.26,0,0,0-.26,6.84q0,170.25,0,340.51c0,2.1,0,4.2.17,6.28.4,5.13,3.17,8.52,8.11,9.76a35,35,0,0,0,8.43.91q252,.06,503.92,0c13.71,0,17.12-3.42,17.12-17.17V186.29c0-1.9,0-3.81-.1-5.71-.45-6.59-4.16-10.51-10.65-11.15-2.45-.24-4.94-.23-7.41-.23Zm-268.48-24H689.44V52.27H152.27Z" transform="translate(-126.22 -26.05)"/><path class="cls-1" d="M421,192.35H648.91c2.09,0,4.19,0,6.28.12,6.88.51,11.22,4.84,11.33,11.79.18,10.66.07,21.32.07,32V445.32c0,12.47-3.86,16.44-16.23,16.44q-229.64,0-459.28,0c-12,0-16-4-16-16.11V208c0-11.91,3.71-15.64,15.66-15.65ZM199.13,216.22V437.73H642.59V216.22Z" transform="translate(-126.22 -26.05)"/><line class="cls-2" x1="60.92" y1="478.84" x2="526.36" y2="478.84"/><line class="cls-2" x1="492.03" y1="72.68" x2="516.37" y2="72.68"/><circle class="cls-3" cx="88.27" cy="72.68" r="15.34"/><circle class="cls-3" cx="129.75" cy="72.68" r="15.34"/></svg>