<svg id="Layer_1" data-name="Layer 1" xmlns="http://www.w3.org/2000/svg" viewBox="0 0 1985.45 1766.39"><defs><style>.cls-1,.cls-2{fill:#7f8880;stroke:#7f8880;stroke-miterlimit:10;}.cls-1{stroke-width:22.38px;}.cls-2{stroke-width:10.44px;}</style></defs><path class="cls-1" d="M1194,2005.81q-397.74,0-795.48-.07c-110.86-.09-199.53-60.25-232.73-159.32C158,1823.05,153,1797.48,153,1772.91q-1.16-637.07-.39-1274.12C152.73,377.17,243,275,358.21,263.27c127.13-12.92,234.07,63.92,260.6,188,2.26,10.58,5.73,15.14,16.45,14,5.21-.57,10.54-.09,15.82-.09H2002.59c75.34,0,112.8,37.6,112.8,113.19q0,657.84,0,1315.67c0,74.12-37.64,111.76-112.08,111.78Q1598.66,2005.88,1194,2005.81ZM623.87,528.46v27.33q0,597.35,0,1194.7c0,7.9.47,15.9-.51,23.7-2,15.77-12,25.12-27.16,27.08-15.37,2-27.1-5.35-32.58-20-2.46-6.58-2.9-14.11-3.26-21.27-4.55-91-82.48-163.9-174.07-162.71S218.62,1673.3,215.7,1764c-3,92,70,179.24,182.24,179q803.19-1.62,1606.39-.51c38,0,47.73-10,47.73-48.24q0-658.68,0-1317.34c0-38-10.22-48.42-47.74-48.42q-678.55,0-1357.12,0ZM560.43,1607.11V1588q0-543.81,0-1087.62c0-7.25,0-14.51-.37-21.75C554.93,383,462,306.87,367.41,320.8c-91.17,13.43-151.57,83.08-151.61,175.9q-.23,546.78-.06,1093.56v17C316.51,1510.53,461,1511.37,560.43,1607.11Z" transform="translate(-141.13 -250.66)"/><path class="cls-2" d="M1429.91,1585h-27q-258.12,0-516.25,0c-46,0-56.84-10.9-56.84-56.78q0-373.86,0-747.72c0-42.9,10.9-53.67,54.39-53.67q441.47,0,882.93,0c43.07,0,53.87,10.81,53.88,54.26q.07,454.67,0,909.32c0,42.63-11.7,54.09-54.64,54.13q-138.7.11-277.42,0c-43.56,0-55.21-12-55.34-56.29q-.15-48.24-.56-96.46C1433,1590.41,1431.78,1589,1429.91,1585ZM1742.54,806.1H1208.92V837q0,195.36,0,390.71c0,8,.29,16.13-.59,24.08-2.48,22.36-17,36-37.59,36.23-20.87.22-35.71-13.14-38.32-35.34-1-8.73-.72-17.65-.72-26.49q-.06-196.54-.08-393.11c0-9.21-.79-18.42-1.21-27.56H908.32v195.75c9.94,0,18.57,0,27.2,0,33,.09,65.94-.38,98.89.5,21.51.58,34.62,13.09,36.62,34.29,2,21.36-9.24,35.26-29.84,40.51-7.64,2-15.92,1.78-23.92,1.82-35.94.17-71.88.08-108.43.08v427.74h222.8v-25.31c0-28.14-.29-56.28.12-84.41.44-31.08,14.39-47.59,39-47.3,24.45.3,37.5,16.76,38.08,48.34.22,12.06.05,24.12.05,36.18,0,23.85,0,47.7,0,74.16h29.39q109.76,0,219.51,0c41.78.06,52.88,11.2,53,52.69.06,35,0,70,0,104.82h231.4V1585h-124c-20.94,0-38.54-5.89-45.09-28.21-7.74-26.37,10.06-48.29,40.22-48.75,42.42-.64,84.85-.16,128.87-.16V1229.21H1327.11c-6.43,0-12.89.3-19.29-.15-23.21-1.65-38.42-16.73-38.68-38s14.83-37,37.72-38.85c6.39-.52,12.85-.2,19.29-.2h416.39Z" transform="translate(-141.13 -250.66)"/></svg>