<svg xmlns="http://www.w3.org/2000/svg" xmlns:xlink="http://www.w3.org/1999/xlink" width="500" zoomAndPan="magnify" viewBox="0 0 375 374.999991" height="500" preserveAspectRatio="xMidYMid meet" version="1.0"><defs><g/></defs><g fill="#4a494a" fill-opacity="1"><g transform="translate(53.084832, 294.532715)"><g><path d="M 230.59375 -241.375 C 233.34375 -241.375 234.71875 -240.050781 234.71875 -237.40625 L 234.71875 -3.640625 C 234.71875 -1.003906 233.34375 0.3125 230.59375 0.3125 L 212.03125 0.3125 C 209.394531 0.3125 208.078125 -1.003906 208.078125 -3.640625 L 208.078125 -83.421875 L 60.578125 -83.421875 L 60.578125 -3.640625 C 60.578125 -1.003906 59.257812 0.3125 56.625 0.3125 L 38.21875 0.3125 C 35.46875 0.3125 34.09375 -1.003906 34.09375 -3.640625 L 34.09375 -237.40625 C 34.09375 -240.050781 35.46875 -241.375 38.21875 -241.375 L 56.625 -241.375 C 59.257812 -241.375 60.578125 -240.050781 60.578125 -237.40625 L 60.578125 -106.890625 L 208.078125 -106.890625 L 208.078125 -237.40625 C 208.078125 -240.050781 209.394531 -241.375 212.03125 -241.375 Z M 230.59375 -241.375 "/></g></g></g></svg>