<svg id="Layer_1" data-name="Layer 1" xmlns="http://www.w3.org/2000/svg" viewBox="0 0 611.86 611.55"><defs><style>.cls-1,.cls-2{fill:#f9f9f9;stroke:#f9f9f9;stroke-miterlimit:10;}.cls-1{stroke-width:6.2px;}.cls-2{stroke-width:10.33px;}</style></defs><path class="cls-1" d="M792.16,435.86c13.38,0,26,.09,38.53,0,18-.17,31.3,7.73,38.65,24.05,7.28,16.16,4,31.13-7.7,44.33-.54.61-1,1.26-1.84,2.24,7.89,8.6,13.19,18.22,13.14,30.31-.06,11.87-5,21.44-13.13,30.06,1.5,1.85,3,3.56,4.31,5.36,10,13.27,12,27.71,4.7,42.6s-19.61,22.79-36.3,22.79q-257.28.1-514.55,0a50,50,0,0,1-50.42-50.38q-.06-252.23,0-504.46a50,50,0,0,1,50.32-50.46q211.88-.06,423.75,0c28.46,0,50.51,22.23,50.52,50.9q0,172.14,0,344.29ZM524.46,578.08c-15.82-4-31.46-6.57-46.07-11.93-51.23-18.81-87.12-54-107.58-104.65-1.68-4.15-3.59-6-8.15-5.58-5,.43-10.08.16-15.12.09A30,30,0,0,1,318,426.16q-.13-30.59,0-61.15a30,30,0,0,1,30-30c4.84,0,9.69-.28,14.5.08,4.38.32,6.56-1.06,8.26-5.4,31.62-80.65,113.57-127.22,199-113.31C664.54,231.75,730.79,319.1,720.4,415c-.74,6.79-1.83,13.54-2.78,20.55h54V173.92H287.69v6.6q0,201.42,0,402.84c0,22.11,12.13,34.1,34.45,34.1h202.7Q514.68,596.64,524.46,578.08ZM287.77,152.91H772c0-22.07,0-43.7,0-65.32,0-23.46-11.74-35.14-35.33-35.14H323c-1.89,0-3.78-.05-5.67,0-16.34.84-29,12.47-29.43,28.77C287.3,105,287.77,128.72,287.77,152.91ZM525.26,516c-68.88-9.87-115.9-71.63-104.95-140.06,9.42-58.88,62.59-106.6,130.12-101.2,32.12,2.58,59.34,16.42,80.4,40.9,30.34,35.24,37.09,75.68,23.82,120h40.91c17.12-58.84-4.48-134.19-67.5-175.24-61.26-39.89-142.75-33.56-196,15.13-54.91,50.23-69.34,129.58-35.2,194.42q25.67,48.73,75.75,72a147.36,147.36,0,0,0,51.56,13.68C517.9,541.76,518.33,529,525.26,516Zm-1.54-21.17c-.54-1.74-.69-2.33-.9-2.9-10.52-29.3,8.26-56.05,39.39-56.07,21.64,0,43.28-.08,64.92.07,3.62,0,5.69-.82,7-4.5,4.5-12.8,7.13-25.91,6.58-39.47a101,101,0,0,0-117.09-96c-73.5,11.62-109.32,98.54-65.27,158.61C474.41,476.49,496,489.81,523.72,494.83Zm171.93,1.56h64.27c23.74,0,47.47.12,71.21,0,15.65-.12,25.25-13.36,20.14-27.34-3.06-8.37-10.66-13-21.64-13q-133.27,0-266.55,0a40.52,40.52,0,0,0-4.41.11c-13.9,1.52-22.16,14.78-17.22,27.57,3.16,8.17,10.58,12.67,21.24,12.68Q629.17,496.43,695.65,496.39Zm.65,20.17H635.81c-24.78,0-49.57-.12-74.35,0-15.55.1-25.22,13.5-20.08,27.38,3.12,8.43,10.58,12.94,21.67,12.94H829.6a38.09,38.09,0,0,0,4.41-.12c13.73-1.56,21.82-14.19,17.33-27-3-8.47-10.57-13.23-21.45-13.23Q763.1,516.52,696.3,516.56Zm0,60.53H637.09c-25.21,0-50.41-.11-75.62,0-15.55.09-25.23,13.48-20.1,27.36,3.12,8.43,10.58,13,21.66,13q133.28,0,266.55,0a38.15,38.15,0,0,0,4.41-.12c13.73-1.55,21.83-14.17,17.35-27-3-8.48-10.56-13.24-21.43-13.25Q763.12,577.07,696.32,577.09ZM362.54,355.67a22,22,0,0,0-3-.51c-3.57,0-7.15-.17-10.71,0-6.71.37-10.58,4-10.64,10.78q-.25,29.61,0,59.23c.06,6.23,3.63,10,9.58,10.5,4.72.38,9.49.08,14.87.08A186.76,186.76,0,0,1,362.54,355.67Z" transform="translate(-264.43 -29.18)"/><circle class="cls-2" cx="82.48" cy="73.49" r="13.56"/><circle class="cls-2" cx="150.56" cy="73.49" r="13.56"/></svg>