<svg id="Layer_1" data-name="Layer 1" xmlns="http://www.w3.org/2000/svg" viewBox="0 0 374.11 551.2"><defs><style>.cls-1,.cls-2{fill:#f9f9f9;stroke:#f9f9f9;stroke-miterlimit:10;}.cls-1{stroke-width:8.26px;}.cls-2{stroke-linecap:round;stroke-width:30.98px;}</style></defs><path class="cls-1" d="M333.79,577.81c-4.41-3-9.47-5.45-13.07-9.26a20.77,20.77,0,0,1-5.11-19.66c1.08-4.63,2-9.3,3.45-13.82,1.48-4.71,5.73-7,9.87-5.73a8.31,8.31,0,0,1,5.53,10.07c-.8,3.61-2,7.12-2.74,10.74-1.17,6,1.43,10.4,6.49,11.49,4.34.94,8.56-1.94,10-7.42q17.13-66.18,34.07-132.4a2,2,0,0,0-.09-.65c-4.71-.29-9.46-.87-14.18-.69-1.28,0-3.19,2.23-3.59,3.75-7.51,28.42-23.33,88.37-30.7,116.82-.49,1.87-.9,3.78-1.57,5.58-1.65,4.46-5,6.46-9.58,5.37-4.42-1-6.63-4.31-5.72-8.73,1.68-8.09,12.25-47.59,14.3-55.6q9-35,18.09-70c-7.36-3.38-14.7-6.28-21.6-10a96,96,0,0,1-35-32.38c-2-3-4-4.19-7.66-4.12-12.36.23-24.73.19-37.1.06-14-.15-23.76-9.43-23.67-22.32s10.06-22.17,23.89-22.25c9-.05,18,0,27.92-1.22-1.15-1.26-2.06-3-3.48-3.72-14.13-7.4-19-19.16-14.4-34.49.54-1.81-.49-4.77-1.81-6.36-15.1-18.17-23.15-39.11-23.81-62.58-.86-30.11,9.9-55.85,31.23-77.12,2.73-2.72,5.82-5.09,9-7.83-3.07-3.34-5.44-5.67-7.52-8.22-6.46-7.9-6.17-17.57,1-24.88,10-10.22,20.18-20.29,30.34-30.36,8.78-8.71,19.05-8.76,28-.12a47.73,47.73,0,0,1,4.32,5.62c7.32-6.68,13.28-13,20-18.18C391.39,24.45,447,28.07,485.69,65.84c2.66,2.59,5.36,5.14,7.82,7.91,6.52,7.36,6.57,16.61.22,24-1.26,1.47-2.68,2.81-4.05,4.19Q400.49,191.16,311.36,280.4c-1.59,1.59-2.19,4.15-3.24,6.26,2.29.69,4.58,1.95,6.88,2,20.48.16,41,.09,62.33.09,0-4.89,0-9.58,0-14.26.11-12.39,7.45-19.86,19.74-19.88,31.62-.05,108.54-.18,140.16-.16,6.83,0,10.41,2.65,10.5,7.76.08,4.52-2.15,7.36-6.67,8.06a37.63,37.63,0,0,1-5.82.24c-30,0-105.36.25-135.39.06-4.78,0-6.56,1.23-6.47,6.25.22,11.93,0,11.93,11.65,11.93,44.87,0,89.75-.09,134.62.12,5.19,0,6.55-1.49,6.39-6.52-.35-11.48-.09-11.49-11.34-11.69-6.85-.11-10.34-2.72-10.46-7.79s3.76-8.22,10.63-8.27c2.29,0,4.59,0,6.89,0,13.2.06,20.15,6.92,20.41,20.22.09,4.39,0,8.78,0,14,3.36,0,6.29-.13,9.21,0,11.12.6,17.76,6.82,18.4,17.88,2.73,47.5-19.89,87.51-63.17,106.32-3.37,1.46-6.88,2.6-10.93,4.11,1.19,4.67,2.34,9.21,3.5,13.74,6.81,26.42,13.57,52.84,20.5,79.23a10.68,10.68,0,0,0,3.44,5.49c11.5,8.75,16.51,20.37,14,34.36-2.47,13.55-11,22.52-24.33,26.71a30.63,30.63,0,0,0-2.84,1.21H517.2c-1.78-.7-3.54-1.46-5.35-2.09-16.39-5.68-26.64-24.94-21.07-40.9a25.14,25.14,0,0,0,.37-15.8c-1-3.83-2.46-5-6.36-5-34.92.15-69.85.09-104.78.1-1.55,0-3.09.13-4.78.21-3.27,12.65-6.92,25-9.57,37.51-2.58,12.16-7.92,21.61-20.21,25.93ZM483.57,86.34c-5.06-4.86-9-8.83-13.16-12.63-27.77-25.58-70-30.32-101.94-10.15-10.88,6.87-20.3,16.31-29.58,25.41-23.09,22.61-46.32,45.13-68.36,68.74-28.48,30.52-29.24,78.78-3.14,111.25,2.26,2.81,4.07,3.51,7.88,2.66a36.52,36.52,0,0,1,15.47-.13c4.06.92,6.28.33,9.08-2.48Q389.07,179.57,478.5,90.29A59.12,59.12,0,0,1,483.57,86.34Zm89.64,218.84H314.67a6.77,6.77,0,0,0-2.63.06c-1.55.72-3.66,1.42-4.3,2.73a28.29,28.29,0,0,1-13.56,13.53c-1.25.61-2.69,3-2.44,4.19,1.75,8.42,3.95,16.73,6,25.09.83,3.44,2.7,4.93,6.42,4.54a103.83,103.83,0,0,1,10.59-.08q122.18,0,244.33.14c5.12,0,7.33-1.63,9-6.26C573.19,335.08,574.24,320.68,573.21,305.18ZM309.66,371.47c18.89,22.84,42.39,33.26,70.62,33.36q52.19.18,104.37,0c17.24-.05,33.55-3.82,48.25-13.27,8.29-5.32,15.81-11.47,22-20.08Zm167.23,92.9c-3.5-13.41-7.08-26.28-10.13-39.28-.86-3.68-2.52-4.28-5.77-4.25-16.95.12-33.91.05-50.86.05-10.82,0-10.85,0-13.56,10.54-2.79,10.84-5.5,21.7-8.34,32.94Zm8.56,33.41c-1.22-4.95-2.06-9.44-3.53-13.72a5.39,5.39,0,0,0-4-2.87q-45.52-.24-91.05,0a4.79,4.79,0,0,0-3.55,2.61c-1.48,4.45-2.45,9.07-3.71,14Zm20.81,15.47,16.4-4.45c-7.65-29.52-15.26-58.9-22.92-88.49l-17.36.83C490.41,452.11,498.34,482.69,506.26,513.25ZM524,525.77a17.87,17.87,0,0,0-18.48,17.61,18.06,18.06,0,0,0,36.1.87A18,18,0,0,0,524,525.77ZM282.68,120.23l34.95-35a37,37,0,0,0-5-4.4c-1-.63-3.26-.75-4-.07C297.79,91.31,287.08,102,276,113Zm-.78,235c-1.17-3.75-1.95-7-3.23-10a4.56,4.56,0,0,0-3.27-2.42c-9.49-.18-19-.25-28.48,0-3.87.12-6.81,2.18-6.45,6.68.33,4.1,3.13,5.7,6.89,5.72C258.61,355.27,269.86,355.23,281.9,355.23Zm11.88-58.39A10.52,10.52,0,0,0,283,286.27a11.07,11.07,0,0,0-10.57,10.52c-.12,5.69,5,10.78,10.78,10.8A10.46,10.46,0,0,0,293.78,296.84Z" transform="translate(-220.04 -30.74)"/><line class="cls-2" x1="235.81" y1="155.65" x2="235.81" y2="180"/><line class="cls-2" x1="277.9" y1="155.65" x2="277.9" y2="180"/></svg>