<svg id="Layer_1" data-name="Layer 1" xmlns="http://www.w3.org/2000/svg" viewBox="0 0 539.67 575.74"><defs><style>.cls-1{fill:#f9f9f9;stroke:#f9f9f9;stroke-miterlimit:10;stroke-width:4.13px;}</style></defs><path class="cls-1" d="M433.37,594.94c-13-3.42-26.28-6.22-39.06-10.42-13.88-4.55-27.19-10.84-41-15.57-21-7.17-41.71-4.27-62.07,3.16-4.52,1.66-8.89,3.72-13.42,5.37-7.72,2.82-15.12,0-17.68-6.61-2.43-6.27.73-12.5,8.3-15.92,18.93-8.53,38.51-14.61,59.51-14.58,17.91,0,34.66,5.23,51.2,11.62,14.84,5.72,29.58,12.13,44.93,16,26.4,6.71,51.82.57,76.61-9.15,13.43-5.27,26.79-11,40.63-14.92,27.1-7.72,53.17-2.33,78.71,8,14.57,5.9,29.21,12.07,44.37,16,25.57,6.58,50.42,1.23,74.56-8.12,3.11-1.2,6.17-2.55,9.27-3.78,7.47-3,13.74-.36,16.82,7,2.44,5.8-.49,12.3-7.46,15.17-7.86,3.25-15.79,6.54-24,8.8-11.4,3.14-23.05,5.35-34.59,8H673.34a78.19,78.19,0,0,1-8-1.78c-17.7-5.88-35.85-10.75-52.95-18.07-29.13-12.48-57.55-13.18-86.69-.56A398.24,398.24,0,0,1,485.57,589c-9,2.78-18.41,4-27.64,5.91Z" transform="translate(-257.25 -21.26)"/><path class="cls-1" d="M618.36,383.47H408.47c0,6.87.08,13.48,0,20.1a77.64,77.64,0,0,1-.75,11.63,11.29,11.29,0,0,1-11.87,9.49,12.45,12.45,0,0,1-11.48-11c-.1-1.11,0-2.24,0-3.35q0-148.68,0-297.36c0-39,23.29-71.76,59.86-84.77,52.56-18.72,111.07,18.28,116.44,73.7a50.22,50.22,0,0,1,0,12.67,11.22,11.22,0,0,1-10.93,9.31,11.52,11.52,0,0,1-11.63-9.23c-1.2-5.78-1.17-11.83-2.56-17.55-7.24-29.83-34.46-50.81-63.87-49.56-32.41,1.37-58.77,23.59-62.34,55.18-2,18.16-.37,36.73-.37,55.51H617.76c0-9.58.07-19,0-28.44-.14-17.12-.44-34.28,6.49-50.45C637.31,48.92,660,30.21,692.85,24.74c47.57-7.93,91.34,24.55,100.22,69.44a99.33,99.33,0,0,1,1.78,17.12c.15,7-4.51,12-10.92,12.58-6.12.58-11.37-3.81-12.57-10.75-1.08-6.2-1.37-12.59-3-18.63C760.69,65.75,733.55,45.87,705,47.67c-32,2-57.1,24-61.57,54.38a108,108,0,0,0-.7,15.59q-.06,144.21-.05,288.43a54.93,54.93,0,0,1-.51,8.32c-1,6.57-6.13,10.73-12.33,10.26s-10.88-5.08-11.06-11.79c-.24-8.73-.07-17.48-.1-26.22C618.64,385.74,618.49,384.83,618.36,383.47ZM409,316.15v41.41H618.23V316.15Zm-.19-92H618.32v-41H408.79Zm0,67.24H618.33V250.36H408.76Z" transform="translate(-257.25 -21.26)"/><path class="cls-1" d="M327.38,449.42c17.93-.11,34.82,4.57,51.31,11.16,11.7,4.67,23.28,9.74,35.21,13.73,24.89,8.31,49.77,6.6,74.26-1.93,10.66-3.71,21.12-8.06,31.53-12.45,33.44-14.08,66.67-13.7,100,.63,11.56,5,23.26,9.76,35.2,13.76,24.89,8.34,49.73,6.44,74.27-1.92,6.84-2.33,13.53-5.07,20.29-7.63,6.33-2.4,12.65-.1,15.54,5.7a11.38,11.38,0,0,1-5.1,15.3,184.59,184.59,0,0,1-22.1,9c-36.36,12.67-72.34,12.28-108-3.24-10.86-4.73-21.93-9.06-33.13-12.91-22.25-7.63-44.15-5.16-65.86,2.89-17.35,6.43-34.58,13.51-52.41,18.29-29.44,7.91-58.46,4.45-86.6-7.16-12.16-5-24.32-10.11-36.78-14.29-21.87-7.34-43.53-5-64.79,3.09-4.5,1.71-8.89,3.74-13.45,5.29-6.89,2.34-13.5-.35-15.94-6.19s.12-12.77,6.66-15.84C286.46,455.77,306.13,449.45,327.38,449.42Z" transform="translate(-257.25 -21.26)"/></svg>