<svg id="Layer_1" data-name="Layer 1" xmlns="http://www.w3.org/2000/svg" viewBox="0 0 1764.08 1764.07"><defs><style>.cls-1{fill:#7f8880;}</style></defs><path class="cls-1" d="M1977.54,251.83c29.82,13.75,38.43,37.42,38.36,69.41q-1.14,507.19-.47,1014.4c0,48.78-17.7,66.65-66,66.66q-83.52,0-167.05,0H1764c0,31.93.07,62.2,0,92.47-.1,35.12-20.61,58.66-51.2,59-31.23.31-52-23.51-52.1-59.72-.05-29.78,0-59.57,0-91.71h-20.87q-198.06,0-396.12,0c-42.48,0-61.77-19.45-61.79-62.2q0-79.21,0-158.44c0-34.85,21.07-58.4,51.77-58.32s51.43,23.55,51.52,58.58c.09,38.35,0,76.7,0,116h625.5V356.35H1278.2v20.23q0,238.53,0,477.06c0,6.87.29,13.91-1,20.58-5.2,26.29-29.15,44.45-54.86,42.22C1194.82,914.05,1175,892,1175,862.5q-.29-196.34-.09-392.67V356.56H356.27v1139h20.37q242.83,0,485.67.1c8.53,0,17.35.25,25.54,2.32,25.62,6.47,41.92,30.37,38.79,55.43-3.2,25.67-23.91,44.75-50.34,45.34-24.1.54-48.22.15-72.33.15H356.58v312.17H1652.75c.31-4.26.94-9.14,1-14,.12-28.7-.49-57.42.27-86.11a51.43,51.43,0,0,1,50.91-50.36c27.48-.29,51.36,21.15,51.85,49.3q1.35,78.34,0,156.71c-.47,26-21.33,46.08-47.29,48.52-6.83.64-13.77.32-20.65.32q-683.73,0-1367.46.46c-32,0-55.61-8.67-69.47-38.34V289.72a78.78,78.78,0,0,1,37.89-37.89Z" transform="translate(-251.82 -251.83)"/></svg>