<svg id="Layer_1" data-name="Layer 1" xmlns="http://www.w3.org/2000/svg" viewBox="0 0 589.59 576.78"><defs><style>.cls-1{fill:#fafafa;}</style></defs><path class="cls-1" d="M791.78,508c-15.13-9.12-30.93-8.19-46.83-1.88-16.1,6.39-32.22,12.75-48.71,19.27-.22-11.47-2.5-22-9.24-31-10.15-13.65-24.13-19.54-40.77-19.58q-50.37-.13-100.73,0a15.53,15.53,0,0,1-9.11-2.6,167.78,167.78,0,0,0-27.24-14.66C457,435.3,402.88,430.48,347.29,440.9c-3.56.66-4.94.6-5.07-3.77-.81-27.24-20.76-40.32-39.59-40.64-13.05-.23-26.1-.25-39.14,0-13.25.27-23.92,5.92-32.05,16.44-3.4,4.39-4.32,10-7.33,14.53V627.8c1.88.87,1.65,2.89,2.16,4.37,5.15,15,18.92,26,34.84,26.5,14.56.5,29.17.54,43.74,0A38.37,38.37,0,0,0,341.5,624c.44-4.89,2-4.82,6-3.37,63.69,23.4,127.49,46.52,191.15,70,31.31,11.54,61.38,9.72,90.58-6.52Q705.12,641.92,781,599.8a63,63,0,0,0,29.33-34C818.6,543.69,811.26,519.79,791.78,508ZM315.66,616.17c0,11.5-5,16.23-16.56,16.25-10.92,0-21.85,0-32.78,0s-15.77-5-15.78-15.81q0-44.57,0-89.15,0-44,0-88c0-11.75,4.87-16.56,16.78-16.58,10.74,0,21.48,0,32.21,0,11.08.05,16.12,4.95,16.13,16.13Q315.75,527.6,315.66,616.17Zm469.78-58.5a35.43,35.43,0,0,1-16.33,18.59Q692.21,619,615.3,661.68c-21,11.61-42.87,13.08-65.32,4.89q-101.79-37.14-203.54-74.38c-3.26-1.19-4.18-2.82-4.17-6.17.12-37.41.18-74.83,0-112.24,0-4.5,2.06-5.36,5.51-6A272.44,272.44,0,0,1,429.48,464c34.33,3.7,66.59,13.38,95.47,32.63,5.84,3.89,11.44,5.07,18.12,5,34.15-.19,68.3-.07,102.46-.1,7.77,0,14.82,1.42,19.85,8.12,7.71,10.26,4.75,24.77-6.84,30.24-13.72,6.47-28.41,10-43.42,11.85-32.11,3.86-64.37,1.56-96.56,1.93-5.24.06-7.07,1.28-6.53,6.59a84.09,84.09,0,0,1,0,14.37c-.33,4.4.85,6,5.61,5.84,12.65-.36,25.32-.12,42.67-.12,13.92.21,32.57.52,51.09-1.28,22.75-2.21,44.38-9,65.54-17.52,26-10.46,52.14-20.56,78.21-30.84,4.85-1.92,9.77-3.57,15-2.77C784.41,530.18,791.07,543.14,785.44,557.67Z" transform="translate(-224.11 -121.25)"/><path class="cls-1" d="M626.88,438.2c2.85,2.87,4.25,2.86,7.08,0q67.6-67.94,135.41-135.66c19.43-19.5,30.23-43.09,31.35-70.66,1.22-30.17-8.8-56.44-29.75-78.19-33.1-34.37-90.76-47.38-135.73-9.35-3.87,3.27-6,3.09-9.74,0C604.14,126.82,580,118.64,552,122.24c-52.15,6.69-92,51.86-92,105.08.11,29.86,11.33,55,32.29,76Q559.61,370.75,626.88,438.2ZM491.58,199.72c10.76-29,32.37-46.19,63.19-50.94,27.66-4.26,48.58,7.82,65.83,28.14,3.31,3.91,6.31,8.09,9.69,12.45,4.78-5.9,9.07-11.76,13.94-17.08,11.28-12.32,24.91-20.93,41.64-23.54,31.22-4.87,64.28,12.51,79.32,41.36,15.91,30.51,11.52,66.81-12.55,91.39C713.17,321.8,673,361.41,633.19,401.38c-2.07,2.08-3.2,2.36-5.44.11-40.45-40.69-81.63-80.67-121.26-122.13C485,256.88,480.8,228.73,491.58,199.72Z" transform="translate(-224.11 -121.25)"/></svg>