<svg id="Layer_1" data-name="Layer 1" xmlns="http://www.w3.org/2000/svg" viewBox="0 0 1684.92 1744.01"><defs><style>.cls-1{fill:#7f8880;}</style></defs><path class="cls-1" d="M558.47,2005.86c-38.23-16.94-39.22-52.64-44-86.68-10.92-78.5-21.84-157-33.38-235.42-6.18-42,12-67.07,54.67-73.22q137.87-19.85,275.72-39.63a56.11,56.11,0,0,1,63.07,46.5c4.45,27.88-15,56.55-43.92,61.32-46.34,7.66-92.95,13.72-139.44,20.47-4.91.72-9.79,1.57-18.84,3,9.82,7.73,16.52,13.29,23.51,18.46q157,116.1,350.79,139.69c342.3,42,671.31-163.89,781.18-490.29,51.73-153.64,51.76-308,2.58-462.43-11.56-36.3,2.31-67,34.28-76.67,29.2-8.79,59.63,6.15,68.14,37.25C1946,916.17,1960,964.36,1967,1013.38c23.27,162.56,3.63,320.54-67.06,469.28-123.77,260.4-327.22,423.92-611.07,478-245.51,46.79-469.91-9.42-669.8-160.5-2.21-1.67-4.56-3.14-10.53-7.23,3.11,24.49,5.59,45.78,8.57,67,3.86,27.46,8.43,54.83,12.13,82.32,3.76,27.89-8.29,46.52-40.13,63.6Z" transform="translate(-291.4 -261.85)"/><path class="cls-1" d="M1659.66,473.42c-5.53-39.88-10.78-78-16.13-116-1.49-10.65-3.56-21.23-4.85-31.9-3.66-30.28,16.36-58.34,44.6-62.87,31.18-5,59,14.53,63.74,46.67,12.87,86.82,25,173.75,37.28,260.65,1.43,10.08,3.19,20.21,3.41,30.35.65,29.61-18.71,52.46-47.77,56.63q-142.1,20.34-284.23,40.31c-30,4.19-57.82-17.35-62.36-47.43-4.2-27.86,15.49-55.82,44.75-60.58,46.38-7.53,93-13.59,139.5-20.33,4.87-.71,9.69-1.78,14.53-2.69.61-1.54,1.21-3.08,1.82-4.63-32.44-21.4-63.87-44.56-97.5-63.89-122.51-70.38-255.21-101.73-396-95.33-341,15.5-624.91,263.58-687.61,600.65-22.49,120.92-13.1,240.32,24.67,357.47,12.27,38-2.85,68.56-37.66,77.29-28,7-56.58-8-64.78-38-13.07-48-27-96.14-34.14-145.16-20.65-141-8.5-280,43.77-412.9,109.55-278.6,309.38-459.21,601.57-527.21,255.66-59.5,491-5.47,701.51,152.59,1.81,1.36,3.68,2.67,5.6,3.87C1654.27,471.47,1655.35,471.73,1659.66,473.42Z" transform="translate(-291.4 -261.85)"/><path class="cls-1" d="M1076.45,721.38c0-18.43-.08-37.67,0-56.9.17-32.35,22.32-57,52.16-58.16,30.81-1.21,54.62,20.17,57.4,52.47a414.24,414.24,0,0,1,1.71,49.3c-.43,12.76,3.3,18.06,16.49,21.8,55.71,15.82,108,39,146.2,84.73a83.83,83.83,0,0,1,18,40.61c3.25,24.33-11.87,44.92-33.73,53.36-22.54,8.7-46.62,2.11-62.81-17.2-45.81-54.62-137.64-77.37-203-50.31-51.12,21.15-84.9,67.5-84.06,115.3.86,49,33.92,94.8,86.41,113,24.1,8.36,50.62,11.33,76.3,13.3,91.91,7,165.9,45,214.14,124.89,67.18,111.22,22.5,254-98.2,316.6-22.38,11.61-46.86,19.18-71.9,29.22,0,14.15-.06,30.46,0,46.77.15,35.17-21.13,60.33-52.19,61.63-32.58,1.36-55.39-21.17-57.85-57.58-.91-13.58-.13-27.34-1.94-40.77-.68-5-5.81-12.49-10.15-13.5-58.69-13.62-104.55-48-145.83-89.48-20.36-20.45-19.81-53-.58-74,19.74-21.58,52-23.82,75.25-5.38,20.41,16.16,39.48,34.63,61.71,47.74,61.69,36.41,154.83,16.77,198.62-39.78,41.65-53.78,28.41-127-30.4-167.88-31.45-21.85-66.94-28.08-104.57-29.58-86-3.42-157.1-38.07-207.35-108.93-79.8-112.52-39.32-265.39,87.15-331.26C1026.27,739.46,1051.24,731.6,1076.45,721.38Z" transform="translate(-291.4 -261.85)"/></svg>