<svg width="48" height="47" viewBox="0 0 48 47" fill="none" xmlns="http://www.w3.org/2000/svg">
<path fill-rule="evenodd" clip-rule="evenodd" d="M23.7948 46.7347C36.6749 46.7347 47.1162 36.2933 47.1162 23.4132C47.1162 10.5332 36.6749 0.0917969 23.7948 0.0917969C10.9147 0.0917969 0.473389 10.5332 0.473389 23.4132C0.473389 36.2933 10.9147 46.7347 23.7948 46.7347Z" fill="#19354A"/>
<mask id="mask0_58_49" style="mask-type:luminance" maskUnits="userSpaceOnUse" x="16" y="15" width="16" height="16">
<path d="M20.6999 30.9494C20.0363 30.935 19.3798 30.8083 18.7585 30.5746C18.225 30.3745 17.7415 30.0605 17.3418 29.6545C16.9351 29.2549 16.6204 28.7714 16.4198 28.2378C16.1861 27.6164 16.0593 26.96 16.045 26.2963C16 25.4437 16 25.1701 16 22.9981C16 20.8262 16 20.562 16.0487 19.6999C16.0631 19.0363 16.1898 18.3798 16.4235 17.7585C16.6231 17.2252 16.9364 16.7417 17.3418 16.3418C17.7413 15.935 18.2248 15.6203 18.7585 15.4198C19.3798 15.1861 20.0363 15.0594 20.6999 15.045C21.5545 15 21.8262 15 23.9981 15C26.1701 15 26.4343 15 27.2963 15.0487C27.96 15.0631 28.6164 15.1898 29.2378 15.4235C29.7711 15.623 30.2546 15.9363 30.6545 16.3418C31.0611 16.7414 31.3757 17.2249 31.5765 17.7585C31.81 18.3799 31.9367 19.0363 31.9513 19.6999C31.9888 20.5526 32 20.8243 32 22.9981C32 25.1719 31.9906 25.4343 31.9513 26.2963C31.9368 26.96 31.8101 27.6164 31.5765 28.2378C31.371 28.769 31.0569 29.2514 30.6541 29.6541C30.2514 30.0569 29.769 30.371 29.2378 30.5765C28.6164 30.8102 27.96 30.9369 27.2963 30.9513C26.4437 30.9906 26.1719 31 23.9981 31C21.8243 31 21.5545 30.9869 20.6999 30.9494ZM20.7655 16.4879C20.258 16.4938 19.7553 16.587 19.2795 16.7634C18.9319 16.8913 18.6175 17.0956 18.3593 17.3612C18.0937 17.6193 17.8894 17.9337 17.7615 18.2813C17.5853 18.7572 17.4921 19.2599 17.4861 19.7674C17.4486 20.6107 17.4392 20.8637 17.4392 23C17.4392 25.1363 17.4392 25.3893 17.4861 26.2326C17.4921 26.7401 17.5853 27.2428 17.7615 27.7187C17.8893 28.0663 18.0936 28.3807 18.3593 28.6388C18.6175 28.9044 18.9319 29.1087 19.2795 29.2366C19.7553 29.413 20.258 29.5062 20.7655 29.5121C21.6088 29.5495 21.8618 29.5589 23.9981 29.5589C26.1345 29.5589 26.3874 29.5589 27.2307 29.5121C27.7373 29.5077 28.2393 29.4165 28.7149 29.2422C29.0599 29.1092 29.3732 28.9054 29.6346 28.644C29.896 28.3825 30.0998 28.0693 30.2328 27.7243C30.4091 27.2484 30.5023 26.7457 30.5083 26.2382C30.5458 25.3949 30.5552 25.142 30.5552 23.0056C30.5552 20.8693 30.5552 20.6163 30.5083 19.773C30.5059 19.2642 30.4159 18.7596 30.2422 18.2813C30.1142 17.9338 29.91 17.6194 29.6444 17.3612C29.3836 17.0944 29.0658 16.8901 28.7149 16.7634C28.2396 16.5872 27.7376 16.4941 27.2307 16.4879C26.3874 16.4486 26.1345 16.4411 23.9981 16.4411C21.8618 16.4411 21.6107 16.4486 20.7655 16.4879ZM19.8922 22.9981C19.8922 22.1856 20.1332 21.3913 20.5847 20.7158C21.0361 20.0402 21.6778 19.5137 22.4285 19.2029C23.1792 18.892 24.0052 18.8108 24.8021 18.9694C25.5989 19.1281 26.3309 19.5195 26.9053 20.0942C27.4797 20.6688 27.8708 21.4009 28.0291 22.1979C28.1873 22.9948 28.1057 23.8208 27.7945 24.5714C27.4833 25.322 26.9565 25.9634 26.2808 26.4145C25.605 26.8657 24.8106 27.1062 23.9981 27.1059C22.909 27.1054 21.8647 26.6724 21.0947 25.9021C20.3248 25.1318 19.8922 24.0872 19.8922 22.9981ZM21.3333 22.9981C21.3333 23.5256 21.4898 24.0413 21.7829 24.4798C22.076 24.9184 22.4926 25.2602 22.9799 25.462C23.4673 25.6638 24.0036 25.7165 24.5209 25.6134C25.0383 25.5104 25.5134 25.2562 25.8863 24.8831C26.2591 24.51 26.513 24.0346 26.6157 23.5172C26.7183 22.9998 26.6653 22.4636 26.4631 21.9763C26.261 21.4891 25.9189 21.0728 25.4802 20.78C25.0414 20.4872 24.5256 20.3311 23.9981 20.3315C23.2909 20.3315 22.6126 20.6124 22.1125 21.1125C21.6124 21.6126 21.3333 22.2909 21.3333 22.9981ZM27.3076 18.7292C27.3076 18.5394 27.3638 18.3539 27.4693 18.1962C27.5747 18.0384 27.7245 17.9154 27.8999 17.8428C28.0752 17.7702 28.2681 17.7511 28.4542 17.7882C28.6403 17.8252 28.8113 17.9166 28.9455 18.0508C29.0797 18.1849 29.1711 18.3559 29.2081 18.542C29.2451 18.7281 29.2261 18.9211 29.1535 19.0964C29.0809 19.2717 28.9579 19.4216 28.8001 19.527C28.6423 19.6324 28.4568 19.6887 28.267 19.6887C28.0126 19.6887 27.7685 19.5876 27.5886 19.4077C27.4087 19.2277 27.3076 18.9837 27.3076 18.7292Z" fill="white"/>
</mask>
<g mask="url(#mask0_58_49)">
<path d="M32.997 13.999H14.0005V32.9955H32.997V13.999Z" fill="white"/>
</g>
</svg>
