<svg width="48" height="47" viewBox="0 0 48 47" fill="none" xmlns="http://www.w3.org/2000/svg">
<path fill-rule="evenodd" clip-rule="evenodd" d="M24.1622 46.7347C37.0423 46.7347 47.4837 36.2933 47.4837 23.4132C47.4837 10.5332 37.0423 0.0917969 24.1622 0.0917969C11.2822 0.0917969 0.84082 10.5332 0.84082 23.4132C0.84082 36.2933 11.2822 46.7347 24.1622 46.7347Z" fill="#19354A"/>
<path d="M26.2855 17.4435H28.4289C28.6261 17.4435 28.7862 17.2927 28.7862 17.1069V15.0871C28.7862 14.9013 28.6261 14.7505 28.4289 14.7505H26.2855C24.1192 14.7505 22.3559 16.4114 22.3559 18.4534V20.8097H19.8553C19.6581 20.8097 19.498 20.9606 19.498 21.1464V23.1661C19.498 23.3519 19.6581 23.5027 19.8553 23.5027H22.3559V30.5719C22.3559 30.7577 22.516 30.9085 22.7132 30.9085H24.8566C25.0538 30.9085 25.2138 30.7577 25.2138 30.5719V23.5027H27.7145C27.8681 23.5027 28.0045 23.4098 28.0538 23.2725L28.7683 21.2527C28.8047 21.1504 28.7862 21.0373 28.719 20.9491C28.6511 20.8616 28.544 20.8097 28.4289 20.8097H25.2138V18.4534C25.2138 17.8966 25.6946 17.4435 26.2855 17.4435Z" fill="white"/>
</svg>
