<svg id="Layer_1" data-name="Layer 1" xmlns="http://www.w3.org/2000/svg" viewBox="0 0 609.48 602.13"><defs><style>.cls-1,.cls-2{fill:#f9f9f9;stroke-miterlimit:10;}.cls-1,.cls-2,.cls-3,.cls-4{stroke:#f9f9f9;}.cls-1{stroke-width:8.26px;}.cls-2{stroke-width:10.33px;}.cls-3,.cls-4{fill:none;stroke-linecap:round;stroke-linejoin:round;}.cls-3{stroke-width:24.78px;}.cls-4{stroke-width:30.98px;}</style></defs><path class="cls-1" d="M819.78,597.37v18.47H241.28V597.59h36.78V591c0-49.81.43-99.61-.3-149.4-.19-13-3.81-26.06-6.2-39q-13.81-75-27.84-149.93c-.9-4.84-2.08-9.69-2.34-14.57-.6-11.59,7.57-20,19.16-20.09,9.09-.09,18.18-.05,27.27,0,11.42,0,18.67,5.87,20.79,17,2.93,15.29,5.66,30.61,8.49,45.92q13.13,70.91,26.17,141.83c.78,4.25,3.36,4,6.41,4,47.63,0,95.27.63,142.87-.34,19.33-.4,36.85,11.78,33,38.25-5.93,41-38.22,69.76-79.85,71.1-9.6.31-19.19,1.13-29.7,1.78,2.25,10.05,4.36,19.4,6.43,28.76,1.88,8.46,4,16.89,5.44,25.42.78,4.61,2.6,5.91,7.29,5.88,35.76-.22,71.55-.76,107.3.23,12.08.34,19.59-2.64,24.08-13.92,2-5.07,5.57-9.51,8.39-14.27A41.09,41.09,0,0,1,598,551.12c1.58-.53,3.58-3,3.58-4.55q.28-69.95,0-139.91a6.84,6.84,0,0,0-3.36-5.05c-29.87-13.41-48.31-35.92-52.58-68.49-1.83-14-1.06-28.41-.54-42.61.32-8.61,9.07-15.55,18.06-15.64,12.61-.12,25.22,0,38.57,0v-6.71q0-34.38,0-68.77c0-21.77,16.59-38.39,38.1-38.36,21.14,0,37.66,16.7,37.76,38.11,0,6.08,0,12.15,0,18.5h-19c0-5.45,0-10.89,0-16.34-.1-12.44-8.1-21.34-19.07-21.28s-18.84,8.85-18.87,21.45q-.06,34.08,0,68.18v4.9h18.73V256.24h19.07v18.59H789.11c14.19,0,21.6,7.23,21.25,21.57-.35,15,.45,30.26-2.42,44.78-5.58,28.18-23.15,47.83-49.39,59.41-3.9,1.72-5.13,3.66-5.12,7.82q.23,67.88,0,135.76c0,4.28.56,6.64,5.37,7.87,9.18,2.37,15.94,8.44,20.86,16.48,5.15,8.41,10,17,15.4,25.27a8.74,8.74,0,0,0,5.89,3.41C807,597.66,813.13,597.37,819.78,597.37Zm-256-303.3c0,9.11-.08,17.94,0,26.78.42,38.51,29,67.41,67.49,67.76,30.82.28,61.65.15,92.47,0,14.56-.06,28.15-3.84,39.9-12.71,28.55-21.54,29.78-48,26.92-81.85ZM734.17,549.72V408h-113V549.72ZM297.42,597h112c-4.38-19.59-8.65-38.74-13-58.19l-31.42,1.67c-.38-6.55-.73-12.38-1.09-18.6,2.08-.3,4-.7,5.9-.82,16.35-1.06,32.73-1.81,49.06-3.15,15.09-1.24,30.44-1.76,45.13-5,15.75-3.5,27.08-14.31,35.32-28.9H297.42ZM260.65,237.09c11.71,63.58,23.28,126.45,34.85,189.27h29q-17.65-95-35.18-189.27ZM774.3,597c-3.89-6.49-7.4-12.33-10.89-18.19-4-6.7-10-9.92-17.69-9.93-45.41,0-90.82-.21-136.23.25-5,.05-11.23,2.65-14.53,6.24-5.59,6.05-9.29,13.85-14.24,21.63Zm-477-132.77H505.45c3.66-14,.1-18.7-13.9-18.7H297.31Z" transform="translate(-228.22 -19.28)"/><path class="cls-2" d="M393.06,351.07c-13-2-18.95-8.84-19-21.25,0-5.48,0-11,0-17.05H355.56V293.9h18.53c0-6.7,0-12.77,0-18.84.11-11.06,8-19.14,18.93-19.17q37.92-.12,75.83,0c11.06,0,18.91,8,19,19.07.07,6.08,0,12.16,0,18.66h18.52v19.05H487.91c0,6.1,0,11.57,0,17.05,0,12.47-5.89,19.27-19,21.35,0,5.75,0,11.61,0,17.47-.05,12.28-7.7,20.06-19.81,20.1s-24.49.07-36.74,0c-11.41-.07-19.21-7.95-19.31-19.41C393,363.32,393.06,357.41,393.06,351.07Zm75.62-75.83H393.52v56.2h75.16ZM412.5,350.92v18.46h37.1V350.92Z" transform="translate(-228.22 -19.28)"/><path class="cls-3" d="M569.06,217.52H555.68a24.23,24.23,0,0,1-24.23-24.23V55.89a24.22,24.22,0,0,1,24.23-24.22H799.74A24.22,24.22,0,0,1,824,55.89v137.4a24.23,24.23,0,0,1-24.23,24.23H712.21" transform="translate(-228.22 -19.28)"/><line class="cls-4" x1="15.49" y1="586.64" x2="593.99" y2="586.64"/></svg>